<?xml version="1.0" encoding="utf-8"?>
<!-- Generator: Adobe Illustrator 28.0.0, SVG Export Plug-In . SVG Version: 6.00 Build 0)  -->
<svg version="1.1" id="Layer_1" xmlns="http://www.w3.org/2000/svg" xmlns:xlink="http://www.w3.org/1999/xlink" x="0px" y="0px"
	 viewBox="0 0 1681.8 426.2" style="enable-background:new 0 0 1681.8 426.2;" xml:space="preserve">
<style type="text/css">
	.st0{fill:url(#SVGID_1_);}
	.st1{fill:url(#SVGID_00000062887563325472608320000016576970366452407720_);}
	.st2{fill:url(#SVGID_00000114032055203210910120000009313965889835248825_);}
	.st3{enable-background:new    ;}
	.st4{fill:#FFFFFF;}
	.st5{fill:#057BFF;}
	.st6{fill:#03FFFF;}
</style>
<g id="template">
	
		<linearGradient id="SVGID_1_" gradientUnits="userSpaceOnUse" x1="295.81" y1="212.7748" x2="1085.55" y2="212.7748" gradientTransform="matrix(1 0 0 -1 0 425.8898)">
		<stop  offset="8.000000e-02" style="stop-color:#066C8A"/>
		<stop  offset="0.4" style="stop-color:#065E89"/>
		<stop  offset="0.72" style="stop-color:#065689"/>
		<stop  offset="1" style="stop-color:#07488B"/>
	</linearGradient>
	<path class="st0" d="M1224.8,44c-13.8-13.8-29.9-24.6-47.8-32.2C1158.4,4,1138.7,0,1118.4,0H976.4c-20.3,0-40,4-58.5,11.8
		c-17.9,7.6-34,18.4-47.8,32.2c-3.9,3.9-7.6,8-11,12.3c-7.1,8.9-13.2,18.5-18.2,28.8c-1.1,2.2-2.1,4.5-3,6.7
		c-7.8,18.5-11.8,38.2-11.8,58.5v125.6c0,23.3-6.7,45.1-18.2,63.6c-21.3,34.2-59.3,57-102.4,57H563.3c-43.2,0-81.1-22.8-102.4-57
		c-0.8,2.2-1.7,4.4-2.6,6.5c-3.5,8.3-7.6,16.3-12.3,23.9c3.4,4.3,7.1,8.4,11,12.3c13.8,13.8,29.9,24.6,47.8,32.2
		c18.5,7.8,38.2,11.8,58.5,11.8h142.1c20.3,0,40-4,58.5-11.8c17.9-7.6,34-18.4,47.8-32.2c3.9-3.9,7.6-8,11-12.3
		c7.1-8.9,13.2-18.5,18.2-28.8c1.1-2.2,2.1-4.5,3-6.7c7.8-18.5,11.8-38.2,11.8-58.5V150.3c0-23.3,6.7-45.1,18.2-63.6
		c21.3-34.2,59.3-57,102.4-57h142.1c43.2,0,81.1,22.8,102.4,57c0.8-2.2,1.7-4.3,2.6-6.5c3.5-8.3,7.6-16.3,12.3-23.9
		C1232.3,52,1228.7,47.9,1224.8,44L1224.8,44z"/>
	
		<linearGradient id="SVGID_00000170978965359340195090000000339411105120019631_" gradientUnits="userSpaceOnUse" x1="399.29" y1="212.7698" x2="1222.05" y2="212.7698" gradientTransform="matrix(1 0 0 -1 0 425.8898)">
		<stop  offset="0.18" style="stop-color:#066C8A"/>
		<stop  offset="0.53" style="stop-color:#065F89"/>
		<stop  offset="0.72" style="stop-color:#065689"/>
		<stop  offset="1" style="stop-color:#07488B"/>
	</linearGradient>
	<path style="fill:url(#SVGID_00000170978965359340195090000000339411105120019631_);" d="M1670,91.8c-7.6-17.9-18.4-34-32.2-47.8
		c-13.8-13.8-29.9-24.6-47.8-32.2C1571.4,4,1551.7,0,1531.5,0h-142.1c-20.3,0-40,4-58.5,11.8c-17.9,7.6-34,18.4-47.8,32.2
		c-3.9,3.9-7.6,8-11,12.3c-7.1,8.9-13.2,18.5-18.2,28.8c-1.1,2.2-2.1,4.5-3.1,6.7c-7.8,18.5-11.8,38.2-11.8,58.5v125.6
		c0,23.3-6.7,45.1-18.2,63.6c-21.3,34.2-59.3,57-102.4,57H976.4c-43.2,0-81.1-22.8-102.4-57c-0.8,2.2-1.7,4.4-2.6,6.5
		c-3.5,8.3-7.6,16.3-12.3,23.9c3.4,4.3,7.1,8.4,11,12.3c13.8,13.8,29.9,24.6,47.8,32.2c18.5,7.8,38.2,11.8,58.5,11.8h142.1
		c20.3,0,40-4,58.5-11.8c17.9-7.6,34-18.4,47.8-32.2c3.9-3.9,7.6-8,11-12.3c7.1-8.9,13.2-18.5,18.2-28.8c1.1-2.2,2.1-4.5,3.1-6.7
		c7.8-18.5,11.8-38.2,11.8-58.5V150.3c0-23.3,6.7-45.1,18.2-63.6c21.3-34.2,59.3-57,102.4-57h142.1c66.5,0,120.6,54.1,120.6,120.6
		v125.6c0,66.5-54.1,120.6-120.6,120.6h-142.1c-43.2,0-81.1-22.8-102.4-57c-0.8,2.2-1.7,4.4-2.6,6.5c-3.5,8.3-7.6,16.3-12.3,23.9
		c3.4,4.3,7.1,8.4,11,12.3c13.8,13.8,29.9,24.6,47.8,32.2c18.5,7.8,38.2,11.8,58.5,11.8h142.1c20.3,0,40-4,58.5-11.8
		c17.9-7.6,34-18.4,47.8-32.2c13.8-13.8,24.6-29.9,32.2-47.8c7.8-18.5,11.8-38.2,11.8-58.5V150.4
		C1681.8,130.1,1677.8,110.4,1670,91.8L1670,91.8z"/>
	
		<linearGradient id="SVGID_00000048477013468347884150000003129178044169986709_" gradientUnits="userSpaceOnUse" x1="580.92" y1="212.7798" x2="1403.6799" y2="212.7798" gradientTransform="matrix(1 0 0 -1 0 425.8898)">
		<stop  offset="0.18" style="stop-color:#066C8A"/>
		<stop  offset="0.53" style="stop-color:#065F89"/>
		<stop  offset="0.72" style="stop-color:#065689"/>
		<stop  offset="1" style="stop-color:#07488B"/>
	</linearGradient>
	<path style="fill:url(#SVGID_00000048477013468347884150000003129178044169986709_);" d="M811.7,44c-13.8-13.8-29.9-24.6-47.8-32.2
		C745.4,4,725.7,0,705.4,0H563.3c-20.3,0-40,4-58.5,11.8c-17.9,7.6-34,18.4-47.8,32.2c-3.9,3.9-7.6,8-11,12.3
		c-7.1,8.9-13.2,18.5-18.1,28.8c-1.1,2.2-2.1,4.5-3,6.7c-7.8,18.5-11.8,38.2-11.8,58.5v125.6c0,23.3-6.7,45.1-18.2,63.6
		c-21.3,34.2-59.3,57-102.4,57H150.3c-66.5,0-120.6-54.1-120.6-120.6V150.3c0-66.5,54.1-120.6,120.6-120.6h142.1
		c43.2,0,81.1,22.8,102.4,57c0.8-2.2,1.7-4.3,2.6-6.5c3.5-8.3,7.6-16.3,12.3-23.9c-3.4-4.3-7.1-8.4-11-12.3
		c-13.8-13.8-29.9-24.6-47.8-32.2C332.4,4,312.7,0,292.4,0H150.3c-20.3,0-40,4-58.5,11.8C73.9,19.4,57.8,30.2,44,44
		C30.2,57.8,19.4,73.9,11.8,91.8C4,110.4,0,130.1,0,150.3v125.6c0,20.3,4,40,11.8,58.5c7.6,17.9,18.4,34,32.2,47.8
		c13.8,13.8,29.9,24.6,47.8,32.2c18.5,7.8,38.2,11.8,58.5,11.8h142.1c20.3,0,40-4,58.5-11.8c17.9-7.6,34-18.4,47.8-32.2
		c3.9-3.9,7.6-8,11-12.3c7.1-8.9,13.2-18.5,18.1-28.8c1.1-2.2,2.1-4.5,3-6.7c7.8-18.5,11.8-38.2,11.8-58.5V150.3
		c0-23.3,6.7-45.1,18.2-63.6c21.3-34.2,59.3-57,102.4-57h142.1c43.2,0,81.1,22.8,102.4,57c0.8-2.2,1.7-4.3,2.6-6.5
		c3.5-8.3,7.6-16.3,12.3-23.9C819.3,52,815.7,47.9,811.7,44L811.7,44z"/>
</g>
<g class="st3">
	<path class="st4" d="M149.1,248.2c-1.7,0-3.3-0.3-4.8-0.9c-1.5-0.6-2.7-1.4-3.8-2.5c-1.1-1.1-1.9-2.3-2.5-3.7
		c-0.6-1.4-0.9-3-0.9-4.6s0.3-3.2,0.9-4.6c0.6-1.4,1.4-2.7,2.5-3.7c1.1-1.1,2.4-1.9,3.8-2.5c1.5-0.6,3.1-0.9,4.8-0.9
		c1.7,0,3.3,0.3,4.8,0.9c1.5,0.6,2.7,1.4,3.8,2.5c1.1,1.1,1.9,2.3,2.5,3.7c0.6,1.4,0.9,3,0.9,4.7s-0.3,3.2-0.9,4.7
		c-0.6,1.4-1.4,2.7-2.5,3.7c-1.1,1.1-2.3,1.9-3.8,2.5C152.4,247.9,150.8,248.2,149.1,248.2z M149.1,246.7c1.5,0,2.8-0.3,4.1-0.8
		s2.3-1.2,3.3-2.1s1.6-2,2.2-3.2c0.5-1.2,0.8-2.6,0.8-4c0-1.5-0.3-2.8-0.8-4c-0.5-1.2-1.2-2.3-2.2-3.2c-0.9-0.9-2-1.6-3.3-2.1
		c-1.3-0.5-2.6-0.8-4.1-0.8c-1.5,0-2.8,0.3-4.1,0.8c-1.3,0.5-2.3,1.2-3.3,2.1c-0.9,0.9-1.7,2-2.2,3.2c-0.5,1.2-0.8,2.6-0.8,4
		c0,1.5,0.3,2.8,0.8,4c0.5,1.2,1.2,2.3,2.2,3.2c0.9,0.9,2,1.6,3.3,2.1S147.6,246.7,149.1,246.7z"/>
	<path class="st4" d="M166.4,254.4v-23.6h1.6v5.6l-0.3,3l0.3,3v12H166.4z M175,248.2c-1.5,0-2.9-0.4-4.1-1.1c-1.2-0.7-2.2-1.7-2.9-3
		s-1.1-2.9-1.1-4.7c0-1.8,0.4-3.4,1.1-4.7s1.7-2.3,2.9-3c1.2-0.7,2.6-1.1,4.1-1.1c1.6,0,3.1,0.4,4.4,1.1c1.3,0.7,2.3,1.8,3,3.1
		c0.7,1.3,1.1,2.8,1.1,4.6s-0.4,3.2-1.1,4.6c-0.7,1.3-1.7,2.3-3,3.1C178.1,247.8,176.7,248.2,175,248.2z M174.9,246.7
		c1.3,0,2.5-0.3,3.6-0.9c1.1-0.6,1.9-1.5,2.5-2.6c0.6-1.1,0.9-2.4,0.9-3.8c0-1.5-0.3-2.7-0.9-3.8c-0.6-1.1-1.4-1.9-2.5-2.5
		c-1.1-0.6-2.2-0.9-3.6-0.9c-1.3,0-2.5,0.3-3.5,0.9c-1,0.6-1.9,1.5-2.5,2.5c-0.6,1.1-0.9,2.4-0.9,3.8c0,1.4,0.3,2.7,0.9,3.8
		c0.6,1.1,1.4,2,2.5,2.6C172.4,246.4,173.6,246.7,174.9,246.7z"/>
	<path class="st4" d="M195.7,248.2c-1.7,0-3.3-0.4-4.6-1.1c-1.3-0.7-2.4-1.8-3.1-3.1c-0.8-1.3-1.1-2.8-1.1-4.5
		c0-1.7,0.4-3.2,1.1-4.5c0.7-1.3,1.7-2.3,3-3.1c1.3-0.7,2.7-1.1,4.2-1.1c1.6,0,3,0.4,4.2,1.1c1.2,0.7,2.2,1.7,2.9,3.1
		c0.7,1.3,1.1,2.8,1.1,4.5c0,0.1,0,0.1,0,0.2c0,0.1,0,0.2,0,0.2H188v-1.3h14.3l-0.7,0.6c0-1.3-0.3-2.5-0.8-3.6
		c-0.6-1.1-1.4-1.9-2.4-2.5c-1-0.6-2.1-0.9-3.4-0.9c-1.3,0-2.4,0.3-3.4,0.9c-1,0.6-1.8,1.4-2.4,2.5s-0.9,2.3-0.9,3.6v0.3
		c0,1.4,0.3,2.7,0.9,3.7s1.5,1.9,2.6,2.5c1.1,0.6,2.4,0.9,3.8,0.9c1.1,0,2.1-0.2,3.1-0.6c1-0.4,1.8-1,2.4-1.8l1,1.1
		c-0.7,0.9-1.7,1.6-2.8,2.1C198.2,247.9,197,248.2,195.7,248.2z"/>
	<path class="st4" d="M216.8,230.7c1.4,0,2.6,0.3,3.7,0.8c1,0.5,1.9,1.4,2.4,2.4c0.6,1.1,0.9,2.4,0.9,4V248h-1.7v-9.9
		c0-1.9-0.5-3.4-1.5-4.4c-1-1-2.3-1.5-4.1-1.5c-1.3,0-2.5,0.3-3.5,0.8c-1,0.5-1.7,1.3-2.3,2.3c-0.5,1-0.8,2.2-0.8,3.6v9.2h-1.6
		v-17.2h1.6v4.8l-0.2-0.5c0.5-1.4,1.4-2.4,2.6-3.2C213.5,231.1,215,230.7,216.8,230.7z"/>
</g>
<g class="st3">
	<path class="st4" d="M238.3,248v-23.1h5.3v18.7h11.6v4.4H238.3z"/>
	<path class="st4" d="M260.5,227.8c-0.9,0-1.7-0.3-2.3-0.8c-0.6-0.5-0.9-1.2-0.9-2c0-0.8,0.3-1.5,0.9-2c0.6-0.5,1.4-0.8,2.3-0.8
		c0.9,0,1.7,0.3,2.3,0.8c0.6,0.5,0.9,1.2,0.9,2c0,0.9-0.3,1.6-0.9,2.1C262.2,227.5,261.4,227.8,260.5,227.8z M257.9,248v-17.8h5.1
		V248H257.9z"/>
</g>
<g class="st3">
	<path class="st4" d="M272.6,248l-7.5-17.8h5.3l6.2,15.3H274l6.4-15.3h5l-7.5,17.8H272.6z"/>
</g>
<g class="st3">
	<path class="st4" d="M295.9,248.3c-2,0-3.8-0.4-5.3-1.2c-1.5-0.8-2.7-1.9-3.5-3.3c-0.8-1.4-1.3-2.9-1.3-4.7c0-1.8,0.4-3.4,1.2-4.7
		s2-2.5,3.4-3.2c1.4-0.8,3-1.2,4.9-1.2c1.7,0,3.3,0.4,4.7,1.1c1.4,0.7,2.5,1.8,3.3,3.2s1.2,3,1.2,4.9c0,0.2,0,0.4,0,0.7
		c0,0.3,0,0.5-0.1,0.7h-14.4v-3h11.7l-2,0.9c0-0.9-0.2-1.7-0.6-2.4c-0.4-0.7-0.9-1.2-1.6-1.6c-0.7-0.4-1.4-0.6-2.3-0.6
		c-0.9,0-1.7,0.2-2.3,0.6c-0.7,0.4-1.2,0.9-1.6,1.6c-0.4,0.7-0.6,1.5-0.6,2.5v0.8c0,1,0.2,1.8,0.6,2.6s1,1.3,1.8,1.7
		c0.8,0.4,1.7,0.6,2.8,0.6c0.9,0,1.8-0.1,2.5-0.4c0.7-0.3,1.4-0.7,2-1.3l2.7,3c-0.8,0.9-1.8,1.6-3.1,2.1
		C298.9,248.1,297.5,248.3,295.9,248.3z"/>
</g>
<g class="st3">
	<path class="st4" d="M147.5,282l10.3-23.1h5.3l10.3,23.1h-5.6l-8.4-20.4h2.1L153,282H147.5z M152.7,277.1l1.4-4.1H166l1.5,4.1
		H152.7z"/>
</g>
<g class="st3">
	<path class="st4" d="M183.9,282.3c-1.9,0-3.6-0.4-5.1-1.2s-2.7-1.9-3.5-3.3c-0.8-1.4-1.3-3-1.3-4.7c0-1.8,0.4-3.4,1.3-4.7
		c0.8-1.4,2-2.5,3.5-3.2c1.5-0.8,3.2-1.2,5.1-1.2c1.9,0,3.5,0.4,4.9,1.2c1.4,0.8,2.4,1.9,3.1,3.3l-4,2.1c-0.5-0.8-1-1.5-1.7-1.8
		c-0.7-0.4-1.4-0.6-2.3-0.6c-0.9,0-1.7,0.2-2.4,0.6c-0.7,0.4-1.3,1-1.7,1.7c-0.4,0.7-0.6,1.6-0.6,2.6s0.2,1.9,0.6,2.6
		c0.4,0.7,1,1.3,1.7,1.7c0.7,0.4,1.5,0.6,2.4,0.6c0.8,0,1.6-0.2,2.3-0.6s1.3-1,1.7-1.9l4,2.2c-0.7,1.4-1.7,2.5-3.1,3.3
		C187.4,281.9,185.8,282.3,183.9,282.3z"/>
	<path class="st4" d="M203.2,282.3c-1.9,0-3.6-0.4-5.1-1.2s-2.7-1.9-3.5-3.3c-0.8-1.4-1.3-3-1.3-4.7c0-1.8,0.4-3.4,1.3-4.7
		c0.8-1.4,2-2.5,3.5-3.2c1.5-0.8,3.2-1.2,5.1-1.2c1.9,0,3.5,0.4,4.9,1.2c1.4,0.8,2.4,1.9,3.1,3.3l-4,2.1c-0.5-0.8-1-1.5-1.7-1.8
		c-0.7-0.4-1.4-0.6-2.3-0.6c-0.9,0-1.7,0.2-2.4,0.6c-0.7,0.4-1.3,1-1.7,1.7c-0.4,0.7-0.6,1.6-0.6,2.6s0.2,1.9,0.6,2.6
		c0.4,0.7,1,1.3,1.7,1.7c0.7,0.4,1.5,0.6,2.4,0.6c0.8,0,1.6-0.2,2.3-0.6s1.3-1,1.7-1.9l4,2.2c-0.7,1.4-1.7,2.5-3.1,3.3
		C206.7,281.9,205,282.3,203.2,282.3z"/>
</g>
<g class="st3">
	<path class="st4" d="M222.3,282.3c-1.9,0-3.6-0.4-5-1.2c-1.5-0.8-2.6-1.9-3.5-3.3c-0.8-1.4-1.3-2.9-1.3-4.7c0-1.8,0.4-3.4,1.3-4.7
		c0.8-1.4,2-2.5,3.5-3.2c1.5-0.8,3.1-1.2,5-1.2c1.9,0,3.5,0.4,5,1.2c1.5,0.8,2.6,1.9,3.5,3.2c0.8,1.4,1.3,2.9,1.3,4.8
		c0,1.8-0.4,3.3-1.3,4.7c-0.8,1.4-2,2.5-3.5,3.3C225.8,281.9,224.2,282.3,222.3,282.3z M222.3,278.1c0.9,0,1.6-0.2,2.3-0.6
		c0.7-0.4,1.2-1,1.6-1.7c0.4-0.7,0.6-1.6,0.6-2.6c0-1-0.2-1.9-0.6-2.6c-0.4-0.7-0.9-1.3-1.6-1.7c-0.7-0.4-1.5-0.6-2.3-0.6
		c-0.9,0-1.6,0.2-2.3,0.6c-0.7,0.4-1.2,1-1.6,1.7c-0.4,0.7-0.6,1.6-0.6,2.6c0,1,0.2,1.9,0.6,2.6c0.4,0.7,1,1.3,1.6,1.7
		C220.7,277.9,221.4,278.1,222.3,278.1z"/>
	<path class="st4" d="M243,282.3c-1.5,0-2.8-0.3-3.9-0.9c-1.2-0.6-2.1-1.4-2.7-2.6c-0.6-1.2-1-2.7-1-4.5v-10h5.1v9.3
		c0,1.5,0.3,2.6,0.9,3.3c0.6,0.7,1.5,1,2.7,1c0.8,0,1.5-0.2,2.1-0.5s1.1-0.9,1.5-1.6c0.4-0.7,0.5-1.6,0.5-2.7v-8.8h5.1V282h-4.9
		v-4.9l0.9,1.4c-0.6,1.2-1.5,2.2-2.6,2.8S244.3,282.3,243,282.3z"/>
	<path class="st4" d="M268.9,264c1.4,0,2.7,0.3,3.8,0.8c1.1,0.6,2,1.4,2.6,2.6s1,2.6,1,4.4V282h-5.1v-9.4c0-1.4-0.3-2.5-0.9-3.2
		c-0.6-0.7-1.5-1-2.7-1c-0.8,0-1.5,0.2-2.2,0.5c-0.6,0.3-1.2,0.9-1.5,1.6c-0.4,0.7-0.5,1.6-0.5,2.7v8.8h-5.1v-17.8h4.9v4.9l-0.9-1.5
		c0.6-1.2,1.6-2.1,2.7-2.7C266.1,264.3,267.4,264,268.9,264z"/>
	<path class="st4" d="M278.8,268.6v-4h12.3v4H278.8z M288.2,282.3c-2.1,0-3.7-0.5-4.9-1.6c-1.2-1.1-1.7-2.7-1.7-4.8v-15.6h5.1v15.5
		c0,0.7,0.2,1.3,0.6,1.7s0.9,0.6,1.6,0.6c0.8,0,1.5-0.2,2.1-0.7l1.4,3.6c-0.5,0.4-1.2,0.7-1.9,0.8
		C289.8,282.2,289,282.3,288.2,282.3z"/>
</g>
<g class="st3">
	<path class="st4" d="M977.1,262v-23.1h1.4l10.7,18.5h-0.8l10.7-18.5h1.4l0,23.1H999l0-20.6h0.5L989.3,259h-0.8l-10.2-17.5h0.5V262
		H977.1z"/>
	<path class="st4" d="M1012.8,262.2c-1.3,0-2.4-0.2-3.3-0.6c-0.9-0.4-1.7-1-2.1-1.7s-0.7-1.6-0.7-2.6c0-0.9,0.2-1.7,0.6-2.4
		c0.4-0.7,1.1-1.3,2-1.7c0.9-0.5,2.2-0.7,3.8-0.7h6.3v1.3h-6.3c-1.8,0-3,0.3-3.7,1c-0.7,0.7-1.1,1.5-1.1,2.5c0,1.1,0.4,2,1.3,2.6
		c0.8,0.7,2,1,3.5,1c1.5,0,2.7-0.3,3.7-1s1.7-1.6,2.2-2.9l0.5,1.1c-0.5,1.3-1.2,2.2-2.4,3C1015.9,261.8,1014.5,262.2,1012.8,262.2z
		 M1019,262v-3.9l-0.1-0.6v-6.5c0-1.6-0.4-2.8-1.3-3.7c-0.9-0.8-2.1-1.3-3.8-1.3c-1.2,0-2.3,0.2-3.3,0.6c-1,0.4-1.9,0.9-2.6,1.6
		l-0.8-1.2c0.9-0.8,1.9-1.4,3.1-1.8c1.2-0.4,2.5-0.6,3.8-0.6c2.1,0,3.8,0.5,4.9,1.6c1.1,1.1,1.7,2.7,1.7,4.8V262H1019z"/>
</g>
<g class="st3">
	<path class="st4" d="M1027.4,262v-24.5h1.7V262H1027.4z M1028.6,257.3l0-2.1l11.4-10.4h2.1l-7.6,7.1l-1,0.8L1028.6,257.3z
		 M1040.9,262l-7.5-9.4l1.1-1.2l8.4,10.7H1040.9z"/>
</g>
<g class="st3">
	<path class="st4" d="M1053.1,262.2c-1.7,0-3.3-0.4-4.6-1.1c-1.3-0.7-2.4-1.8-3.1-3.1c-0.8-1.3-1.1-2.8-1.1-4.5
		c0-1.7,0.4-3.2,1.1-4.5s1.7-2.3,3-3.1c1.3-0.7,2.7-1.1,4.2-1.1c1.6,0,3,0.4,4.2,1.1c1.2,0.7,2.2,1.7,2.9,3.1
		c0.7,1.3,1.1,2.8,1.1,4.5c0,0.1,0,0.1,0,0.2c0,0.1,0,0.2,0,0.2h-15.2v-1.3h14.3l-0.7,0.6c0-1.3-0.3-2.5-0.8-3.6
		c-0.6-1.1-1.4-1.9-2.4-2.5c-1-0.6-2.1-0.9-3.4-0.9c-1.3,0-2.4,0.3-3.4,0.9c-1,0.6-1.8,1.4-2.4,2.5s-0.9,2.3-0.9,3.6v0.3
		c0,1.4,0.3,2.7,0.9,3.7s1.5,1.9,2.6,2.5c1.1,0.6,2.4,0.9,3.8,0.9c1.1,0,2.1-0.2,3.1-0.6c1-0.4,1.8-1,2.4-1.8l1,1.1
		c-0.7,0.9-1.7,1.6-2.8,2.1C1055.6,261.9,1054.4,262.2,1053.1,262.2z"/>
	<path class="st4" d="M1071.4,246.2v-1.4h10.3v1.4H1071.4z M1079.3,262.2c-1.5,0-2.7-0.4-3.5-1.3c-0.8-0.8-1.2-2-1.2-3.4v-16.4h1.6
		v16.3c0,1.1,0.3,1.9,0.8,2.5c0.5,0.6,1.3,0.9,2.4,0.9c1.1,0,2-0.3,2.7-1l0.7,1.2c-0.4,0.4-1,0.7-1.6,0.9S1080,262.2,1079.3,262.2z"
		/>
	<path class="st4" d="M1095.8,244.7c1.4,0,2.6,0.3,3.7,0.8c1,0.5,1.9,1.4,2.4,2.4s0.9,2.4,0.9,4V262h-1.7v-9.9
		c0-1.9-0.5-3.4-1.5-4.4c-1-1-2.3-1.5-4.1-1.5c-1.3,0-2.5,0.3-3.5,0.8s-1.7,1.3-2.3,2.3c-0.5,1-0.8,2.2-0.8,3.6v9.2h-1.6v-24.5h1.6
		v12l-0.3-0.5c0.5-1.4,1.4-2.4,2.6-3.2C1092.6,245.1,1094.1,244.7,1095.8,244.7z"/>
	<path class="st4" d="M1116.6,262.2c-1.7,0-3.3-0.4-4.6-1.1c-1.3-0.7-2.4-1.8-3.1-3.1c-0.8-1.3-1.1-2.8-1.1-4.5
		c0-1.7,0.4-3.2,1.1-4.5s1.7-2.3,3-3.1c1.3-0.7,2.7-1.1,4.2-1.1c1.6,0,3,0.4,4.2,1.1c1.2,0.7,2.2,1.7,2.9,3.1
		c0.7,1.3,1.1,2.8,1.1,4.5c0,0.1,0,0.1,0,0.2c0,0.1,0,0.2,0,0.2H1109v-1.3h14.3l-0.7,0.6c0-1.3-0.3-2.5-0.8-3.6
		c-0.6-1.1-1.4-1.9-2.4-2.5c-1-0.6-2.1-0.9-3.4-0.9c-1.3,0-2.4,0.3-3.4,0.9c-1,0.6-1.8,1.4-2.4,2.5s-0.9,2.3-0.9,3.6v0.3
		c0,1.4,0.3,2.7,0.9,3.7s1.5,1.9,2.6,2.5c1.1,0.6,2.4,0.9,3.8,0.9c1.1,0,2.1-0.2,3.1-0.6c1-0.4,1.8-1,2.4-1.8l1,1.1
		c-0.7,0.9-1.7,1.6-2.8,2.1C1119.2,261.9,1117.9,262.2,1116.6,262.2z"/>
</g>
<g class="st3">
	<path class="st4" d="M985.1,296v-23.1h10.5c2.5,0,4.7,0.5,6.6,1.4c1.9,1,3.4,2.3,4.5,4s1.6,3.8,1.6,6.1c0,2.3-0.5,4.4-1.6,6.1
		c-1.1,1.7-2.6,3.1-4.5,4c-1.9,1-4.1,1.4-6.6,1.4H985.1z M990.4,291.7h4.9c1.5,0,2.9-0.3,4-0.9c1.1-0.6,2-1.4,2.6-2.5
		s0.9-2.3,0.9-3.8c0-1.5-0.3-2.7-0.9-3.8s-1.5-1.9-2.6-2.5c-1.1-0.6-2.5-0.9-4-0.9h-4.9V291.7z"/>
	<path class="st4" d="M1020.8,296.3c-2,0-3.8-0.4-5.3-1.2c-1.5-0.8-2.7-1.9-3.5-3.3c-0.8-1.4-1.3-2.9-1.3-4.7c0-1.8,0.4-3.4,1.2-4.7
		s2-2.5,3.4-3.2c1.4-0.8,3-1.2,4.9-1.2c1.7,0,3.3,0.4,4.7,1.1c1.4,0.7,2.5,1.8,3.3,3.2c0.8,1.4,1.2,3,1.2,4.9c0,0.2,0,0.4,0,0.7
		c0,0.3,0,0.5-0.1,0.7h-14.4v-3h11.7l-2,0.9c0-0.9-0.2-1.7-0.6-2.4c-0.4-0.7-0.9-1.2-1.6-1.6c-0.7-0.4-1.4-0.6-2.3-0.6
		s-1.7,0.2-2.3,0.6c-0.7,0.4-1.2,0.9-1.6,1.6c-0.4,0.7-0.6,1.5-0.6,2.5v0.8c0,1,0.2,1.8,0.6,2.6c0.4,0.7,1,1.3,1.8,1.7
		c0.8,0.4,1.7,0.6,2.8,0.6c0.9,0,1.8-0.1,2.5-0.4c0.7-0.3,1.4-0.7,2-1.3l2.7,3c-0.8,0.9-1.8,1.6-3.1,2.1S1022.4,296.3,1020.8,296.3z
		"/>
	<path class="st4" d="M1032.8,302.4v-24.2h4.9v3.6l-0.1,5.3l0.3,5.2v10H1032.8z M1043.3,296.3c-1.5,0-2.8-0.3-3.9-1
		c-1.1-0.7-2-1.7-2.6-3c-0.6-1.4-0.9-3.1-0.9-5.1c0-2.1,0.3-3.8,0.9-5.1c0.6-1.3,1.5-2.3,2.6-3c1.1-0.7,2.5-1,4-1
		c1.7,0,3.2,0.4,4.5,1.1c1.3,0.8,2.4,1.8,3.2,3.2c0.8,1.4,1.2,3,1.2,4.8c0,1.9-0.4,3.5-1.2,4.9c-0.8,1.4-1.8,2.4-3.2,3.2
		C1046.4,295.9,1044.9,296.3,1043.3,296.3z M1042.4,292.1c0.9,0,1.6-0.2,2.3-0.6c0.7-0.4,1.2-1,1.6-1.7c0.4-0.7,0.6-1.6,0.6-2.6
		c0-1-0.2-1.9-0.6-2.6c-0.4-0.7-0.9-1.3-1.6-1.7c-0.7-0.4-1.4-0.6-2.3-0.6c-0.9,0-1.6,0.2-2.3,0.6c-0.7,0.4-1.2,1-1.6,1.7
		c-0.4,0.7-0.6,1.6-0.6,2.6c0,1,0.2,1.9,0.6,2.6c0.4,0.7,0.9,1.3,1.6,1.7C1040.8,291.9,1041.5,292.1,1042.4,292.1z"/>
	<path class="st4" d="M1064,296.3c-1.9,0-3.6-0.4-5-1.2c-1.5-0.8-2.6-1.9-3.5-3.3c-0.8-1.4-1.3-2.9-1.3-4.7c0-1.8,0.4-3.4,1.3-4.7
		c0.8-1.4,2-2.5,3.5-3.2c1.5-0.8,3.1-1.2,5-1.2c1.9,0,3.5,0.4,5,1.2c1.5,0.8,2.6,1.9,3.5,3.2c0.8,1.4,1.3,2.9,1.3,4.8
		c0,1.8-0.4,3.3-1.3,4.7c-0.8,1.4-2,2.5-3.5,3.3S1065.9,296.3,1064,296.3z M1064,292.1c0.9,0,1.6-0.2,2.3-0.6c0.7-0.4,1.2-1,1.6-1.7
		c0.4-0.7,0.6-1.6,0.6-2.6c0-1-0.2-1.9-0.6-2.6c-0.4-0.7-0.9-1.3-1.6-1.7c-0.7-0.4-1.5-0.6-2.3-0.6s-1.6,0.2-2.3,0.6
		c-0.7,0.4-1.2,1-1.6,1.7c-0.4,0.7-0.6,1.6-0.6,2.6c0,1,0.2,1.9,0.6,2.6c0.4,0.7,1,1.3,1.6,1.7
		C1062.4,291.9,1063.1,292.1,1064,292.1z"/>
	<path class="st4" d="M1083.1,296.3c-1.5,0-3-0.2-4.4-0.5c-1.4-0.4-2.5-0.8-3.3-1.4l1.7-3.7c0.8,0.5,1.8,0.9,2.9,1.2
		c1.1,0.3,2.2,0.5,3.3,0.5c1.2,0,2-0.1,2.5-0.4s0.7-0.7,0.7-1.2c0-0.4-0.2-0.7-0.6-0.9s-0.9-0.4-1.5-0.5c-0.6-0.1-1.3-0.2-2.1-0.3
		c-0.8-0.1-1.5-0.3-2.3-0.4c-0.8-0.2-1.5-0.5-2.1-0.8c-0.6-0.4-1.2-0.9-1.5-1.5s-0.6-1.5-0.6-2.5c0-1.1,0.3-2.1,1-3
		c0.6-0.9,1.6-1.5,2.8-2c1.2-0.5,2.7-0.7,4.4-0.7c1.2,0,2.4,0.1,3.7,0.4s2.3,0.6,3.1,1.2l-1.7,3.7c-0.9-0.5-1.7-0.9-2.6-1
		c-0.9-0.2-1.7-0.3-2.5-0.3c-1.1,0-2,0.2-2.5,0.5c-0.5,0.3-0.8,0.7-0.8,1.2c0,0.4,0.2,0.8,0.6,1c0.4,0.2,0.9,0.4,1.5,0.5
		c0.6,0.1,1.3,0.2,2.1,0.3c0.8,0.1,1.5,0.2,2.3,0.4c0.8,0.2,1.5,0.5,2.1,0.8c0.6,0.4,1.1,0.9,1.5,1.5c0.4,0.6,0.6,1.4,0.6,2.5
		c0,1.1-0.3,2.1-1,2.9c-0.7,0.8-1.6,1.5-2.9,2C1086.4,296.1,1084.9,296.3,1083.1,296.3z"/>
	<path class="st4" d="M1097.3,275.8c-0.9,0-1.7-0.3-2.3-0.8c-0.6-0.5-0.9-1.2-0.9-2c0-0.8,0.3-1.5,0.9-2c0.6-0.5,1.4-0.8,2.3-0.8
		c0.9,0,1.7,0.3,2.3,0.8c0.6,0.5,0.9,1.2,0.9,2c0,0.9-0.3,1.6-0.9,2.1C1099,275.5,1098.2,275.8,1097.3,275.8z M1094.7,296v-17.8h5.1
		V296H1094.7z"/>
	<path class="st4" d="M1102.5,282.6v-4h12.3v4H1102.5z M1111.9,296.3c-2.1,0-3.7-0.5-4.9-1.6c-1.2-1.1-1.7-2.7-1.7-4.8v-15.6h5.1
		v15.5c0,0.7,0.2,1.3,0.6,1.7c0.4,0.4,0.9,0.6,1.6,0.6c0.8,0,1.5-0.2,2.1-0.7l1.4,3.6c-0.5,0.4-1.2,0.7-1.9,0.8
		S1112.7,296.3,1111.9,296.3z"/>
</g>
<g class="st3">
	<path class="st4" d="M1385.6,260.5h14.3v1.5h-15.9v-23.1h15.4v1.5h-13.8V260.5z M1385.4,249.6h12.5v1.5h-12.5V249.6z"/>
</g>
<g class="st3">
	<path class="st4" d="M1409.8,262.2c-1.3,0-2.4-0.2-3.3-0.6s-1.6-1-2.1-1.7s-0.7-1.6-0.7-2.6c0-0.9,0.2-1.7,0.6-2.4
		c0.4-0.7,1.1-1.3,2-1.7c0.9-0.5,2.2-0.7,3.8-0.7h6.3v1.3h-6.3c-1.8,0-3,0.3-3.7,1s-1.1,1.5-1.1,2.5c0,1.1,0.4,2,1.3,2.6s2,1,3.5,1
		c1.5,0,2.7-0.3,3.7-1c1-0.7,1.7-1.6,2.2-2.9l0.5,1.1c-0.5,1.3-1.2,2.2-2.4,3C1412.9,261.8,1411.5,262.2,1409.8,262.2z M1416,262
		v-3.9l-0.1-0.6v-6.5c0-1.6-0.4-2.8-1.3-3.7c-0.9-0.8-2.1-1.3-3.8-1.3c-1.2,0-2.3,0.2-3.3,0.6c-1,0.4-1.9,0.9-2.6,1.6l-0.8-1.2
		c0.9-0.8,1.9-1.4,3.1-1.8c1.2-0.4,2.5-0.6,3.8-0.6c2.1,0,3.8,0.5,4.9,1.6c1.1,1.1,1.7,2.7,1.7,4.8V262H1416z"/>
</g>
<g class="st3">
	<path class="st4" d="M1424.4,262v-17.2h1.6v4.7l-0.2-0.5c0.5-1.4,1.3-2.5,2.4-3.2c1.1-0.7,2.6-1.1,4.3-1.1v1.6c-0.1,0-0.1,0-0.2,0
		c-0.1,0-0.1,0-0.2,0c-1.9,0-3.4,0.6-4.5,1.8c-1.1,1.2-1.6,2.9-1.6,5v9H1424.4z"/>
</g>
<g class="st3">
	<path class="st4" d="M1445.5,244.7c1.4,0,2.6,0.3,3.7,0.8c1,0.5,1.9,1.4,2.4,2.4c0.6,1.1,0.9,2.4,0.9,4V262h-1.7v-9.9
		c0-1.9-0.5-3.4-1.5-4.4c-1-1-2.3-1.5-4.1-1.5c-1.3,0-2.5,0.3-3.5,0.8c-1,0.5-1.7,1.3-2.3,2.3c-0.5,1-0.8,2.2-0.8,3.6v9.2h-1.7
		v-17.2h1.6v4.8l-0.2-0.5c0.5-1.4,1.4-2.4,2.6-3.2C1442.3,245.1,1443.7,244.7,1445.5,244.7z"/>
</g>
<g class="st3">
	<path class="st4" d="M1465.4,262v-3.5l8.9-8.4c0.7-0.6,1.2-1.2,1.6-1.7s0.6-1,0.7-1.4c0.1-0.4,0.2-0.8,0.2-1.2
		c0-0.9-0.3-1.6-0.9-2.1c-0.6-0.5-1.5-0.7-2.8-0.7c-1,0-1.9,0.2-2.7,0.6c-0.8,0.4-1.5,1-2.1,1.7l-3.9-2.5c0.9-1.3,2.1-2.4,3.7-3.1
		c1.6-0.8,3.4-1.2,5.5-1.2c1.7,0,3.2,0.3,4.5,0.8c1.3,0.6,2.3,1.3,3,2.4s1.1,2.2,1.1,3.6c0,0.7-0.1,1.5-0.3,2.2
		c-0.2,0.7-0.6,1.5-1.1,2.3c-0.6,0.8-1.4,1.7-2.5,2.7l-7.4,7l-1-1.9h13v4.4H1465.4z"/>
</g>
<g class="st3">
	<path class="st4" d="M1488.4,262.3c-0.9,0-1.6-0.3-2.3-0.9c-0.6-0.6-0.9-1.4-0.9-2.3s0.3-1.7,0.9-2.3c0.6-0.6,1.4-0.9,2.3-0.9
		c0.9,0,1.7,0.3,2.3,0.9c0.6,0.6,0.9,1.3,0.9,2.3s-0.3,1.7-0.9,2.3C1490.1,262,1489.3,262.3,1488.4,262.3z"/>
</g>
<g class="st3">
	<path class="st4" d="M1501.9,262.4c-1.6,0-3.2-0.2-4.8-0.6c-1.6-0.4-2.9-1-4-1.8l2.1-4.1c0.9,0.6,1.9,1.1,3.1,1.5
		c1.2,0.4,2.3,0.6,3.5,0.6c1.3,0,2.4-0.3,3.2-0.8c0.8-0.5,1.2-1.3,1.2-2.2c0-0.6-0.2-1.1-0.5-1.6s-0.9-0.8-1.6-1.1
		c-0.8-0.2-1.9-0.4-3.3-0.4h-5.9l1.2-13h14.1v4.3h-12.2l2.8-2.4l-0.8,9.3l-2.8-2.4h4.9c2.3,0,4.1,0.3,5.5,0.9
		c1.4,0.6,2.4,1.5,3.1,2.6c0.6,1.1,1,2.3,1,3.7s-0.3,2.6-1,3.8s-1.7,2.1-3.2,2.8C1505.9,262.1,1504.1,262.4,1501.9,262.4z"/>
</g>
<g class="st3">
	<path class="st4" d="M1518.7,251.4c-1.1,0-2.1-0.3-3-0.8c-0.9-0.5-1.5-1.3-2-2.2c-0.5-1-0.7-2.1-0.7-3.4c0-1.3,0.2-2.4,0.7-3.4
		c0.5-0.9,1.2-1.7,2-2.2c0.9-0.5,1.8-0.8,3-0.8s2.1,0.3,3,0.8c0.9,0.5,1.5,1.3,2,2.2c0.5,0.9,0.7,2.1,0.7,3.4c0,1.3-0.2,2.4-0.7,3.4
		c-0.5,1-1.2,1.7-2,2.2C1520.8,251.2,1519.8,251.4,1518.7,251.4z M1518.7,248.7c0.7,0,1.3-0.3,1.7-0.9c0.4-0.6,0.7-1.5,0.7-2.8
		c0-1.2-0.2-2.2-0.7-2.8c-0.4-0.6-1-0.9-1.7-0.9c-0.7,0-1.3,0.3-1.7,0.9c-0.5,0.6-0.7,1.5-0.7,2.8c0,1.2,0.2,2.1,0.7,2.7
		C1517.4,248.4,1518,248.7,1518.7,248.7z M1516.7,262l15.8-23.1h3.9l-15.8,23.1H1516.7z M1534.3,262.3c-1.1,0-2.1-0.3-3-0.8
		c-0.9-0.5-1.5-1.3-2-2.2c-0.5-1-0.7-2.1-0.7-3.4c0-1.3,0.2-2.4,0.7-3.4c0.5-0.9,1.2-1.7,2-2.2c0.9-0.5,1.9-0.8,3-0.8
		c1.1,0,2.1,0.3,3,0.8c0.9,0.5,1.5,1.3,2,2.2c0.5,0.9,0.7,2.1,0.7,3.4c0,1.3-0.2,2.4-0.7,3.4c-0.5,1-1.2,1.7-2,2.2
		C1536.5,262,1535.5,262.3,1534.3,262.3z M1534.3,259.6c0.7,0,1.3-0.3,1.7-0.9c0.4-0.6,0.7-1.5,0.7-2.8c0-1.2-0.2-2.1-0.7-2.7
		s-1-0.9-1.7-0.9c-0.7,0-1.3,0.3-1.7,0.9c-0.5,0.6-0.7,1.5-0.7,2.8c0,1.2,0.2,2.2,0.7,2.8C1533.1,259.3,1533.6,259.6,1534.3,259.6z"
		/>
</g>
<g class="st3">
	<path class="st4" d="M1389.8,296.4c-1.8,0-3.4-0.3-5-0.9s-2.9-1.4-4-2.5s-2-2.3-2.6-3.8c-0.6-1.5-0.9-3-0.9-4.8s0.3-3.3,0.9-4.8
		s1.5-2.7,2.6-3.8s2.5-1.9,4-2.5s3.2-0.9,5-0.9c2,0,3.8,0.3,5.4,1c1.6,0.7,3,1.7,4.1,3.1l-3.4,3.2c-0.8-0.9-1.7-1.6-2.6-2
		c-1-0.5-2-0.7-3.2-0.7c-1.1,0-2.1,0.2-3,0.5c-0.9,0.4-1.7,0.9-2.3,1.5c-0.7,0.7-1.2,1.4-1.5,2.3s-0.5,1.9-0.5,3
		c0,1.1,0.2,2.1,0.5,3s0.9,1.7,1.5,2.3c0.7,0.7,1.4,1.2,2.3,1.5c0.9,0.4,1.9,0.5,3,0.5c1.1,0,2.2-0.2,3.2-0.7c1-0.5,1.8-1.1,2.6-2.1
		l3.4,3.2c-1.1,1.3-2.5,2.4-4.1,3.1C1393.6,296.1,1391.8,296.4,1389.8,296.4z"/>
</g>
<g class="st3">
	<path class="st4" d="M1407.9,296.3c-1.4,0-2.6-0.2-3.6-0.7s-1.7-1.1-2.3-1.9c-0.5-0.8-0.8-1.7-0.8-2.7c0-1.1,0.3-2,0.8-2.8
		c0.5-0.8,1.3-1.4,2.5-1.9c1.1-0.5,2.6-0.7,4.4-0.7h4.7v3h-4.2c-1.2,0-2,0.2-2.5,0.6c-0.5,0.4-0.7,0.9-0.7,1.5
		c0,0.7,0.3,1.2,0.8,1.6c0.5,0.4,1.2,0.6,2.1,0.6c0.9,0,1.6-0.2,2.3-0.6s1.2-1,1.5-1.8l0.8,2.4c-0.4,1.1-1.1,2-2,2.6
		C1410.7,296,1409.5,296.3,1407.9,296.3z M1413.3,296v-3.5l-0.3-0.8v-6.2c0-1.1-0.3-2-1-2.6c-0.7-0.6-1.7-0.9-3.1-0.9
		c-0.9,0-1.9,0.1-2.8,0.4s-1.7,0.7-2.3,1.2l-1.8-3.6c1-0.7,2.1-1.2,3.5-1.6s2.8-0.6,4.2-0.6c2.7,0,4.8,0.6,6.3,1.9
		c1.5,1.3,2.2,3.3,2.2,6V296H1413.3z"/>
	<path class="st4" d="M1428.8,296.3c-1.5,0-3-0.2-4.4-0.5c-1.4-0.4-2.5-0.8-3.3-1.4l1.7-3.7c0.8,0.5,1.8,0.9,2.9,1.2
		c1.1,0.3,2.2,0.5,3.3,0.5c1.2,0,2-0.1,2.5-0.4s0.7-0.7,0.7-1.2c0-0.4-0.2-0.7-0.6-0.9s-0.9-0.4-1.5-0.5c-0.6-0.1-1.3-0.2-2.1-0.3
		c-0.8-0.1-1.5-0.3-2.3-0.4c-0.8-0.2-1.5-0.5-2.1-0.8c-0.6-0.4-1.2-0.9-1.5-1.5s-0.6-1.5-0.6-2.5c0-1.1,0.3-2.1,1-3
		c0.6-0.9,1.6-1.5,2.8-2c1.2-0.5,2.7-0.7,4.4-0.7c1.2,0,2.4,0.1,3.7,0.4s2.3,0.6,3.1,1.2l-1.7,3.7c-0.9-0.5-1.7-0.9-2.6-1
		c-0.9-0.2-1.7-0.3-2.5-0.3c-1.1,0-2,0.2-2.5,0.5c-0.5,0.3-0.8,0.7-0.8,1.2c0,0.4,0.2,0.8,0.6,1c0.4,0.2,0.9,0.4,1.5,0.5
		c0.6,0.1,1.3,0.2,2.1,0.3c0.8,0.1,1.5,0.2,2.3,0.4c0.8,0.2,1.5,0.5,2.1,0.8c0.6,0.4,1.1,0.9,1.5,1.5c0.4,0.6,0.6,1.4,0.6,2.5
		c0,1.1-0.3,2.1-1,2.9c-0.7,0.8-1.6,1.5-2.9,2C1432.1,296.1,1430.5,296.3,1428.8,296.3z"/>
	<path class="st4" d="M1451.1,278c1.4,0,2.7,0.3,3.8,0.8c1.1,0.6,2,1.4,2.6,2.6c0.6,1.2,1,2.6,1,4.4V296h-5.1v-9.4
		c0-1.4-0.3-2.5-0.9-3.2c-0.6-0.7-1.5-1-2.7-1c-0.8,0-1.5,0.2-2.2,0.5c-0.6,0.3-1.2,0.9-1.5,1.6c-0.4,0.7-0.5,1.6-0.5,2.7v8.8h-5.1
		v-24.5h5.1v11.6l-1.2-1.5c0.6-1.2,1.6-2.1,2.7-2.7C1448.2,278.3,1449.6,278,1451.1,278z"/>
</g>
<g class="st3">
	<path class="st4" d="M1463.1,296v-24.5h5.1v10.3l-0.3,5.2l0.1,5.3v3.6H1463.1z M1473.6,296.3c-1.6,0-2.9-0.3-4-1
		c-1.1-0.7-2-1.7-2.6-3c-0.6-1.4-0.9-3.1-0.9-5.1c0-2.1,0.3-3.8,0.9-5.1c0.6-1.3,1.5-2.3,2.6-3s2.4-1,3.9-1c1.7,0,3.2,0.4,4.5,1.1
		c1.3,0.7,2.4,1.8,3.2,3.2s1.2,3,1.2,4.9c0,1.8-0.4,3.5-1.2,4.8s-1.8,2.4-3.2,3.2C1476.8,295.9,1475.3,296.3,1473.6,296.3z
		 M1472.7,292.1c0.9,0,1.6-0.2,2.3-0.6c0.7-0.4,1.2-1,1.6-1.7c0.4-0.7,0.6-1.6,0.6-2.6c0-1-0.2-1.9-0.6-2.6
		c-0.4-0.7-0.9-1.3-1.6-1.7c-0.7-0.4-1.4-0.6-2.3-0.6c-0.9,0-1.6,0.2-2.3,0.6c-0.7,0.4-1.2,1-1.6,1.7c-0.4,0.7-0.6,1.6-0.6,2.6
		c0,1,0.2,1.9,0.6,2.6c0.4,0.7,0.9,1.3,1.6,1.7C1471.1,291.9,1471.9,292.1,1472.7,292.1z"/>
</g>
<g class="st3">
	<path class="st4" d="M1491.1,296.3c-1.4,0-2.6-0.2-3.6-0.7s-1.7-1.1-2.3-1.9c-0.5-0.8-0.8-1.7-0.8-2.7c0-1.1,0.3-2,0.8-2.8
		c0.5-0.8,1.3-1.4,2.5-1.9c1.1-0.5,2.6-0.7,4.4-0.7h4.7v3h-4.2c-1.2,0-2,0.2-2.5,0.6c-0.5,0.4-0.7,0.9-0.7,1.5
		c0,0.7,0.3,1.2,0.8,1.6c0.5,0.4,1.2,0.6,2.1,0.6c0.9,0,1.6-0.2,2.3-0.6c0.7-0.4,1.2-1,1.5-1.8l0.8,2.4c-0.4,1.1-1.1,2-2,2.6
		C1493.9,296,1492.6,296.3,1491.1,296.3z M1496.5,296v-3.5l-0.3-0.8v-6.2c0-1.1-0.3-2-1-2.6c-0.7-0.6-1.7-0.9-3.1-0.9
		c-0.9,0-1.9,0.1-2.8,0.4c-0.9,0.3-1.7,0.7-2.3,1.2l-1.8-3.6c1-0.7,2.1-1.2,3.5-1.6s2.8-0.6,4.2-0.6c2.7,0,4.8,0.6,6.3,1.9
		c1.5,1.3,2.2,3.3,2.2,6V296H1496.5z"/>
</g>
<g class="st3">
	<path class="st4" d="M1514.7,296.3c-1.9,0-3.6-0.4-5.1-1.2s-2.7-1.9-3.5-3.3s-1.3-3-1.3-4.7c0-1.8,0.4-3.4,1.3-4.7s2-2.5,3.5-3.2
		c1.5-0.8,3.2-1.2,5.1-1.2c1.9,0,3.5,0.4,4.9,1.2c1.4,0.8,2.4,1.9,3.1,3.3l-4,2.1c-0.5-0.8-1-1.5-1.7-1.8c-0.7-0.4-1.4-0.6-2.3-0.6
		c-0.9,0-1.7,0.2-2.4,0.6c-0.7,0.4-1.3,1-1.7,1.7c-0.4,0.7-0.6,1.6-0.6,2.6s0.2,1.9,0.6,2.6c0.4,0.7,1,1.3,1.7,1.7
		c0.7,0.4,1.5,0.6,2.4,0.6c0.8,0,1.6-0.2,2.3-0.6c0.7-0.4,1.3-1,1.7-1.9l4,2.2c-0.7,1.4-1.7,2.5-3.1,3.3S1516.5,296.3,1514.7,296.3z
		"/>
</g>
<g class="st3">
	<path class="st4" d="M1525.4,296v-24.5h5.1V296H1525.4z M1529.7,292.4l0.1-6.3l8.3-7.9h6.1l-8,8.1l-2.7,2.2L1529.7,292.4z
		 M1538.7,296l-6-7.5l3.2-4l9,11.5H1538.7z"/>
</g>
<g class="st3">
	<path class="st4" d="M506.2,262.2c-1.7,0-3.3-0.3-4.9-0.9c-1.5-0.6-2.7-1.3-3.5-2.3l0.8-1.3c0.8,0.8,1.9,1.5,3.3,2.1
		c1.4,0.6,2.8,0.8,4.4,0.8c1.5,0,2.8-0.2,3.8-0.6c1-0.4,1.7-1,2.2-1.6c0.5-0.7,0.7-1.4,0.7-2.3c0-1-0.3-1.8-0.8-2.4
		s-1.2-1.1-2.1-1.4s-1.8-0.6-2.8-0.9c-1-0.2-2-0.5-3.1-0.8c-1-0.3-2-0.6-2.8-1.1c-0.9-0.4-1.5-1-2.1-1.8c-0.5-0.8-0.8-1.7-0.8-3
		c0-1.1,0.3-2.1,0.9-3c0.6-0.9,1.5-1.7,2.7-2.2c1.2-0.6,2.8-0.9,4.7-0.9c1.3,0,2.5,0.2,3.8,0.6c1.2,0.4,2.3,0.9,3.2,1.5l-0.6,1.4
		c-1-0.7-2-1.1-3.1-1.5c-1.1-0.3-2.2-0.5-3.2-0.5c-1.5,0-2.7,0.2-3.7,0.6c-1,0.4-1.7,1-2.1,1.7c-0.5,0.7-0.7,1.5-0.7,2.3
		c0,1,0.3,1.8,0.8,2.4c0.5,0.6,1.2,1.1,2.1,1.4c0.9,0.4,1.8,0.6,2.8,0.9c1,0.2,2.1,0.5,3.1,0.8c1,0.3,1.9,0.6,2.8,1.1
		c0.9,0.4,1.6,1,2.1,1.8s0.8,1.7,0.8,2.9c0,1.1-0.3,2.1-0.9,3c-0.6,0.9-1.5,1.7-2.7,2.2C509.7,261.9,508.1,262.2,506.2,262.2z"/>
	<path class="st4" d="M526.7,262.2c-1.5,0-2.8-0.3-3.8-0.8c-1.1-0.5-1.9-1.4-2.5-2.4s-0.9-2.4-0.9-4v-10.1h1.7v9.9
		c0,1.9,0.5,3.4,1.5,4.4c1,1,2.4,1.5,4.2,1.5c1.3,0,2.4-0.3,3.4-0.8c0.9-0.5,1.7-1.3,2.2-2.3c0.5-1,0.8-2.2,0.8-3.5v-9.2h1.6V262
		h-1.6v-4.8l0.2,0.6c-0.5,1.3-1.3,2.4-2.5,3.2C529.7,261.8,528.3,262.2,526.7,262.2z"/>
	<path class="st4" d="M541.8,262v-24.5h1.6v12.8l-0.3,3l0.3,3v5.6H541.8z M550.4,262.2c-1.5,0-2.9-0.4-4.1-1.1
		c-1.2-0.7-2.2-1.7-2.9-3s-1.1-2.9-1.1-4.7c0-1.8,0.4-3.4,1.1-4.7s1.7-2.3,2.9-3c1.2-0.7,2.6-1.1,4.1-1.1c1.6,0,3.1,0.4,4.4,1.1
		c1.3,0.7,2.3,1.8,3,3.1c0.7,1.3,1.1,2.8,1.1,4.6c0,1.7-0.4,3.2-1.1,4.6c-0.7,1.3-1.7,2.3-3,3.1
		C553.5,261.8,552.1,262.2,550.4,262.2z M550.3,260.7c1.3,0,2.5-0.3,3.6-0.9c1.1-0.6,1.9-1.5,2.5-2.6c0.6-1.1,0.9-2.4,0.9-3.8
		c0-1.5-0.3-2.7-0.9-3.8c-0.6-1.1-1.4-1.9-2.5-2.5c-1.1-0.6-2.2-0.9-3.6-0.9c-1.3,0-2.5,0.3-3.5,0.9c-1,0.6-1.9,1.5-2.5,2.5
		c-0.6,1.1-0.9,2.4-0.9,3.8c0,1.4,0.3,2.7,0.9,3.8c0.6,1.1,1.4,2,2.5,2.6C547.8,260.4,549,260.7,550.3,260.7z"/>
	<path class="st4" d="M585.5,244.7c1.4,0,2.6,0.3,3.6,0.8c1,0.5,1.8,1.4,2.4,2.4c0.6,1.1,0.9,2.4,0.9,4V262h-1.6v-9.9
		c0-1.9-0.5-3.4-1.4-4.4c-0.9-1-2.3-1.5-4-1.5c-1.3,0-2.4,0.3-3.4,0.8c-0.9,0.5-1.7,1.3-2.2,2.3c-0.5,1-0.8,2.2-0.8,3.6v9.2h-1.6
		v-9.9c0-1.9-0.5-3.4-1.4-4.4c-0.9-1-2.3-1.5-4-1.5c-1.3,0-2.4,0.3-3.4,0.8c-0.9,0.5-1.7,1.3-2.2,2.3c-0.5,1-0.8,2.2-0.8,3.6v9.2
		h-1.6v-17.2h1.6v4.8l-0.2-0.5c0.5-1.3,1.4-2.4,2.5-3.2c1.2-0.8,2.6-1.2,4.3-1.2c1.7,0,3.2,0.4,4.3,1.3c1.2,0.9,1.9,2.2,2.2,3.9
		l-0.6-0.2c0.5-1.5,1.3-2.7,2.6-3.6S583.7,244.7,585.5,244.7z"/>
	<path class="st4" d="M600,240.6c-0.4,0-0.7-0.1-1-0.4c-0.3-0.3-0.4-0.6-0.4-0.9c0-0.4,0.1-0.7,0.4-1c0.3-0.3,0.6-0.4,1-0.4
		c0.4,0,0.7,0.1,1,0.4c0.3,0.3,0.4,0.6,0.4,0.9s-0.1,0.7-0.4,1C600.7,240.5,600.4,240.6,600,240.6z M599.2,262v-17.2h1.6V262H599.2z
		"/>
	<path class="st4" d="M604.9,246.2v-1.4h10.3v1.4H604.9z M612.8,262.2c-1.5,0-2.7-0.4-3.5-1.3c-0.8-0.8-1.2-2-1.2-3.4v-16.4h1.6
		v16.3c0,1.1,0.3,1.9,0.8,2.5c0.5,0.6,1.3,0.9,2.4,0.9c1.1,0,2-0.3,2.7-1l0.7,1.2c-0.4,0.4-1,0.7-1.6,0.9S613.5,262.2,612.8,262.2z"
		/>
</g>
<g class="st3">
	<path class="st4" d="M625.6,262l10.3-23.1h5.3l10.3,23.1h-5.6l-8.4-20.4h2.1l-8.5,20.4H625.6z M630.8,257.1l1.4-4.1H644l1.5,4.1
		H630.8z"/>
</g>
<g class="st3">
	<path class="st4" d="M662,262.3c-1.9,0-3.6-0.4-5.1-1.2s-2.7-1.9-3.5-3.3c-0.8-1.4-1.3-3-1.3-4.7c0-1.8,0.4-3.4,1.3-4.7
		c0.8-1.4,2-2.5,3.5-3.2c1.5-0.8,3.2-1.2,5.1-1.2c1.9,0,3.5,0.4,4.9,1.2c1.4,0.8,2.4,1.9,3.1,3.3l-4,2.1c-0.5-0.8-1-1.5-1.7-1.8
		c-0.7-0.4-1.4-0.6-2.3-0.6c-0.9,0-1.7,0.2-2.4,0.6c-0.7,0.4-1.3,1-1.7,1.7c-0.4,0.7-0.6,1.6-0.6,2.6s0.2,1.9,0.6,2.6
		c0.4,0.7,1,1.3,1.7,1.7c0.7,0.4,1.5,0.6,2.4,0.6c0.8,0,1.6-0.2,2.3-0.6c0.7-0.4,1.3-1,1.7-1.9l4,2.2c-0.7,1.4-1.7,2.5-3.1,3.3
		C665.5,261.9,663.8,262.3,662,262.3z"/>
	<path class="st4" d="M681.2,262.3c-1.9,0-3.6-0.4-5.1-1.2s-2.7-1.9-3.5-3.3s-1.3-3-1.3-4.7c0-1.8,0.4-3.4,1.3-4.7s2-2.5,3.5-3.2
		c1.5-0.8,3.2-1.2,5.1-1.2c1.9,0,3.5,0.4,4.9,1.2c1.4,0.8,2.4,1.9,3.1,3.3l-4,2.1c-0.5-0.8-1-1.5-1.7-1.8c-0.7-0.4-1.4-0.6-2.3-0.6
		c-0.9,0-1.7,0.2-2.4,0.6c-0.7,0.4-1.3,1-1.7,1.7c-0.4,0.7-0.6,1.6-0.6,2.6s0.2,1.9,0.6,2.6c0.4,0.7,1,1.3,1.7,1.7
		c0.7,0.4,1.5,0.6,2.4,0.6c0.8,0,1.6-0.2,2.3-0.6c0.7-0.4,1.3-1,1.7-1.9l4,2.2c-0.7,1.4-1.7,2.5-3.1,3.3S683.1,262.3,681.2,262.3z"
		/>
</g>
<g class="st3">
	<path class="st4" d="M700.4,262.3c-1.9,0-3.6-0.4-5-1.2c-1.5-0.8-2.6-1.9-3.5-3.3c-0.8-1.4-1.3-2.9-1.3-4.7c0-1.8,0.4-3.4,1.3-4.7
		c0.8-1.4,2-2.5,3.5-3.2c1.5-0.8,3.1-1.2,5-1.2c1.9,0,3.5,0.4,5,1.2c1.5,0.8,2.6,1.9,3.5,3.2c0.8,1.4,1.3,2.9,1.3,4.8
		c0,1.8-0.4,3.3-1.3,4.7c-0.8,1.4-2,2.5-3.5,3.3C703.9,261.9,702.2,262.3,700.4,262.3z M700.4,258.1c0.9,0,1.6-0.2,2.3-0.6
		c0.7-0.4,1.2-1,1.6-1.7c0.4-0.7,0.6-1.6,0.6-2.6c0-1-0.2-1.9-0.6-2.6c-0.4-0.7-0.9-1.3-1.6-1.7c-0.7-0.4-1.5-0.6-2.3-0.6
		c-0.9,0-1.6,0.2-2.3,0.6c-0.7,0.4-1.2,1-1.6,1.7c-0.4,0.7-0.6,1.6-0.6,2.6c0,1,0.2,1.9,0.6,2.6c0.4,0.7,1,1.3,1.6,1.7
		C698.7,257.9,699.5,258.1,700.4,258.1z"/>
	<path class="st4" d="M721,262.3c-1.5,0-2.8-0.3-3.9-0.9c-1.2-0.6-2.1-1.4-2.7-2.6c-0.6-1.2-1-2.7-1-4.5v-10h5.1v9.3
		c0,1.5,0.3,2.6,0.9,3.3c0.6,0.7,1.5,1,2.7,1c0.8,0,1.5-0.2,2.1-0.5s1.1-0.9,1.5-1.6c0.4-0.7,0.5-1.6,0.5-2.7v-8.8h5.1V262h-4.9
		v-4.9l0.9,1.4c-0.6,1.2-1.5,2.2-2.6,2.8S722.4,262.3,721,262.3z"/>
	<path class="st4" d="M747,244c1.4,0,2.7,0.3,3.8,0.8c1.1,0.6,2,1.4,2.6,2.6s1,2.6,1,4.4V262h-5.1v-9.4c0-1.4-0.3-2.5-0.9-3.2
		c-0.6-0.7-1.5-1-2.7-1c-0.8,0-1.5,0.2-2.2,0.5c-0.6,0.3-1.2,0.9-1.5,1.6c-0.4,0.7-0.5,1.6-0.5,2.7v8.8h-5.1v-17.8h4.9v4.9l-0.9-1.5
		c0.6-1.2,1.6-2.1,2.7-2.7C744.1,244.3,745.5,244,747,244z"/>
	<path class="st4" d="M756.9,248.6v-4h12.3v4H756.9z M766.3,262.3c-2.1,0-3.7-0.5-4.9-1.6c-1.2-1.1-1.7-2.7-1.7-4.8v-15.6h5.1v15.5
		c0,0.7,0.2,1.3,0.6,1.7s0.9,0.6,1.6,0.6c0.8,0,1.5-0.2,2.1-0.7l1.4,3.6c-0.5,0.4-1.2,0.7-1.9,0.8
		C767.8,262.2,767.1,262.3,766.3,262.3z"/>
</g>
<g class="st3">
	<path class="st4" d="M478.8,296v-23.1h10c2.1,0,3.9,0.3,5.3,1c1.5,0.7,2.7,1.6,3.5,2.9s1.2,2.8,1.2,4.5c0,1.7-0.4,3.2-1.2,4.5
		s-2,2.2-3.5,2.9c-1.5,0.7-3.3,1-5.3,1h-7l2.4-2.4v8.8H478.8z M484.1,287.9l-2.4-2.5h6.7c1.6,0,2.9-0.4,3.7-1.1
		c0.8-0.7,1.2-1.7,1.2-2.9c0-1.3-0.4-2.3-1.2-3c-0.8-0.7-2-1.1-3.7-1.1h-6.7l2.4-2.5V287.9z"/>
</g>
<g class="st3">
	<path class="st4" d="M502.2,296v-17.8h4.9v5l-0.7-1.5c0.5-1.3,1.4-2.2,2.5-2.9c1.2-0.6,2.6-1,4.3-1v4.8c-0.2,0-0.4,0-0.6,0
		c-0.2,0-0.4,0-0.6,0c-1.4,0-2.5,0.4-3.4,1.2c-0.9,0.8-1.3,2.1-1.3,3.7v8.4H502.2z"/>
</g>
<g class="st3">
	<path class="st4" d="M524.6,296.3c-1.9,0-3.6-0.4-5-1.2c-1.5-0.8-2.6-1.9-3.5-3.3c-0.8-1.4-1.3-2.9-1.3-4.7c0-1.8,0.4-3.4,1.3-4.7
		c0.8-1.4,2-2.5,3.5-3.2c1.5-0.8,3.1-1.2,5-1.2c1.9,0,3.5,0.4,5,1.2c1.5,0.8,2.6,1.9,3.5,3.2c0.8,1.4,1.3,2.9,1.3,4.8
		c0,1.8-0.4,3.3-1.3,4.7c-0.8,1.4-2,2.5-3.5,3.3C528.2,295.9,526.5,296.3,524.6,296.3z M524.6,292.1c0.9,0,1.6-0.2,2.3-0.6
		c0.7-0.4,1.2-1,1.6-1.7c0.4-0.7,0.6-1.6,0.6-2.6c0-1-0.2-1.9-0.6-2.6c-0.4-0.7-0.9-1.3-1.6-1.7c-0.7-0.4-1.5-0.6-2.3-0.6
		c-0.9,0-1.6,0.2-2.3,0.6c-0.7,0.4-1.2,1-1.6,1.7c-0.4,0.7-0.6,1.6-0.6,2.6c0,1,0.2,1.9,0.6,2.6c0.4,0.7,1,1.3,1.6,1.7
		C523,291.9,523.8,292.1,524.6,292.1z"/>
	<path class="st4" d="M546.2,296.3c-1.9,0-3.6-0.4-5-1.2c-1.5-0.8-2.6-1.9-3.5-3.3c-0.8-1.4-1.3-2.9-1.3-4.7c0-1.8,0.4-3.4,1.3-4.7
		c0.8-1.4,2-2.5,3.5-3.2c1.5-0.8,3.1-1.2,5-1.2c1.9,0,3.5,0.4,5,1.2c1.5,0.8,2.6,1.9,3.5,3.2c0.8,1.4,1.3,2.9,1.3,4.8
		c0,1.8-0.4,3.3-1.3,4.7c-0.8,1.4-2,2.5-3.5,3.3C549.8,295.9,548.1,296.3,546.2,296.3z M546.2,292.1c0.9,0,1.6-0.2,2.3-0.6
		c0.7-0.4,1.2-1,1.6-1.7c0.4-0.7,0.6-1.6,0.6-2.6c0-1-0.2-1.9-0.6-2.6c-0.4-0.7-0.9-1.3-1.6-1.7c-0.7-0.4-1.5-0.6-2.3-0.6
		c-0.9,0-1.6,0.2-2.3,0.6c-0.7,0.4-1.2,1-1.6,1.7c-0.4,0.7-0.6,1.6-0.6,2.6c0,1,0.2,1.9,0.6,2.6c0.4,0.7,1,1.3,1.6,1.7
		C544.6,291.9,545.4,292.1,546.2,292.1z"/>
	<path class="st4" d="M557.3,282.6v-4h12.3v4H557.3z M560,296v-18.2c0-2,0.6-3.6,1.8-4.8s2.9-1.8,5.1-1.8c0.7,0,1.5,0.1,2.2,0.2
		c0.7,0.2,1.3,0.4,1.8,0.7l-1.4,3.7c-0.3-0.2-0.6-0.4-1-0.5c-0.4-0.1-0.7-0.2-1.1-0.2c-0.7,0-1.3,0.2-1.7,0.6
		c-0.4,0.4-0.6,1.1-0.6,1.9v1.7l0.1,2.2V296H560z"/>
</g>
<g class="st3">
	<path class="st4" d="M578.9,280.2v-1.4h10.3v1.4H578.9z M582.1,296v-19.9c0-1.4,0.4-2.6,1.2-3.4c0.8-0.9,2-1.3,3.5-1.3
		c0.6,0,1.3,0.1,1.9,0.3c0.6,0.2,1.1,0.5,1.5,0.8l-0.7,1.3c-0.3-0.3-0.7-0.6-1.2-0.7s-1-0.2-1.5-0.2c-1.1,0-1.9,0.3-2.4,0.9
		c-0.6,0.6-0.8,1.4-0.8,2.6v2.9l0,0.8v16H582.1z"/>
</g>
<g class="st3">
	<path class="st4" d="M592.6,296v-17.2h1.6v4.7L594,283c0.5-1.4,1.3-2.5,2.4-3.2c1.1-0.7,2.6-1.1,4.3-1.1v1.6c-0.1,0-0.1,0-0.2,0
		c-0.1,0-0.1,0-0.2,0c-1.9,0-3.4,0.6-4.5,1.8c-1.1,1.2-1.6,2.9-1.6,5v9H592.6z"/>
</g>
<g class="st3">
	<path class="st4" d="M611.9,296.2c-1.6,0-3.1-0.4-4.4-1.1c-1.3-0.7-2.3-1.8-3.1-3.1c-0.8-1.3-1.1-2.8-1.1-4.5
		c0-1.7,0.4-3.2,1.1-4.5c0.8-1.3,1.8-2.3,3.1-3.1c1.3-0.7,2.8-1.1,4.4-1.1s3.1,0.4,4.4,1.1c1.3,0.7,2.3,1.8,3.1,3.1
		c0.7,1.3,1.1,2.8,1.1,4.5c0,1.7-0.4,3.2-1.1,4.5c-0.7,1.3-1.8,2.4-3.1,3.1C615,295.8,613.5,296.2,611.9,296.2z M611.9,294.7
		c1.3,0,2.5-0.3,3.6-0.9c1.1-0.6,1.9-1.5,2.5-2.6c0.6-1.1,0.9-2.4,0.9-3.8c0-1.5-0.3-2.7-0.9-3.8c-0.6-1.1-1.4-1.9-2.5-2.5
		c-1.1-0.6-2.2-0.9-3.6-0.9s-2.5,0.3-3.5,0.9c-1,0.6-1.9,1.5-2.5,2.5c-0.6,1.1-0.9,2.4-0.9,3.8c0,1.4,0.3,2.7,0.9,3.8
		c0.6,1.1,1.4,2,2.5,2.6C609.4,294.4,610.6,294.7,611.9,294.7z"/>
	<path class="st4" d="M647,278.7c1.4,0,2.6,0.3,3.6,0.8c1,0.5,1.8,1.4,2.4,2.4c0.6,1.1,0.9,2.4,0.9,4V296h-1.6v-9.9
		c0-1.9-0.5-3.4-1.4-4.4c-0.9-1-2.3-1.5-4-1.5c-1.3,0-2.4,0.3-3.4,0.8c-0.9,0.5-1.7,1.3-2.2,2.3c-0.5,1-0.8,2.2-0.8,3.6v9.2h-1.6
		v-9.9c0-1.9-0.5-3.4-1.4-4.4c-0.9-1-2.3-1.5-4-1.5c-1.3,0-2.4,0.3-3.4,0.8c-0.9,0.5-1.7,1.3-2.2,2.3c-0.5,1-0.8,2.2-0.8,3.6v9.2
		h-1.6v-17.2h1.6v4.8L627,283c0.5-1.3,1.4-2.4,2.5-3.2c1.2-0.8,2.6-1.2,4.3-1.2c1.7,0,3.2,0.4,4.3,1.3c1.2,0.9,1.9,2.2,2.2,3.9
		l-0.6-0.2c0.5-1.5,1.3-2.7,2.6-3.6S645.2,278.7,647,278.7z"/>
</g>
<g class="st3">
	<path class="st4" d="M679.5,296.2c-1.7,0-3.3-0.3-4.8-0.9c-1.5-0.6-2.7-1.4-3.8-2.5c-1.1-1.1-1.9-2.3-2.5-3.7
		c-0.6-1.4-0.9-3-0.9-4.7s0.3-3.3,0.9-4.7c0.6-1.4,1.4-2.7,2.5-3.7c1.1-1.1,2.4-1.9,3.8-2.5s3-0.9,4.8-0.9c1.6,0,3.2,0.3,4.6,0.8
		c1.4,0.5,2.6,1.3,3.6,2.4l-1.1,1.1c-1-1-2.1-1.7-3.3-2.1c-1.2-0.4-2.5-0.6-3.8-0.6c-1.5,0-2.8,0.3-4.1,0.8
		c-1.3,0.5-2.4,1.2-3.3,2.1c-0.9,0.9-1.7,2-2.2,3.2c-0.5,1.2-0.8,2.6-0.8,4s0.3,2.8,0.8,4c0.5,1.2,1.2,2.3,2.2,3.2
		c0.9,0.9,2,1.6,3.3,2.1c1.3,0.5,2.6,0.8,4.1,0.8c1.3,0,2.6-0.2,3.8-0.6c1.2-0.4,2.3-1.1,3.3-2.1l1.1,1.1c-1,1.1-2.2,1.9-3.6,2.4
		C682.6,295.9,681.1,296.2,679.5,296.2z"/>
</g>
<g class="st3">
	<path class="st4" d="M699.2,296.2c-1.5,0-2.8-0.3-3.8-0.8c-1.1-0.5-1.9-1.4-2.5-2.4s-0.9-2.4-0.9-4v-10.1h1.7v9.9
		c0,1.9,0.5,3.4,1.5,4.4c1,1,2.4,1.5,4.2,1.5c1.3,0,2.4-0.3,3.4-0.8c0.9-0.5,1.7-1.3,2.2-2.3c0.5-1,0.8-2.2,0.8-3.5v-9.2h1.7V296
		h-1.6v-4.8l0.2,0.6c-0.5,1.3-1.3,2.4-2.5,3.2C702.2,295.8,700.8,296.2,699.2,296.2z"/>
</g>
<g class="st3">
	<path class="st4" d="M714.3,296v-17.2h1.6v4.7l-0.2-0.5c0.5-1.4,1.3-2.5,2.4-3.2c1.1-0.7,2.6-1.1,4.3-1.1v1.6c-0.1,0-0.1,0-0.2,0
		c-0.1,0-0.1,0-0.2,0c-1.9,0-3.4,0.6-4.5,1.8c-1.1,1.2-1.6,2.9-1.6,5v9H714.3z"/>
</g>
<g class="st3">
	<path class="st4" d="M727,296v-17.2h1.6v4.7l-0.2-0.5c0.5-1.4,1.3-2.5,2.4-3.2c1.1-0.7,2.6-1.1,4.3-1.1v1.6c-0.1,0-0.1,0-0.2,0
		c-0.1,0-0.1,0-0.2,0c-1.9,0-3.4,0.6-4.5,1.8c-1.1,1.2-1.6,2.9-1.6,5v9H727z"/>
</g>
<g class="st3">
	<path class="st4" d="M746.5,296.2c-1.7,0-3.3-0.4-4.6-1.1c-1.3-0.7-2.4-1.8-3.1-3.1c-0.8-1.3-1.1-2.8-1.1-4.5
		c0-1.7,0.4-3.2,1.1-4.5c0.7-1.3,1.7-2.3,3-3.1c1.3-0.7,2.7-1.1,4.2-1.1c1.6,0,3,0.4,4.2,1.1c1.2,0.7,2.2,1.7,2.9,3.1
		c0.7,1.3,1.1,2.8,1.1,4.5c0,0.1,0,0.1,0,0.2c0,0.1,0,0.2,0,0.2h-15.2v-1.3h14.3l-0.7,0.6c0-1.3-0.3-2.5-0.8-3.6
		c-0.6-1.1-1.4-1.9-2.4-2.5c-1-0.6-2.1-0.9-3.4-0.9c-1.3,0-2.4,0.3-3.4,0.9c-1,0.6-1.8,1.4-2.4,2.5s-0.9,2.3-0.9,3.6v0.3
		c0,1.4,0.3,2.7,0.9,3.7s1.5,1.9,2.6,2.5c1.1,0.6,2.4,0.9,3.8,0.9c1.1,0,2.1-0.2,3.1-0.6c1-0.4,1.8-1,2.4-1.8l1,1.1
		c-0.7,0.9-1.7,1.6-2.8,2.1C749.1,295.9,747.8,296.2,746.5,296.2z"/>
	<path class="st4" d="M767.6,278.7c1.4,0,2.6,0.3,3.7,0.8c1,0.5,1.9,1.4,2.4,2.4c0.6,1.1,0.9,2.4,0.9,4V296H773v-9.9
		c0-1.9-0.5-3.4-1.5-4.4c-1-1-2.3-1.5-4.1-1.5c-1.3,0-2.5,0.3-3.5,0.8c-1,0.5-1.7,1.3-2.3,2.3c-0.5,1-0.8,2.2-0.8,3.6v9.2h-1.6
		v-17.2h1.6v4.8l-0.2-0.5c0.5-1.4,1.4-2.4,2.6-3.2C764.4,279.1,765.9,278.7,767.6,278.7z"/>
	<path class="st4" d="M778.6,280.2v-1.4h10.3v1.4H778.6z M786.4,296.2c-1.5,0-2.7-0.4-3.5-1.3c-0.8-0.8-1.2-2-1.2-3.4v-16.4h1.6
		v16.3c0,1.1,0.3,1.9,0.8,2.5c0.5,0.6,1.3,0.9,2.4,0.9c1.1,0,2-0.3,2.7-1l0.7,1.2c-0.4,0.4-1,0.7-1.6,0.9S787.1,296.2,786.4,296.2z"
		/>
</g>
<g class="st3">
	<path class="st4" d="M583,330v-23.1h9.6c2.5,0,4.4,0.5,5.8,1.5c1.4,1,2.1,2.5,2.1,4.4c0,1.3-0.3,2.3-0.9,3.2
		c-0.6,0.9-1.4,1.5-2.5,1.9c-1,0.4-2.2,0.6-3.5,0.6l0.6-0.7c1.6,0,2.9,0.2,4.1,0.7c1.1,0.5,2,1.1,2.6,2c0.6,0.9,0.9,2,0.9,3.3
		c0,1.9-0.7,3.4-2.1,4.5c-1.4,1.1-3.5,1.6-6.4,1.6H583z M584.6,328.6h8.6c2.2,0,3.9-0.4,5.1-1.1c1.2-0.8,1.7-2,1.7-3.6
		c0-1.6-0.6-2.9-1.7-3.6s-2.9-1.1-5.1-1.1h-8.8v-1.5h8.1c2,0,3.6-0.4,4.7-1.2c1.1-0.8,1.6-1.9,1.6-3.5c0-1.5-0.6-2.7-1.6-3.4
		c-1.1-0.8-2.7-1.2-4.7-1.2h-7.9V328.6z"/>
</g>
<g class="st3">
	<path class="st4" d="M607.3,330v-17.2h1.6v4.7l-0.2-0.5c0.5-1.4,1.3-2.5,2.4-3.2c1.1-0.7,2.6-1.1,4.3-1.1v1.6c-0.1,0-0.1,0-0.2,0
		c-0.1,0-0.1,0-0.2,0c-1.9,0-3.4,0.6-4.5,1.8c-1.1,1.2-1.6,2.9-1.6,5v9H607.3z"/>
</g>
<g class="st3">
	<path class="st4" d="M626.5,330.2c-1.6,0-3.1-0.4-4.4-1.1c-1.3-0.7-2.3-1.8-3.1-3.1c-0.8-1.3-1.1-2.8-1.1-4.5
		c0-1.7,0.4-3.2,1.1-4.5c0.8-1.3,1.8-2.3,3.1-3.1c1.3-0.7,2.8-1.1,4.4-1.1s3.1,0.4,4.4,1.1c1.3,0.7,2.3,1.8,3.1,3.1
		c0.7,1.3,1.1,2.8,1.1,4.5c0,1.7-0.4,3.2-1.1,4.5c-0.7,1.3-1.8,2.4-3.1,3.1C629.7,329.8,628.2,330.2,626.5,330.2z M626.5,328.7
		c1.3,0,2.5-0.3,3.6-0.9c1.1-0.6,1.9-1.5,2.5-2.6c0.6-1.1,0.9-2.4,0.9-3.8c0-1.5-0.3-2.7-0.9-3.8c-0.6-1.1-1.4-1.9-2.5-2.5
		c-1.1-0.6-2.2-0.9-3.6-0.9s-2.5,0.3-3.5,0.9c-1,0.6-1.9,1.5-2.5,2.5c-0.6,1.1-0.9,2.4-0.9,3.8c0,1.4,0.3,2.7,0.9,3.8
		c0.6,1.1,1.4,2,2.5,2.6C624,328.4,625.2,328.7,626.5,328.7z"/>
</g>
<g class="st3">
	<path class="st4" d="M640.3,330v-24.5h1.7V330H640.3z M641.5,325.3l0-2.1l11.4-10.4h2.1l-7.6,7.1l-1,0.8L641.5,325.3z M653.7,330
		l-7.5-9.4l1.1-1.2l8.4,10.7H653.7z"/>
</g>
<g class="st3">
	<path class="st4" d="M666,330.2c-1.7,0-3.3-0.4-4.6-1.1c-1.3-0.7-2.4-1.8-3.1-3.1c-0.8-1.3-1.1-2.8-1.1-4.5c0-1.7,0.4-3.2,1.1-4.5
		s1.7-2.3,3-3.1c1.3-0.7,2.7-1.1,4.2-1.1c1.6,0,3,0.4,4.2,1.1c1.2,0.7,2.2,1.7,2.9,3.1c0.7,1.3,1.1,2.8,1.1,4.5c0,0.1,0,0.1,0,0.2
		c0,0.1,0,0.2,0,0.2h-15.2v-1.3h14.3l-0.7,0.6c0-1.3-0.3-2.5-0.8-3.6c-0.6-1.1-1.4-1.9-2.4-2.5c-1-0.6-2.1-0.9-3.4-0.9
		c-1.3,0-2.4,0.3-3.4,0.9c-1,0.6-1.8,1.4-2.4,2.5s-0.9,2.3-0.9,3.6v0.3c0,1.4,0.3,2.7,0.9,3.7s1.5,1.9,2.6,2.5
		c1.1,0.6,2.4,0.9,3.8,0.9c1.1,0,2.1-0.2,3.1-0.6c1-0.4,1.8-1,2.4-1.8l1,1.1c-0.7,0.9-1.7,1.6-2.8,2.1
		C668.5,329.9,667.3,330.2,666,330.2z"/>
	<path class="st4" d="M678.7,330v-17.2h1.6v4.7l-0.2-0.5c0.5-1.4,1.3-2.5,2.4-3.2c1.1-0.7,2.6-1.1,4.3-1.1v1.6c-0.1,0-0.1,0-0.2,0
		c-0.1,0-0.1,0-0.2,0c-1.9,0-3.4,0.6-4.5,1.8s-1.6,2.9-1.6,5v9H678.7z"/>
</g>
<g>
	<path class="st5" d="M179.5,151.4c0-10.6,0-21.2,0-31.8c0-6.3,4.1-10.4,10.4-10.4c21.3,0,42.5,0,63.8,0c6.3,0,10.4,4.1,10.4,10.4
		c0,10.4,0,20.9,0,31.4c0,0.5,0,1.1-0.2,1.6c-0.4,1.5-1.9,2.4-3.4,2.3c-1.5-0.2-2.8-1.4-2.9-3c0-0.3,0-0.7,0-1c0-10.4,0-20.8,0-31.1
		c0-2.7-1.2-3.9-3.9-3.9c-21.3,0-42.6,0-63.9,0c-2.6,0-3.8,1.2-3.8,3.9c0,21.3,0,42.6,0,63.9c0,2.6,1.2,3.9,3.8,3.9
		c10.6,0,21.1,0,31.6,0c2.6,0,4.2,2.2,3.4,4.4c-0.5,1.3-1.7,2.1-3.3,2.1c-6.6,0-13.1,0-19.6,0c-4.1,0-8.2,0-12.3,0
		c-5.9,0-10.1-4.2-10.1-10.1C179.5,172.9,179.5,162.1,179.5,151.4L179.5,151.4z"/>
	<path class="st6" d="M211.5,148.2c-6.1-6.8-4.3-15.9,1-20.4c5.4-4.7,13.5-4.6,18.8,0.3c5.2,4.8,6.5,13.6,0.7,20.1
		c0.4,0.2,0.7,0.4,1.1,0.6c5.9,3.2,9.9,7.9,11.1,14.6c0.2,1.1,0.3,2.3,0.3,3.4c0,1.8-1.5,3.1-3.2,3.2c-1.7,0-3.3-1.3-3.2-3
		c0.2-5.9-4.4-12.3-12.3-13.9c-6.3-1.3-12.1,0.1-16.7,4.9c-2.3,2.4-3.5,5.4-3.6,8.7c0,1.9-1.5,3.3-3.3,3.3c-1.8,0-3.3-1.5-3.2-3.5
		c0.2-7.6,3.9-13.1,10.3-17C210,149,210.7,148.6,211.5,148.2L211.5,148.2z M221.7,145.9c4.3,0,7.6-3.3,7.6-7.5
		c0-4.2-3.4-7.6-7.6-7.6c-4.2,0-7.5,3.4-7.5,7.6C214.2,142.6,217.5,145.9,221.7,145.9L221.7,145.9z"/>
	<path class="st4" d="M251.2,178.5c0-0.7,0-1.4,0-2c0-1.8,0-3.7,0-5.5c0.1-1.9,1.4-3.2,3.2-3.3s3.2,1.3,3.3,3.2c0.1,2.1,0,4.1,0,6.2
		c0,0.4,0,0.8,0,1.4c1.2,0,2.3,0,3.4,0c1.3,0,2.6,0,4,0c1.9,0,3.3,1.4,3.3,3.2c0,1.8-1.4,3.2-3.3,3.3c-2.2,0-4.4,0-6.6,0
		c-0.2,0-0.5,0-0.8,0.1c0,1.8,0,3.6,0,5.4c0,0.8,0,1.6,0,2.3c-0.1,1.8-1.5,3.1-3.2,3.1c-1.8,0-3.2-1.4-3.2-3.2c-0.1-2.2,0-4.3,0-6.5
		c0-0.4,0-0.7,0-1.2c-2.4,0-4.7,0-7,0c-0.5,0-1,0-1.5-0.1c-1.6-0.4-2.6-1.8-2.4-3.5c0.1-1.6,1.4-2.8,3.1-2.8c2.2,0,4.4,0,6.6,0
		C250.4,178.5,250.7,178.5,251.2,178.5L251.2,178.5z"/>
</g>
<g>
	<path class="st5" d="M612.1,135.3c0.1-0.8,0.1-1.4,0.2-2.1c0.6-3.4,3.7-5.9,7.1-6c1.8,0,3.7,0,5.5,0c-2.2-5.6-1.6-9,1.9-11.6
		c3-2.2,7.1-2.1,10,0.2c3.3,2.7,3.8,6.3,1.6,11.4c1.5,0,3,0,4.4,0c5.2,0,7.9,2.5,8.5,7.6c0,0.1,0,0.2,0.1,0.5h1.2
		c6.6,0,13.2,0,19.8,0c4.9,0,8.1,3.2,8.1,8.1c0,17,0,33.9,0,50.9c0,4.9-3.2,8.1-8.1,8.1c-27.1,0-54.2,0-81.2,0c-5,0-8.2-3.2-8.2-8.2
		c0-16.9,0-33.9,0-50.8c0-5,3.2-8.1,8.2-8.1c6.5,0,13,0,19.5,0C611.2,135.3,611.6,135.3,612.1,135.3L612.1,135.3z M612.2,138.8
		c-0.5,0-0.9,0-1.3,0c-6.6,0-13.2,0-19.8,0c-3,0-4.7,1.6-4.7,4.6c0,17,0,33.9,0,50.9c0,3,1.7,4.6,4.7,4.6c27.1,0,54.2,0,81.2,0
		c3,0,4.7-1.6,4.7-4.6c0-17,0-33.9,0-50.9c0-3-1.7-4.6-4.7-4.6c-6.6,0-13.2,0-19.8,0c-0.4,0-0.8,0-1.3,0c0,1.8,0,3.4,0,5.1
		c0,1.8-0.6,2.3-2.4,2.3c-11.5,0-22.9,0-34.4,0c-1.8,0-2.4-0.6-2.4-2.3C612.2,142.2,612.2,140.6,612.2,138.8L612.2,138.8z
		 M647.8,142.7c0-2.6,0-5.2,0-7.7c0-2.7-1.7-4.3-4.4-4.3c-7.8,0-15.6,0-23.4,0c-2.8,0-4.4,1.6-4.4,4.4c0,2.2,0,4.5,0,6.7
		c0,0.3,0.1,0.6,0.1,0.9H647.8L647.8,142.7z M636.4,122.3c0-2.6-2-4.7-4.6-4.8c-2.6,0-4.7,2-4.8,4.6c0,2.7,2,4.8,4.7,4.8
		C634.3,127,636.4,124.9,636.4,122.3L636.4,122.3z"/>
	<path class="st6" d="M602.6,170.4c-2.6-2.9-3.5-6.1-2.9-9.7c0.8-4.3,3.9-6.8,8-6.6c3.6,0.2,6.6,3.4,6.9,7.5c0.3,3.4-0.4,5.4-3,8.8
		c0.5,0.1,1,0.1,1.5,0.2c4.5,0.8,7.7,4.4,7.9,9.1c0.1,2.3,0,4.6,0,6.9c0,1.4-0.7,1.9-2,1.9c-7.9,0-15.9,0-23.8,0c-1.3,0-2-0.6-2-1.9
		c0-2.4-0.1-4.9,0-7.3c0.3-5,3.9-8.5,8.9-9C602.2,170.5,602.3,170.4,602.6,170.4L602.6,170.4z M617.5,185.1c0-2,0.2-3.9,0-5.7
		c-0.3-3.1-2.8-5.3-5.9-5.4c-3.1-0.1-6.2-0.1-9.2,0c-2.7,0.1-5.2,2-5.5,4.6c-0.3,2.1,0,4.3,0,6.5L617.5,185.1L617.5,185.1z
		 M611.4,162.7c-0.4-1.1-0.6-2.3-1.1-3.3c-1.5-2.5-4.8-2.5-6.4,0c-1.5,2.3-1,6.3,0.9,8.3c1.5,1.4,3.3,1.4,4.7-0.1
		C610.7,166.2,611.2,164.6,611.4,162.7L611.4,162.7z"/>
	<path class="st4" d="M650,158.7c5.9,0,11.9,0,17.8,0c1.3,0,2,0.5,2.2,1.4c0.2,1-0.5,1.8-1.5,2c-0.4,0.1-0.8,0-1.2,0
		c-11.6,0-23.1,0-34.7,0c-0.2,0-0.5,0-0.7,0c-1.2-0.1-2-0.8-1.9-1.8c0-1,0.8-1.6,2-1.6C638,158.7,644,158.7,650,158.7L650,158.7z"/>
	<path class="st4" d="M650,170.5c5.9,0,11.9,0,17.8,0c1,0,1.8,0.2,2.1,1.2c0.3,1-0.3,2-1.3,2.2c-0.4,0.1-0.8,0.1-1.3,0.1
		c-11.6,0-23.1,0-34.7,0c-0.2,0-0.5,0-0.7,0c-1.2-0.1-2-0.8-1.9-1.8c0-1,0.8-1.6,2-1.6C638,170.5,644,170.5,650,170.5L650,170.5z"/>
	<path class="st4" d="M645.2,182.3c4.2,0,8.4,0,12.6,0c0.4,0,0.8,0,1.2,0.1c0.8,0.1,1.4,0.7,1.3,1.5c-0.1,0.6-0.5,1.3-1,1.7
		c-0.3,0.3-1,0.2-1.5,0.2c-8.4,0-16.8,0-25.2,0c-0.5,0-1,0-1.5-0.2c-0.8-0.3-1.1-0.9-1-1.7s0.5-1.4,1.4-1.5c0.4-0.1,0.8-0.1,1.2-0.1
		C636.7,182.2,640.9,182.2,645.2,182.3L645.2,182.3z"/>
</g>
<g>
	<path class="st5" d="M1097.8,179.1c-0.2,0.2-0.3,0.5-0.5,0.7c-0.6,0.7-1.4,0.9-2.2,0.6c-0.8-0.2-1.3-0.8-1.4-1.7c0-0.4,0-0.8,0-1.2
		c0-13.2,0-26.5,0-39.7c0-3.2-1.7-5.6-4.5-6.4c-0.7-0.2-1.5-0.3-2.2-0.3c-25.7,0-51.5,0-77.2,0c-4,0-6.6,2.6-6.6,6.6
		c0,2.9,0,5.9,0,8.8c0,0.3,0,0.6,0,1.1c0.4,0,0.8,0,1.2,0c8.4,0,16.8,0,25.2,0c5.4,0,9.6,3.4,10.5,8.6c0,0.2,0.1,0.4,0.1,0.7
		c0,4.8,0.1,9.6,0,14.4c-0.2,4.8-4.6,9-9.4,9.2c-3,0.1-6,0.1-9.1,0.1c-5.7,0-11.4,0-17.2,0h-1.2c0,0.4,0,0.8,0,1.1
		c0,2.8,0,5.7,0,8.5c0,4.4,2.5,6.9,6.9,6.9c11.8,0,23.6,0,35.4,0c0.3,0,0.7,0,1.1,0c1.1,0.1,1.9,0.9,2,2c0,1.1-0.8,2-1.9,2.1
		c-0.3,0-0.6,0-0.9,0c-11.9,0-23.8,0-35.8,0c-6.4,0-10.8-4.4-10.8-10.8c0-17.5,0-35,0-52.4c0-6.4,4.4-10.8,10.8-10.8
		c25.7,0,51.4,0,77.1,0c5.6,0,9.5,3.1,10.7,8.6c0,0.1,0.1,0.2,0.2,0.2L1097.8,179.1L1097.8,179.1z M1003.3,151.7v24.7h0.9
		c8.4,0,16.8,0,25.2,0c4,0,6.6-2.6,6.6-6.6c0-3.8,0-7.6,0-11.5c0-4.1-2.6-6.6-6.7-6.6c-8.3,0-16.7,0-25.1,0L1003.3,151.7
		L1003.3,151.7z"/>
	<path class="st6" d="M1097.8,191.4c-0.5,0.6-0.9,1.1-1.4,1.6c-6.4,6.4-12.8,12.8-19.2,19.2c-1.5,1.5-2.4,1.5-3.9,0
		c-6.6-6.6-13.2-13.1-19.7-19.7c-0.5-0.5-0.9-1.2-0.9-1.9c-0.1-1.2,0.9-2,2.2-2c3,0,5.9,0,8.9,0c0.3,0,0.7,0,1.2,0v-1.2
		c0-6.2,0-12.5,0-18.7c0-3.2,1.6-4.8,4.8-4.8c3.8,0,7.5,0,11.3,0c2.8,0,4.5,1.7,4.5,4.5c0,6.3,0,12.7,0,19v1.2h1.1
		c2.9,0,5.7,0,8.6,0c1.3,0,2.2,0.4,2.7,1.6L1097.8,191.4L1097.8,191.4z M1059.8,192.8c5.2,5.2,10.3,10.3,15.2,15.2
		c5-5,10.2-10.1,15.2-15.2c-2,0-4.2,0-6.3,0c-2.1,0-2.7-0.6-2.7-2.7c0-6.9,0-13.9,0-20.8v-1.1H1069v1.2c0,6.8,0,13.7,0,20.5
		c0,2.2-0.6,2.9-2.8,2.9C1064,192.8,1061.9,192.8,1059.8,192.8L1059.8,192.8z"/>
	<path class="st4" d="M1027.8,163.6c0,4.3-3.7,7.8-8.2,7.8c-4.5,0-8.2-3.6-8.2-7.9c0-4.3,3.8-7.8,8.3-7.7
		C1024.2,155.8,1027.8,159.3,1027.8,163.6L1027.8,163.6z M1019.6,167.5c2.3,0,4.1-1.7,4.1-3.9c0-2.1-1.8-3.9-4.1-3.9
		c-2.3,0-4.1,1.7-4.1,3.9C1015.5,165.7,1017.3,167.5,1019.6,167.5z"/>
</g>
<g>
	<path class="st5" d="M1427.6,130.5c7.2,0.4,14.4,0.7,21.5,1.2c6.2,0.4,11.5,2.8,15.7,7.4c3.9,4.4,7.9,8.6,11.7,13.1
		c1.6,1.9,3.1,2.8,5.6,3.1c15.3,2.2,25.7,15.4,24.8,31.1c-0.8,14.4-13,26.2-27.9,26.9c-20.2,0.9-35.2-18.6-29.1-38
		c0.3-0.9,0.2-1.5-0.5-2.2c-4.4-4.4-8.9-8.6-13.1-13.2c-3-3.3-6.7-3.1-10.5-2.9c0,0.4-0.1,0.6-0.1,0.8c-0.1,2.5-0.4,2.8-2.9,2.8
		c-2.6,0-5.3,0-7.9,0c-2.4,0-4.9,0-7.3,0c-1.1,0-2-0.5-1.9-1.8c0-1.2,0.8-1.7,2-1.7c1.1,0,2.3,0,3.4,0c3.7,0,7.3,0,11.1,0
		c0-9,0-17.8,0-26.8c-0.6,0-1.2,0-1.7,0c-4.3,0-8.5,0-12.8,0c-1.2,0-1.9-0.5-2-1.7c0-1.2,0.7-1.7,1.8-1.7c5.5,0,10.9,0,16.4,0
		c1.2,0,1.8,0.7,1.8,1.9c0,0.4,0,0.9,0,1.6C1426.5,130.5,1427,130.5,1427.6,130.5L1427.6,130.5z M1465.1,169.2
		c2.3,3.1,1.7,7.1-1.1,9.7c-2.8,2.6-6.8,2.5-9.7,0c-0.4-0.4-0.9-0.8-1.3-1.2c-2.9,9.9,0.9,23.3,13.1,29.5
		c11.6,5.9,25.9,2.1,33.2-8.7c7.2-10.8,5.2-25.5-4.7-33.8c-9.6-8.2-24.7-8.2-33.6,0C1462.5,166.2,1464,167.6,1465.1,169.2
		L1465.1,169.2z M1429.7,153.6c3.4-0.1,6.1,1.1,8.5,3.6c6,6.1,12.1,12.1,18.2,18.2c1.1,1.1,2.4,1.9,4.1,1.3c2.2-0.8,3-2.7,1.8-4.7
		c-0.4-0.7-0.9-1.3-1.4-1.9c-3.7-3.9-7.4-7.8-11.2-11.7c-0.1-0.1-0.2-0.2-0.3-0.3c-0.8-0.8-0.9-1.7-0.1-2.5c0.8-0.8,1.7-0.7,2.5,0.1
		c1.8,1.8,3.6,3.6,5.4,5.4c0.4,0.4,0.8,0.7,1.2,1.2c4.6-3.9,9.9-6.2,16-7c-0.8-0.9-1.3-1.8-2-2.5c-4.1-4.4-8.1-8.7-12.2-13
		c-2.6-2.7-6-3.7-9.6-4.2c-8-1.2-16-1.4-24-1.4c-0.2,0-0.5,0.1-0.8,0.1c0,6.4,0,12.9,0,19.5C1427.2,153.6,1428.4,153.6,1429.7,153.6
		L1429.7,153.6z"/>
	<path class="st4" d="M1450.1,139.2c-0.6,0-1.3-0.2-1.8,0.1c-0.7,0.3-1.4,0.9-1.6,1.6c-0.3,1,0.5,1.7,1.5,1.8c1.3,0.1,2.7,0.2,4-0.1
		c0.6-0.1,1.4-1,1.5-1.7c0.2-1-0.6-1.6-1.7-1.7C1451.4,139.1,1450.7,139.2,1450.1,139.2L1450.1,139.2z"/>
	<path class="st6" d="M1479.8,198.3c0,0.6,0,1.1,0,1.6c-0.1,1-0.6,1.7-1.6,1.8c-1.1,0.1-1.8-0.6-1.8-1.6c0.1-1.5-0.7-1.9-1.8-2.5
		c-2.7-1.3-4.2-3.6-4.4-6.6c-0.1-1.1,0.3-2,1.5-2.2c1.3-0.1,1.8,0.6,2,1.9c0.3,2.9,2.2,4.4,5.1,4.2c2.2-0.1,3.9-2.1,3.9-4.5
		c0-2.5-1.8-4.3-4.6-4.5c-4.1-0.2-7.1-2.8-7.7-6.6c-0.7-3.9,1.3-7.3,5.2-8.8c0.8-0.3,0.9-0.7,0.9-1.4c0-1.2,0.3-2.2,1.8-2.2
		c1.4,0,1.8,1.1,1.7,2.3c-0.1,0.9,0.3,1.1,1.1,1.4c3.1,1.2,4.7,3.5,5.1,6.7c0.2,1.1-0.1,2.1-1.4,2.4c-1.1,0.2-1.8-0.5-2-2
		c-0.3-2.6-2.2-4.3-4.7-4.1c-2.3,0.1-4.2,2-4.2,4.3c-0.1,2.5,1.6,4.3,4.3,4.6c0.8,0.1,1.6,0.1,2.3,0.3c3.3,0.9,5.6,3.7,5.8,7.1
		c0.2,3.3-1.7,6.5-4.8,7.9C1480.8,197.9,1480.4,198.1,1479.8,198.3L1479.8,198.3z"/>
</g>
</svg>
