<svg width="64" height="64" viewBox="0 0 64 64" fill="none" xmlns="http://www.w3.org/2000/svg">
<path d="M22.5781 37.619H41.4216V40.3877H22.5781V37.619Z" fill="#00D4FF"/>
<path d="M24.6299 33.6907L31.9997 30.0064L39.3695 33.6907L37.955 25.6346L43.2885 19.8854L35.678 18.6972L31.9997 11.4342L28.3215 18.6974L20.7109 19.8855L26.0444 25.6347L24.6299 33.6907ZM29.9998 20.5L31.9997 16.7757L33.9998 20.5L38.9998 21L34.9195 24.4433L36.9998 30L31.9998 27.5L26.9998 30L28.4998 24.4433L24.9998 21L29.9998 20.5Z" fill="#007BFF"/>
<path d="M53.6119 52.6939V46.1565H49.1239L52.9186 0L11.1095 5.8533L14.8526 46.1565H10.3874V52.6939H5.73438V63H59.2649V52.6939H53.6119ZM13.9998 7.5L49.9998 2.5L46.9998 46.1565L17.4998 46L13.9998 7.5ZM13.1561 48.9252H50.8432V52.6939H13.1561V48.9252ZM56.4962 60.2313H8.50308V56.4626H56.4962V60.2313Z" fill="#D2E5F1"/>
</svg>
