<svg width="18" height="18" viewBox="0 0 18 18" fill="none" xmlns="http://www.w3.org/2000/svg">
<path d="M14.9145 10.475C14.1001 13.7411 10.7916 15.7289 7.52472 14.9144C4.25916 14.1001 2.27121 10.7918 3.08593 7.52589C3.89994 4.25936 7.20841 2.27149 10.4743 3.08576C13.741 3.90003 15.7288 7.2087 14.9144 10.475L14.9145 10.475H14.9145Z" fill="#F7931A"/>
<path d="M11.6887 8.13146C11.8101 7.32011 11.1923 6.88398 10.3476 6.59304L10.6216 5.49399L9.95251 5.32729L9.68573 6.3974C9.50983 6.35353 9.32919 6.3122 9.14965 6.27122L9.41836 5.19405L8.74968 5.02734L8.47549 6.12603C8.32992 6.09289 8.18695 6.06014 8.04825 6.02563L8.04902 6.02218L7.12632 5.79179L6.94833 6.50635C6.94833 6.50635 7.44475 6.62012 7.43429 6.62713C7.70523 6.69475 7.75423 6.87409 7.7461 7.01623L7.43393 8.26831C7.45259 8.27304 7.47679 8.2799 7.50349 8.29063C7.48117 8.28508 7.45741 8.27903 7.43277 8.27313L6.99522 10.0271C6.9621 10.1094 6.87806 10.2329 6.68862 10.186C6.69533 10.1957 6.20231 10.0647 6.20231 10.0647L5.87012 10.8305L6.74084 11.0475C6.90282 11.0882 7.06156 11.1307 7.21788 11.1706L6.941 12.2823L7.60933 12.449L7.88352 11.3491C8.0661 11.3987 8.24328 11.4444 8.41674 11.4875L8.14347 12.5821L8.8126 12.7489L9.08945 11.6393C10.2304 11.8552 11.0883 11.7681 11.4494 10.7363C11.7404 9.90549 11.4349 9.4263 10.8347 9.11381C11.2719 9.01299 11.6012 8.72548 11.689 8.13155L11.6888 8.1314L11.6887 8.13146ZM10.16 10.2749C9.95323 11.1057 8.55429 10.6566 8.10073 10.544L8.46816 9.07122C8.92168 9.18443 10.3761 9.40848 10.16 10.2749H10.16ZM10.3669 8.11942C10.1783 8.8751 9.01395 8.49118 8.63625 8.39704L8.96937 7.06135C9.34707 7.15549 10.5634 7.3312 10.367 8.11942H10.3669Z" fill="white"/>
</svg>
