<svg width="84" height="84" viewBox="0 0 84 84" fill="none" xmlns="http://www.w3.org/2000/svg">
<path d="M79.5723 41.0191L61.6301 9.98076C61.2839 9.34615 60.6493 9 59.8993 9H24.0725C23.3802 9 22.6879 9.40384 22.3418 9.98076L4.39951 41.0191C4.05335 41.6537 4.05335 42.4037 4.39951 42.9806L22.3418 74.019C22.6879 74.6536 23.3225 74.9998 24.0725 74.9998H59.8993C60.5916 74.9998 61.2839 74.5959 61.6301 74.019L79.5723 42.9806C79.9185 42.4037 79.9185 41.596 79.5723 41.0191ZM58.8032 71.0767H25.2264L8.43795 41.9999L25.2264 12.9231H58.8032L75.5916 41.9999L58.8032 71.0767Z" fill="#D2E5F1"/>
<path d="M60.8226 53.3075L54.8226 63.7498H46.3995C45.3034 63.7498 44.438 64.6152 44.438 65.7113C44.438 66.8075 45.3034 67.6729 46.3995 67.6729H55.9764C56.6687 67.6729 57.361 67.269 57.7072 66.6921L64.2841 55.2691C64.8033 54.346 64.5148 53.1345 63.5341 52.5575C62.611 52.0383 61.3995 52.3268 60.8226 53.3075Z" fill="#00D4FF"/>
<path d="M50.9571 24.519H33.0149C32.3225 24.519 31.6302 24.9229 31.2841 25.4998L22.3995 41.019C22.0534 41.6536 22.0534 42.4036 22.3995 42.9805L31.3418 58.4997C31.6879 59.1343 32.3226 59.4805 33.0725 59.4805H51.0148C51.7071 59.4805 52.3994 59.0766 52.7456 58.4997L61.6878 42.9805C62.034 42.3459 62.034 41.5959 61.6878 41.019L52.7456 25.4998C52.3417 24.8652 51.7071 24.519 50.9571 24.519ZM49.8033 55.5574H34.1687L26.3803 41.9998L34.1687 28.4421H49.8033L57.5917 41.9998L49.8033 55.5574Z" fill="#007BFF"/>
</svg>
