<svg width="64" height="64" viewBox="0 0 64 64" fill="none" xmlns="http://www.w3.org/2000/svg">
<g clip-path="url(#clip0_462_14708)">
<path d="M42.4653 14.0223C42.2904 14.023 42.1176 13.9837 41.9601 13.9074C37.6658 11.8004 32.8595 10.962 28.1054 11.4906C27.0784 11.5989 26.0591 11.7714 25.0536 12.0073C24.9063 12.0433 24.7533 12.0498 24.6035 12.0263C24.4536 12.0029 24.3099 11.95 24.1806 11.8706C24.0513 11.7913 23.939 11.6872 23.8502 11.5643C23.7614 11.4413 23.6978 11.302 23.6632 11.1543C23.6285 11.0067 23.6235 10.8536 23.6483 10.704C23.6731 10.5544 23.7274 10.4111 23.8079 10.2826C23.8884 10.154 23.9935 10.0427 24.1173 9.95505C24.2411 9.86738 24.381 9.8051 24.5289 9.77181C30.7325 8.31518 37.249 9.04815 42.9739 11.8465C43.2085 11.9601 43.3974 12.1501 43.5097 12.3853C43.6219 12.6204 43.6509 12.8868 43.5917 13.1406C43.5325 13.3944 43.3888 13.6205 43.1841 13.7818C42.9794 13.943 42.7259 14.0299 42.4653 14.028V14.0223Z" fill="#D2E5F1"/>
<path d="M30.8515 64.1482C23.5459 64.1396 16.542 61.2337 11.3762 56.0679C6.21034 50.9021 3.30444 43.8982 3.29593 36.5926C3.29227 34.1295 3.62289 31.6772 4.27874 29.303C4.37863 28.9402 4.48771 28.5728 4.60367 28.2065C4.69594 27.9163 4.8997 27.6747 5.17014 27.5347C5.44058 27.3948 5.75555 27.368 6.04574 27.4602C6.33594 27.5525 6.5776 27.7563 6.71756 28.0267C6.85751 28.2971 6.88431 28.6121 6.79204 28.9023C6.68564 29.2368 6.58614 29.5736 6.49352 29.9127C5.89212 32.0883 5.58892 34.3354 5.59222 36.5926C5.59041 42.2861 7.51265 47.8131 11.047 52.2767C14.5814 56.7403 19.5204 59.8785 25.0626 61.1822C30.6048 62.4858 36.4249 61.8783 41.5785 59.4582C46.732 57.0381 50.9164 52.9475 53.4528 47.8502C54.2104 46.3421 54.8132 44.761 55.2519 43.1313C55.3311 42.8371 55.5239 42.5865 55.7879 42.4345C56.0518 42.2825 56.3654 42.2415 56.6596 42.3207C56.9537 42.3999 57.2044 42.5927 57.3564 42.8566C57.5084 43.1206 57.5493 43.4342 57.4701 43.7283C55.8853 49.5793 52.4215 54.7473 47.6119 58.4369C42.8022 62.1265 36.9133 64.1332 30.8515 64.1482Z" fill="#D2E5F1"/>
<path d="M17.6768 43.3379C17.423 43.3333 17.1713 43.2919 16.9294 43.2151C15.6332 42.7596 14.4179 42.1007 13.3288 41.2632C12.8041 40.8981 12.2782 40.5342 11.742 40.1679C10.5592 39.4949 9.59809 38.4919 8.97614 37.2815C8.79725 36.8222 8.6653 36.3459 8.58233 35.8601C8.53706 35.6101 8.47919 35.3625 8.40896 35.1184C7.92413 33.9995 7.17565 33.0147 6.22747 32.248L5.80151 31.8312C5.31498 31.3532 4.86732 30.8372 4.46277 30.2881C4.36408 30.1672 4.29108 30.0274 4.24822 29.8773C4.20537 29.7273 4.19357 29.57 4.21354 29.4152C4.2335 29.2604 4.28482 29.1113 4.36436 28.977C4.44389 28.8427 4.54998 28.7261 4.67612 28.6341C4.80227 28.5422 4.94583 28.477 5.09803 28.4424C5.25024 28.4079 5.40789 28.4047 5.56136 28.4332C5.71483 28.4616 5.86089 28.521 5.99062 28.6078C6.12035 28.6946 6.23102 28.8069 6.31588 28.9379C6.64858 29.3869 7.01596 29.8092 7.41466 30.2008L7.82225 30.5992C9.0599 31.6234 10.0175 32.9448 10.6054 34.4398C10.7018 34.7567 10.7684 35.0793 10.835 35.4008C10.8907 35.7371 10.9783 36.0674 11.0968 36.3871C11.5685 37.1791 12.242 37.8317 13.0486 38.2781C13.586 38.6432 14.1164 39.0117 14.648 39.3826C15.5028 40.0374 16.444 40.571 17.4449 40.9682C17.3983 40.411 17.1966 39.8781 16.8628 39.4297C15.7961 37.6271 15.694 36.1769 16.5608 35.1184C16.9134 34.7192 17.3497 34.4028 17.8387 34.1918C17.9964 34.1195 18.1481 34.0347 18.2922 33.9381C18.6575 33.6304 18.8865 33.1909 18.9294 32.7153C18.9901 32.0584 18.9514 31.3961 18.8146 30.7508L18.7802 30.5659C18.3903 29.14 18.4178 27.6321 18.8594 26.2214C19.1511 25.5732 19.5318 24.9688 19.9903 24.4257C20.2157 24.1484 20.4247 23.8582 20.6161 23.5565C21.0259 22.7636 21.3087 21.9112 21.4542 21.0306C21.7592 19.7758 21.9513 18.4963 22.0283 17.2072C22.0307 17.0556 22.0637 16.9059 22.1254 16.7673C22.1871 16.6288 22.2762 16.5041 22.3873 16.4008C22.4984 16.2975 22.6292 16.2178 22.772 16.1663C22.9147 16.1149 23.0663 16.0929 23.2178 16.1016C23.5217 16.1129 23.8088 16.2445 24.0159 16.4673C24.2229 16.6901 24.3331 16.9859 24.3223 17.2899C24.2422 18.7174 24.0328 20.1347 23.6965 21.5243C23.5025 22.6461 23.1279 23.7291 22.5874 24.7311C22.3488 25.1145 22.0869 25.483 21.8033 25.8344C21.4776 26.2128 21.2031 26.6324 20.9869 27.0825C20.7304 28.0953 20.7486 29.1583 21.0397 30.1618L21.0753 30.3639C21.2547 31.249 21.2934 32.1568 21.1901 33.054C21.1254 33.5954 20.9526 34.1182 20.682 34.5915C20.4114 35.0649 20.0485 35.4791 19.6149 35.8095C19.3752 35.9747 19.1226 36.1203 18.8594 36.2447C18.6678 36.3255 18.4897 36.4351 18.3313 36.5696C18.2164 36.7062 18.2027 37.208 18.8261 38.2597C19.2199 38.9233 20.4197 40.9441 19.1993 42.5492C18.9402 42.8966 18.5751 43.1501 18.159 43.2714C18.0023 43.3167 17.8399 43.3391 17.6768 43.3379Z" fill="#D2E5F1"/>
<path d="M37.6515 58.5853C37.0163 58.5773 36.3831 58.5128 35.7593 58.3924C34.2979 58.226 32.9291 57.5931 31.8556 56.5875C31.1118 55.688 30.5832 54.6305 30.3102 53.4956C30.1307 52.772 29.8352 52.0822 29.4353 51.453C28.4647 50.483 27.2244 49.8277 25.8761 49.5724C25.3181 49.3944 24.7589 49.2176 24.2273 49.0098C23.1038 48.649 22.1399 47.9103 21.4994 46.9192C20.8589 45.9281 20.5814 44.7458 20.714 43.5733L20.7324 43.2288C20.6624 41.6013 21.0609 39.9878 21.8805 38.58C22.7545 37.5494 23.984 36.8851 25.325 36.7188C25.612 36.6626 25.899 36.6155 26.1918 36.5673C26.8642 36.4897 27.5242 36.328 28.1563 36.0862C28.3216 36.0139 28.4835 35.9278 28.6431 35.8428C29.1443 35.5449 29.6931 35.336 30.2655 35.2251C31.2887 35.1109 32.3189 35.3684 33.168 35.9507C34.1925 36.5731 35.0823 37.3939 35.7852 38.3649C36.4881 39.336 36.9899 40.4377 37.2611 41.6054C37.4084 42.3064 37.5096 43.0163 37.5642 43.7306C37.6134 44.459 37.7286 45.1815 37.9087 45.8891C38.2489 47.0473 38.9661 48.0587 39.9466 48.7629L40.1648 48.9133C40.5926 49.1755 40.9734 49.5077 41.2911 49.8961C41.7203 50.5391 41.9733 51.2834 42.0248 52.0547L42.2429 53.6311C42.3443 54.1889 42.3583 54.759 42.2843 55.3211C42.1279 56.0421 41.776 56.7061 41.2673 57.2403C40.7585 57.7746 40.1126 58.1585 39.4001 58.3499C38.832 58.5141 38.2428 58.5934 37.6515 58.5853ZM23.7164 39.9669C23.2102 41.0183 22.9735 42.1791 23.0275 43.3448L23.0103 43.6973C22.9034 44.3879 23.0553 45.0937 23.4366 45.6793C23.818 46.265 24.4021 46.6892 25.077 46.8708C25.5638 47.0614 26.0724 47.2152 26.5822 47.3817C28.3961 47.7577 30.0427 48.7025 31.2827 50.0787C31.8443 50.911 32.2594 51.8333 32.5101 52.8055C32.6924 53.6077 33.0448 54.3614 33.5434 55.0157C34.2881 55.646 35.2065 56.0355 36.1773 56.1329C37.0202 56.3343 37.8983 56.3391 38.7434 56.1467C39.0453 56.0737 39.3229 55.9232 39.5486 55.7099C39.7744 55.4966 39.9405 55.228 40.0305 54.9308C40.0579 54.5989 40.0402 54.2647 39.9776 53.9376L39.7606 52.3612C39.7417 51.9822 39.6423 51.6115 39.469 51.2739C39.298 51.0926 39.1024 50.9361 38.888 50.8089L38.6297 50.6321C37.2223 49.6336 36.1938 48.1888 35.7111 46.5321C35.4899 45.6892 35.3484 44.8273 35.2886 43.9579C35.2428 43.3408 35.1576 42.7272 35.0337 42.1209C34.8274 41.2551 34.4525 40.4384 33.9305 39.7176C33.4084 38.9967 32.7494 38.3858 31.9911 37.9198C31.5963 37.6307 31.1163 37.4816 30.6271 37.4961C30.3104 37.5767 30.0074 37.704 29.7281 37.8739C29.5203 37.9887 29.3125 38.0932 29.1012 38.1873C28.2911 38.513 27.442 38.7314 26.5753 38.8372C26.3089 38.8797 26.0449 38.9233 25.7819 38.9749C25.0017 39.0498 24.2739 39.4012 23.7302 39.9658L23.7164 39.9669Z" fill="#D2E5F1"/>
<path d="M34.6406 25.2982C34.0738 25.3044 33.5112 25.2007 32.9839 24.9928C32.3698 24.7191 31.8221 24.316 31.3782 23.8111C30.9344 23.3062 30.6048 22.7114 30.412 22.0673C30.069 20.9057 30.0448 19.6731 30.342 18.4989C30.4143 18.2555 30.4559 18.004 30.466 17.7503C30.3735 17.719 30.2863 17.6737 30.2076 17.616C28.6374 16.5386 27.5201 14.9196 27.0697 13.0693C26.9251 12.4075 26.8547 11.7317 26.8596 11.0543C26.8596 10.8384 26.8482 10.6214 26.8367 10.409C26.8201 10.1054 26.9246 9.80751 27.1274 9.58085C27.3302 9.35418 27.6146 9.21723 27.9182 9.20004C28.0691 9.18995 28.2204 9.21008 28.3633 9.25925C28.5063 9.30842 28.638 9.38563 28.7507 9.48637C28.8634 9.58711 28.9549 9.70934 29.0197 9.8459C29.0846 9.98245 29.1215 10.1306 29.1284 10.2816C29.1422 10.5112 29.149 10.7512 29.1548 10.9877C29.1495 11.4885 29.1945 11.9885 29.2891 12.4803C29.5853 13.759 30.3361 14.8864 31.4017 15.6526C31.7797 15.8607 32.1105 16.1449 32.373 16.4873C32.5876 16.8549 32.7194 17.265 32.759 17.6888C32.7987 18.1126 32.7453 18.5399 32.6027 18.9409C32.3843 19.736 32.3843 20.5753 32.6027 21.3704C32.6936 21.6945 32.8529 21.9953 33.0697 22.2528C33.2866 22.5102 33.556 22.7183 33.8599 22.863C34.6387 23.0793 35.4685 23.0176 36.2067 22.6885C36.589 22.5564 36.9565 22.4026 37.325 22.251C37.6373 22.1202 37.9507 21.9904 38.2676 21.8733C38.409 21.8205 38.5594 21.7961 38.7101 21.8015C38.8609 21.8068 39.0092 21.8418 39.1465 21.9044C39.2837 21.9671 39.4073 22.0561 39.5102 22.1665C39.613 22.2769 39.6931 22.4065 39.7459 22.5478C39.7987 22.6892 39.8231 22.8396 39.8177 22.9903C39.8124 23.1411 39.7774 23.2894 39.7148 23.4267C39.6521 23.5639 39.5631 23.6875 39.4527 23.7904C39.3423 23.8932 39.2127 23.9733 39.0713 24.0261C38.7809 24.1329 38.4973 24.2557 38.2068 24.3705C37.7969 24.5416 37.3847 24.715 36.961 24.8562C36.2179 25.1327 35.4334 25.2822 34.6406 25.2982Z" fill="#D2E5F1"/>
<path d="M54.4817 49.5091C54.4147 49.509 54.3479 49.5032 54.2819 49.4919C53.3398 49.3302 52.4203 49.0573 51.5424 48.679C51.0525 48.4872 50.5921 48.2271 50.175 47.9063C49.4847 47.2897 48.9279 46.5383 48.5389 45.6984C48.3142 45.2353 48.0376 44.7993 47.7145 44.3987C47.203 43.9018 46.6139 43.4915 45.9705 43.1839C45.5617 42.9543 45.153 42.7247 44.7684 42.4698C43.422 41.6235 42.4445 40.3003 42.0312 38.7647C41.9607 38.4684 42.0108 38.1563 42.1704 37.8969C42.3301 37.6376 42.5863 37.4523 42.8825 37.3818C43.1788 37.3113 43.491 37.3614 43.7503 37.521C44.0097 37.6807 44.195 37.9368 44.2655 38.2331C44.5515 39.2027 45.1857 40.0323 46.0463 40.5627C46.3815 40.7923 46.7351 40.9818 47.0796 41.1758C47.9507 41.6018 48.7425 42.1738 49.4207 42.8671C49.867 43.4005 50.2482 43.9852 50.5562 44.6088C50.8079 45.1713 51.1631 45.6816 51.6033 46.1129C51.8588 46.3013 52.1389 46.4539 52.4357 46.5664C53.1531 46.8754 53.9047 47.0981 54.6746 47.23C54.9575 47.2796 55.2116 47.4334 55.3867 47.6611C55.5618 47.8888 55.6451 48.1739 55.6203 48.4601C55.5955 48.7462 55.4644 49.0127 55.2527 49.2069C55.0411 49.4011 54.7644 49.5089 54.4771 49.5091H54.4817Z" fill="#D2E5F1"/>
<path d="M52.6663 42.3333C52.4179 42.3333 52.1762 42.2527 51.9775 42.1036C51.5836 41.8086 42.333 34.7555 42.333 25.111C42.333 22.3705 43.4217 19.7422 45.3596 17.8043C47.2974 15.8664 49.9258 14.7777 52.6663 14.7777C55.4069 14.7777 58.0352 15.8664 59.9731 17.8043C61.911 19.7422 62.9997 22.3705 62.9997 25.111C62.9997 34.7555 53.749 41.8086 53.3552 42.1036C53.1565 42.2527 52.9148 42.3333 52.6663 42.3333ZM52.6663 17.074C50.5356 17.0767 48.493 17.9244 46.9863 19.431C45.4797 20.9377 44.632 22.9803 44.6293 25.111C44.6293 32.1699 50.5997 37.9244 52.6663 39.7006C54.733 37.9244 60.7034 32.1699 60.7034 25.111C60.7006 22.9803 59.853 20.9377 58.3464 19.431C56.8397 17.9244 54.7971 17.0767 52.6663 17.074Z" fill="#00D4FF"/>
<path d="M52.6666 29.7036C51.7582 29.7036 50.8703 29.4343 50.1151 28.9296C49.3598 28.425 48.7712 27.7077 48.4236 26.8685C48.076 26.0293 47.985 25.1059 48.1622 24.2151C48.3394 23.3242 48.7768 22.5059 49.4191 21.8636C50.0614 21.2213 50.8797 20.7839 51.7706 20.6067C52.6615 20.4295 53.5849 20.5204 54.4241 20.868C55.2633 21.2156 55.9805 21.8043 56.4852 22.5595C56.9898 23.3148 57.2592 24.2027 57.2592 25.111C57.2592 26.3291 56.7753 27.4972 55.914 28.3585C55.0527 29.2198 53.8846 29.7036 52.6666 29.7036ZM52.6666 22.8147C52.2124 22.8147 51.7684 22.9494 51.3908 23.2017C51.0132 23.454 50.7189 23.8127 50.5451 24.2323C50.3713 24.6519 50.3258 25.1136 50.4144 25.559C50.503 26.0045 50.7217 26.4136 51.0428 26.7348C51.364 27.0559 51.7731 27.2746 52.2186 27.3632C52.664 27.4518 53.1257 27.4063 53.5453 27.2325C53.9649 27.0587 54.3236 26.7644 54.5759 26.3868C54.8282 26.0092 54.9629 25.5652 54.9629 25.111C54.9629 24.502 54.7209 23.9179 54.2903 23.4873C53.8597 23.0567 53.2756 22.8147 52.6666 22.8147Z" fill="#00D4FF"/>
<path d="M11.3333 27.4074C11.0849 27.4074 10.8432 27.3268 10.6444 27.1777C10.2506 26.8827 1 19.8296 1 10.1851C1 7.44457 2.08869 4.81625 4.02656 2.87837C5.96444 0.940494 8.59276 -0.148193 11.3333 -0.148193C14.0739 -0.148193 16.7022 0.940494 18.6401 2.87837C20.578 4.81625 21.6667 7.44457 21.6667 10.1851C21.6667 19.8296 12.416 26.8827 12.0222 27.1777C11.8235 27.3268 11.5818 27.4074 11.3333 27.4074ZM11.3333 2.1481C9.20262 2.15084 7.15995 2.99847 5.65331 4.50512C4.14667 6.01176 3.29903 8.05443 3.2963 10.1851C3.2963 17.244 9.26667 22.9985 11.3333 24.7747C13.4 22.9985 19.3704 17.244 19.3704 10.1851C19.3676 8.05443 18.52 6.01176 17.0134 4.50512C15.5067 2.99847 13.464 2.15084 11.3333 2.1481Z" fill="#007BFF"/>
<path d="M11.3338 14.7777C10.4255 14.7777 9.53755 14.5084 8.7823 14.0037C8.02705 13.4991 7.43841 12.7818 7.0908 11.9426C6.7432 11.1034 6.65225 10.18 6.82946 9.28915C7.00666 8.39828 7.44407 7.57996 8.08635 6.93767C8.72864 6.29539 9.54696 5.85798 10.4378 5.68078C11.3287 5.50357 12.2521 5.59452 13.0913 5.94212C13.9305 6.28972 14.6478 6.87837 15.1524 7.63362C15.657 8.38887 15.9264 9.2768 15.9264 10.1851C15.9264 11.4032 15.4425 12.5713 14.5813 13.4326C13.72 14.2939 12.5518 14.7777 11.3338 14.7777ZM11.3338 7.88883C10.8796 7.88883 10.4357 8.0235 10.0581 8.27582C9.68043 8.52814 9.38611 8.88678 9.2123 9.30637C9.0385 9.72596 8.99303 10.1877 9.08163 10.6331C9.17024 11.0785 9.38894 11.4877 9.71008 11.8089C10.0312 12.13 10.4404 12.3487 10.8858 12.4373C11.3313 12.5259 11.793 12.4804 12.2126 12.3066C12.6322 12.1328 12.9908 11.8385 13.2431 11.4609C13.4954 11.0833 13.6301 10.6393 13.6301 10.1851C13.6301 9.57611 13.3882 8.99204 12.9575 8.5614C12.5269 8.13076 11.9428 7.88883 11.3338 7.88883Z" fill="#007BFF"/>
</g>
<defs>
<clipPath id="clip0_462_14708">
<rect width="64" height="64" fill="white"/>
</clipPath>
</defs>
</svg>
