<svg width="84" height="84" viewBox="0 0 84 84" fill="none" xmlns="http://www.w3.org/2000/svg">
<path d="M42 4.02686C31.9252 4.03815 22.2664 8.04534 15.1424 15.1693C8.01849 22.2932 4.0113 31.9521 4 42.0269C6.08696 92.439 77.9202 92.4244 80 42.0266C79.9885 31.9519 75.9812 22.2932 68.8573 15.1694C61.7334 8.04552 52.0747 4.03832 42 4.02686ZM42 76.4078C32.8848 76.3974 24.1459 72.7719 17.7004 66.3264C11.255 59.881 7.6294 51.1421 7.61905 42.0269C9.50779 -3.58413 74.4992 -3.57084 76.381 42.0271C76.3705 51.1423 72.7449 59.8811 66.2995 66.3265C59.854 72.7719 51.1152 76.3974 42 76.4078Z" fill="#D2E5F1"/>
<path d="M12.4172 35.2555C12.3087 35.7167 12.3855 36.2021 12.631 36.6073C12.8765 37.0126 13.2711 37.3054 13.7302 37.4229C14.1892 37.5405 14.676 37.4733 15.086 37.2358C15.496 36.9984 15.7966 36.6096 15.9231 36.153C16.833 32.6571 18.426 29.3761 20.6103 26.499C22.7946 23.622 25.527 21.2059 28.6499 19.3903C29.0651 19.1496 29.3677 18.7538 29.4912 18.2901C29.6146 17.8263 29.5488 17.3324 29.3081 16.9172C29.0675 16.5019 28.6717 16.1993 28.2079 16.0759C27.7441 15.9524 27.2503 16.0183 26.835 16.2589C23.297 18.3171 20.2014 21.0553 17.7268 24.3157C15.2523 27.5761 13.4477 31.2942 12.4172 35.2555Z" fill="#00D4FF"/>
<path d="M43.8165 31.4339C45.2082 31.4301 46.5868 31.7023 47.8726 32.2348C49.1583 32.7672 50.3258 33.5494 51.3073 34.536C51.4753 34.7041 51.6747 34.8374 51.8942 34.9284C52.1138 35.0194 52.3491 35.0662 52.5867 35.0662C52.8243 35.0662 53.0596 35.0194 53.2791 34.9284C53.4986 34.8374 53.6981 34.7041 53.8661 34.536C56.6992 31.0602 46.4439 27.3531 43.8166 27.815C43.7959 27.8296 43.8165 25.4901 43.8094 25.4902C43.8094 25.0103 43.6187 24.55 43.2794 24.2107C42.94 23.8713 42.4798 23.6807 41.9998 23.6807C41.5199 23.6807 41.0597 23.8713 40.7203 24.2107C40.381 24.55 40.1903 25.0103 40.1903 25.4902V28.3013C37.1571 29.0978 34.4731 30.8766 32.5577 33.3598C30.6424 35.843 29.6035 38.8908 29.6035 42.0268C29.6035 45.1629 30.6424 48.2106 32.5577 50.6939C34.4731 53.1771 37.1571 54.9559 40.1903 55.7523V58.5635C40.1998 59.0371 40.3946 59.4882 40.733 59.8198C41.0713 60.1514 41.5262 60.3371 41.9999 60.3371C42.4736 60.3371 42.9285 60.1513 43.2668 59.8197C43.6051 59.488 43.7999 59.037 43.8094 58.5633C43.8164 58.5637 43.7959 56.2238 43.8164 56.2388C46.4393 56.7064 56.7034 52.9855 53.8662 49.5175C53.6982 49.3495 53.4987 49.2162 53.2791 49.1252C53.0596 49.0343 52.8243 48.9875 52.5867 48.9875C52.349 48.9875 52.1137 49.0343 51.8942 49.1253C51.6747 49.2162 51.4752 49.3496 51.3072 49.5176C50.3249 50.5051 49.1564 51.2878 47.8693 51.8203C46.5822 52.3527 45.2023 52.6244 43.8094 52.6195C43.8165 52.6191 43.7958 31.4207 43.8165 31.4339ZM40.1904 51.967C38.1648 51.2102 36.4187 49.8528 35.186 48.0763C33.9533 46.2998 33.2927 44.1891 33.2927 42.0267C33.2928 39.8644 33.9534 37.7537 35.1862 35.9773C36.419 34.2008 38.165 32.8434 40.1906 32.0867L40.1904 51.967Z" fill="#007BFF"/>
</svg>
