<svg width="64" height="64" viewBox="0 0 64 64" fill="none" xmlns="http://www.w3.org/2000/svg">
<path d="M4.8418 53.4062L15.4484 64L29.0858 50.3789L18.4792 39.7849L4.8418 53.4062ZM15.4484 58.7032L10.1452 53.4062L18.4792 45.082L23.7824 50.379L15.4484 58.7032Z" fill="#007BFF"/>
<path d="M39.4996 33.7713V12.788L44.6747 17.957L47.3264 15.3085L31.9996 0L16.6729 15.3085L19.3245 17.957L24.4996 12.788V39.977L48.5512 64L59.1579 53.4061L39.4996 33.7713ZM31.9996 5.29688L35.7496 9.04238V25.0524H28.2496V9.0425L31.9996 5.29688ZM28.2496 38.4256V28.798H35.7496V35.3228L53.8545 53.4061L48.5512 58.7031L28.2496 38.4256Z" fill="#D2E5F1"/>
<path d="M39.5002 33.7712V26.6666L28.2502 26.6666L24.5002 26.6666V39.977L48.5519 64L59.1585 53.4061L39.5002 33.7712ZM28.2502 38.4256V28.798H35.7502V35.3227L53.8551 53.4061L48.5519 58.7031L28.2502 38.4256Z" fill="#00D4FF"/>
</svg>
