<svg width="84" height="84" viewBox="0 0 84 84" fill="none" xmlns="http://www.w3.org/2000/svg">
<g clip-path="url(#clip0_757_391)">
<path d="M21 42C9.42063 42 0 51.4206 0 63C0 74.5794 9.42063 84 21 84C32.5794 84 42 74.5794 42 63C42 51.4206 32.5794 42 21 42ZM21 81.1999C10.9648 81.1999 2.80005 73.0352 2.80005 63C2.80005 52.9648 10.9648 44.8001 21 44.8001C31.0352 44.8001 39.1999 52.9648 39.1999 63C39.1999 73.0352 31.0352 81.1999 21 81.1999Z" fill="#D2E5F1"/>
<path d="M65.8 19.6H60.2C58.6559 19.6 57.4 18.3442 57.4 16.7999C57.4 15.2557 58.6557 13.9998 60.2 13.9998H68.6C69.3728 13.9998 70 13.3741 70 12.5999C70 11.8257 69.3728 11.2 68.6 11.2H60.2C57.1116 11.2 54.6001 13.7116 54.6001 16.7999C54.6001 19.8884 57.1117 22.3998 60.2 22.3998H65.8C67.3441 22.3998 68.6 23.6556 68.6 25.1999C68.6 26.7441 67.3443 28 65.8 28H57.4C56.6273 28 56 28.6257 56 29.3999C56 30.1741 56.6273 30.7998 57.4 30.7998H65.8C68.8885 30.7998 71.3999 28.2882 71.3999 25.1999C71.3999 22.1114 68.8883 19.6 65.8 19.6Z" fill="#D2E5F1"/>
<path d="M63 8.3999C62.2273 8.3999 61.6001 9.02564 61.6001 9.79985V32.1998C61.6001 32.974 62.2273 33.5997 63 33.5997C63.7728 33.5997 64.4 32.974 64.4 32.1998V9.79985C64.4 9.02564 63.7728 8.3999 63 8.3999Z" fill="#007BFF"/>
<path d="M63 0C51.4206 0 42 9.42063 42 21C42 32.5794 51.4206 42 63 42C74.5794 42 84 32.5794 84 21C84 9.42063 74.5794 0 63 0ZM63 39.1999C52.9648 39.1999 44.8001 31.0352 44.8001 21C44.8001 10.9648 52.9648 2.80005 63 2.80005C73.0352 2.80005 81.1999 10.9648 81.1999 21C81.1999 31.0352 73.0352 39.1999 63 39.1999Z" fill="#D2E5F1"/>
<path d="M28.9098 70.336C28.3233 69.8362 27.4384 69.9033 26.9358 70.4913C25.3049 72.3995 22.8072 72.7998 20.9999 72.7998C17.0084 72.7998 13.9998 68.5859 13.9998 62.9999C13.9998 57.4139 17.0084 53.2 20.9999 53.2C23.6444 53.2 25.6394 53.9755 26.9303 55.5029C27.4287 56.0937 28.3135 56.1693 28.9028 55.6681C29.4936 55.1712 29.5677 54.2864 29.0695 53.6956C27.2481 51.5395 24.4578 50.3999 20.9999 50.3999C15.4124 50.3999 11.2 55.8164 11.2 62.9999C11.2 70.1834 15.4124 75.5999 20.9999 75.5999C24.4368 75.5999 27.2243 74.4631 29.0654 72.31C29.5679 71.722 29.4978 70.8385 28.9098 70.336Z" fill="#D2E5F1"/>
<path d="M19.6 58.8H9.79985C9.02711 58.8 8.3999 59.4258 8.3999 60.2C8.3999 60.9742 9.02711 61.5999 9.79985 61.5999H19.5998C20.3725 61.5999 20.9997 60.9742 20.9997 60.2C20.9997 59.4258 20.3727 58.8 19.6 58.8Z" fill="#00D4FF"/>
<path d="M19.6 64.3999H9.79985C9.02711 64.3999 8.3999 65.0256 8.3999 65.7999C8.3999 66.5741 9.02711 67.1998 9.79985 67.1998H19.5998C20.3725 67.1998 20.9997 66.5741 20.9997 65.7999C20.9999 65.0258 20.3727 64.3999 19.6 64.3999Z" fill="#00D4FF"/>
<path d="M35 8.3999C21.8763 8.3999 11.2 19.0763 11.2 32.2V36.4C11.2 37.1742 11.8272 37.7999 12.5999 37.7999C13.3726 37.7999 13.9998 37.1742 13.9998 36.4V32.2C13.9998 20.6206 23.4205 11.2 34.9998 11.2C35.7726 11.2 36.3998 10.5742 36.3998 9.80001C36.3998 9.0258 35.7729 8.3999 35 8.3999Z" fill="#007BFF"/>
<path d="M13.6919 35.525L8.092 28.525C7.61047 27.9215 6.727 27.8236 6.12505 28.3066C5.52163 28.7896 5.42368 29.6701 5.90668 30.275L11.5065 37.2751C11.7823 37.6209 12.1896 37.8001 12.5998 37.8001C12.9077 37.8001 13.2158 37.7006 13.4734 37.4934C14.077 37.0104 14.1749 36.1299 13.6919 35.525Z" fill="#007BFF"/>
<path d="M19.0751 28.3065C18.4731 27.825 17.5911 27.9229 17.1081 28.5248L11.5082 35.5249C11.0252 36.1283 11.1218 37.0088 11.7265 37.4933C11.9841 37.7005 12.2935 37.8 12.6002 37.8C13.009 37.8 13.4164 37.6193 13.6936 37.275L19.2936 30.2749C19.7764 29.6715 19.6798 28.791 19.0751 28.3065Z" fill="#007BFF"/>
<path d="M71.4 46.2C70.6273 46.2 70 46.8257 70 47.5999V51.7999C70 63.3793 60.5794 72.7999 49 72.7999C48.2273 72.7999 47.6001 73.4256 47.6001 74.1998C47.6001 74.9741 48.2273 75.5998 49 75.5998C62.1236 75.5998 72.8001 64.9234 72.8001 51.7997V47.5997C72.7999 46.8257 72.1727 46.2 71.4 46.2Z" fill="#00D4FF"/>
<path d="M78.0918 53.725L72.4919 46.7249C72.0104 46.1215 71.1284 46.0235 70.525 46.5065C69.9215 46.9895 69.8236 47.8701 70.3066 48.475L75.9065 55.475C76.1823 55.8209 76.5897 56 77 56C77.308 56 77.6161 55.9006 77.8736 55.6934C78.4769 55.2104 78.5748 54.3297 78.0918 53.725Z" fill="#00D4FF"/>
<path d="M72.275 46.5066C71.6731 46.0236 70.7911 46.123 70.3081 46.7249L64.7081 53.725C64.2251 54.3284 64.3218 55.2089 64.9265 55.6934C65.1841 55.9006 65.4935 56 65.8001 56C66.209 56 66.6163 55.8194 66.8934 55.475L72.4934 48.475C72.9765 47.8716 72.8799 46.9909 72.275 46.5066Z" fill="#00D4FF"/>
</g>
<defs>
<clipPath id="clip0_757_391">
<rect width="84" height="84" fill="white"/>
</clipPath>
</defs>
</svg>
