<?xml version="1.0" encoding="UTF-8"?>
<svg id="Layer_1" data-name="Layer 1" xmlns="http://www.w3.org/2000/svg" viewBox="0 0 98.37 111.69">
  <defs>
    <style>
      .cls-1 {
        fill: #03ffff;
      }

      .cls-1, .cls-2, .cls-3 {
        stroke-width: 0px;
      }

      .cls-2 {
        fill: #057bff;
      }

      .cls-3 {
        fill: #fff;
      }
    </style>
  </defs>
  <g id="h9JGzl.tif">
    <g>
      <path class="cls-2" d="m19.05,79.75c2.08-.65,4.11-1.45,6.22-1.9,5.21-1.12,10.33-.6,15.04,1.89,3.45,1.82,7,2.67,10.86,2.65,3.12-.02,6.25.23,9.37.22,4.81-.02,8.47,1.93,11.04,6.12.34-.14.7-.27,1.04-.43,4.53-2.13,9.04-4.31,13.59-6.4,4.19-1.93,9.04-.53,11.55,3.24.98,1.48.8,2.39-.7,3.36-10.36,6.71-20.71,13.44-31.11,20.1-4.2,2.69-8.95,3.58-13.79,2.88-3.85-.55-7.62-1.77-11.39-2.78-4.52-1.21-9.02-2.5-13.52-3.79-1.99-.57-3.87-.41-5.67.65-.44.26-.88.51-1.35.72-1.23.54-2.24,1.12-2.13,2.79.07.96-.74,1.58-1.76,1.55-4.83-.1-9.66-.21-14.49-.38-1.33-.05-1.91-.83-1.87-2.3.15-5.81.32-11.62.48-17.43.12-4.43.25-8.86.36-13.29.05-1.96.62-2.51,2.59-2.46,4.36.11,8.72.21,13.08.33,2.08.06,2.62.67,2.54,2.76-.03.65,0,1.3,0,1.93Zm-.62,23.28c.61-.31,1.12-.56,1.62-.83,2.55-1.4,5.21-1.67,8-.88,3.84,1.08,7.68,2.18,11.52,3.22,4.13,1.12,8.22,2.44,12.42,3.21,4.04.74,8.14.16,11.67-2.07,9.84-6.23,19.59-12.63,29.37-18.96.25-.16.48-.37.8-.61-1.98-1.49-3.98-1.84-6.13-.86-2.15.98-4.27,2.01-6.4,3.01-2.82,1.33-5.63,2.66-8.49,4.01.06.44.11.83.15,1.22.21,2.19-.48,2.96-2.65,2.9-6.5-.16-13-.34-19.5-.51-.62-.02-1.3.07-1.83-.17-.53-.24-1.16-.75-1.3-1.26-.14-.51.09-1.36.48-1.73.4-.38,1.18-.53,1.78-.51,5.96.12,11.91.3,17.87.46.41.01.83,0,1.26,0-.72-3.52-3.71-6.15-7.14-6.31-2.61-.12-5.23-.16-7.84-.24-2.36-.08-4.72-.1-7.08-.26-3.04-.21-5.67-1.62-8.38-2.87-6.37-2.95-12.66-2.61-18.8.79-.68.38-.97.81-.98,1.61-.13,5.63-.31,11.26-.47,16.89,0,.2.03.41.06.77Zm-13.93-24.39c-.25,9.21-.51,18.56-.78,28.08h10.85c.25-9.29.51-18.59.77-28.08H4.5Z"/>
      <path class="cls-2" d="m50.33,77.47c-14.67,0-26.57-11.89-26.57-26.54,0-14.64,11.93-26.55,26.58-26.54,14.67,0,26.57,11.89,26.57,26.55,0,14.65-11.91,26.54-26.58,26.54Zm-.03-3.65c12.6.03,22.89-10.22,22.92-22.83.03-12.64-10.15-22.87-22.8-22.93-12.61-.06-22.93,10.16-22.98,22.76-.05,12.67,10.18,22.96,22.86,23Z"/>
      <path class="cls-3" d="m52.15,10.53c0,2.87,0,5.73,0,8.6,0,.94-.43,1.61-1.37,1.84-.88.22-1.6-.08-2.02-.88-.18-.33-.24-.76-.24-1.15-.01-5.62-.02-11.24,0-16.87,0-1.31.75-2.1,1.85-2.08,1.1.02,1.77.81,1.78,2.15.02,2.79,0,5.59,0,8.38,0,0,0,0,0,0Z"/>
      <path class="cls-3" d="m65.89,15.15c0,1.3.02,2.61,0,3.91-.03,1.22-.78,2-1.83,1.98-1.02-.01-1.77-.76-1.78-1.92-.03-2.68-.03-5.36,0-8.04.01-1.17.75-1.91,1.78-1.93,1.07-.02,1.81.74,1.84,1.97.03,1.34,0,2.68,0,4.02Z"/>
      <path class="cls-3" d="m38.42,15.11c0,1.3.02,2.61,0,3.91-.03,1.24-.74,2.02-1.79,2.03-1.06.01-1.82-.76-1.83-1.98-.03-2.64-.03-5.29,0-7.93.01-1.23.77-1.99,1.84-1.97,1.06.02,1.76.78,1.78,2.04.03,1.3,0,2.61,0,3.91Z"/>
      <path class="cls-3" d="m46.19,44.8c0-2.22,1.7-4.01,3.95-4.14,2.22-.14,4.11,1.56,4.34,3.86.13,1.4.88,2.2,1.97,2.12,1.15-.08,1.87-1.08,1.7-2.46-.4-3.23-2.06-5.55-5.15-6.69-.81-.3-1.22-.63-1.08-1.52.05-.28.01-.59-.05-.87-.19-.9-.81-1.4-1.69-1.43-.93-.04-1.6.44-1.83,1.39-.08.35-.12.73-.07,1.08.11.82-.23,1.17-.99,1.5-2.89,1.24-4.52,3.52-4.75,6.63-.22,3.02,1.05,5.43,3.59,7.13,1.41.95,3.02,1.12,4.66,1.3,2.3.24,3.81,2.13,3.69,4.36-.12,2.12-1.88,3.82-3.99,3.85-2.34.03-4.07-1.53-4.28-3.89-.13-1.36-.92-2.16-2.03-2.05-1.11.11-1.79,1.06-1.64,2.4.34,3.06,1.85,5.34,4.71,6.55.88.37,1.16.83,1.04,1.69-.02.18,0,.36,0,.54.1,1.14.87,1.89,1.88,1.85.98-.04,1.8-.8,1.72-1.87-.1-1.26.36-1.77,1.54-2.22,3.07-1.18,4.97-4.41,4.73-7.62-.26-3.41-2.57-6.23-5.86-7.05-.84-.21-1.72-.23-2.58-.35-2.05-.31-3.51-2.01-3.51-4.08Z"/>
      <path class="cls-1" d="m46.19,44.8c0,2.07,1.46,3.78,3.51,4.08.86.13,1.74.15,2.58.35,3.29.82,5.6,3.63,5.86,7.05.24,3.21-1.66,6.44-4.73,7.62-1.18.45-1.63.96-1.54,2.22.08,1.07-.74,1.83-1.72,1.87-1.01.04-1.78-.72-1.88-1.85-.02-.18-.03-.37,0-.54.11-.86-.16-1.31-1.04-1.69-2.85-1.21-4.37-3.49-4.71-6.55-.15-1.34.53-2.29,1.64-2.4,1.11-.11,1.9.69,2.03,2.05.22,2.36,1.94,3.92,4.28,3.89,2.11-.03,3.87-1.73,3.99-3.85.13-2.23-1.39-4.11-3.69-4.36-1.64-.17-3.25-.35-4.66-1.3-2.54-1.7-3.8-4.11-3.59-7.13.22-3.11,1.86-5.39,4.75-6.63.77-.33,1.1-.68.99-1.5-.05-.35-.01-.73.07-1.08.22-.95.9-1.42,1.83-1.39.88.03,1.49.53,1.69,1.43.06.28.09.59.05.87-.15.89.26,1.22,1.08,1.52,3.09,1.14,4.74,3.46,5.15,6.69.17,1.38-.55,2.37-1.7,2.46-1.09.08-1.83-.72-1.97-2.12-.22-2.31-2.12-4-4.34-3.86-2.24.14-3.95,1.93-3.95,4.14Z"/>
    </g>
  </g>
</svg>