<?xml version="1.0" encoding="UTF-8"?>
<svg id="Layer_1" data-name="Layer 1" xmlns="http://www.w3.org/2000/svg" viewBox="0 0 192.8 173.99">
  <defs>
    <style>
      .cls-1 {
        fill: #fff;
      }

      .cls-1, .cls-2, .cls-3 {
        stroke-width: 0px;
      }

      .cls-2 {
        fill: aqua;
      }

      .cls-3 {
        fill: #0070ff;
      }
    </style>
  </defs>
  <path class="cls-2" d="m154.22,22.83c6.64-2,11.88-.3,14.74,4.65,2.85,4.94,1.69,10.45-3.32,15.09,1.44,2.52,2.9,5.08,4.37,7.63,1.65,2.86,3.33,5.7,4.94,8.58,2.78,4.98,1.52,10.73-2.97,13.74-4.51,3.03-10.24,1.97-13.87-2.44-.48-.59-1.47-1.05-2.23-1.06-8.95-.12-17.64,1.54-26.17,4.11-.52.16-1.04.87-1.24,1.44-1.37,3.95-2.7,7.92-3.92,11.92-.18.58.05,1.49.43,2.01,2.69,3.73,5.46,7.4,8.2,11.09,2.77,3.75,2.47,6.5-1.02,9.66-.91.82-1.8,1.68-2.74,2.48-2.9,2.48-6.53,2.15-8.85-.88-2.68-3.49-5.28-7.04-8.03-10.73-10.61,6.79-21.93,8.63-33.93,4.67-8.2-2.71-14.7-7.8-19.51-14.99-9.62-14.4-8.24-33.38,3.28-46.44,11.01-12.48,31.39-17.83,49.44-6.55,5.78-5.76,10.98-12.01,14.94-19.22.25-.46.21-1.24.02-1.76-2.15-5.61-.2-11.13,4.84-13.52,4.96-2.35,10.45-.47,13.44,4.66,3.06,5.25,6.09,10.52,9.18,15.86Zm-30.77,45.81c-.08-18.14-14.73-32.63-32.9-32.55-17.91.08-32.37,14.7-32.34,32.69.04,18.04,14.66,32.62,32.67,32.59,17.97-.03,32.65-14.78,32.57-32.73Zm-6.99-28.13c3.64,3.37,6.68,7.43,8.89,12.11,2.22,4.71,3.25,9.72,3.58,14.44,8.48-1.4,16.72-2.76,25.02-4.13-7.73-13.38-15.55-26.93-23.24-40.24-4.78,5.97-9.45,11.82-14.25,17.82Zm19.41-33.94c-1.02.48-2.18.79-3.04,1.48-1.92,1.56-2,3.92-.41,6.67,9.76,16.92,19.53,33.84,29.31,50.76.32.56.64,1.14,1.06,1.62,1.32,1.5,2.99,2.03,4.91,1.44,1.92-.59,3.15-2,3.21-3.96.04-1.2-.44-2.55-1.04-3.63-3.81-6.76-7.73-13.47-11.61-20.19-5.95-10.31-11.92-20.61-17.85-30.93-1-1.74-2.27-2.98-4.54-3.27Zm-10.61,101.45c1.16-1.02,2.12-1.95,3.18-2.77,1.02-.79,1.15-1.43.29-2.51-2.16-2.74-4.18-5.58-6.26-8.39-.51-.69-1.04-1.37-1.6-2.12-1.47,1.62-2.72,2.99-4.06,4.47,2.81,3.76,5.58,7.47,8.45,11.31Zm31.79-80.28c1.96,3.39,3.82,6.62,5.74,9.93,2.35-2.42,2.78-5.14,1.4-7.48-1.4-2.38-3.85-3.28-7.14-2.46Z"/>
  <path class="cls-3" d="m26.51,116.07c5.57-2.68,10.92-5.41,16.41-7.83,4.06-1.8,8.21-3.53,12.49-4.68,5.12-1.37,10.43-.61,14.83,2.18,7.96,5.06,16.96,6.78,25.78,9.15,3.95,1.06,7.43,2.55,9.77,6.12.24.37,1.36.44,1.96.26,9.2-2.64,18.37-5.36,27.56-8.01,4.77-1.37,9.61-2.17,14.56-1.06,7.11,1.6,10.78,7.43,8.97,14.44-1.38,5.38-4.57,9.4-9.87,11.44-16.22,6.26-32.44,12.54-48.71,18.68-3.13,1.18-6.44,1.93-9.71,2.63-3.66.78-7.32.49-10.93-.59-7.06-2.11-14.17-4.07-21.22-6.2-3.17-.96-6.1-.68-9,.84-1.94,1.01-3.93,1.93-6.07,2.97.37.98.72,1.86,1.05,2.75,1.43,3.92-.13,7.84-3.95,9.55-3.72,1.65-7.49,3.21-11.28,4.68-3.99,1.55-8.01-.08-9.67-4.01-6.34-15.08-12.63-30.18-18.86-45.3-1.59-3.86.11-7.83,3.92-9.53,3.48-1.55,7.03-2.97,10.55-4.42,4.79-1.97,8.63-.38,10.73,4.43.18.41.38.81.71,1.49Zm1.99,4.95c4.3,10.32,8.44,20.26,12.65,30.35,2.06-.99,3.94-1.83,5.76-2.79,4.23-2.22,8.58-2.57,13.16-1.19,6.62,2,13.33,3.72,19.92,5.85,4.51,1.46,9.01,1.67,13.34.05,18.24-6.79,36.41-13.73,54.57-20.74,3.16-1.22,4.88-3.99,5.64-7.23,1.02-4.37-1.11-7.59-5.59-7.91-2.99-.21-6.14-.09-9.02.66-8.88,2.32-17.66,5.02-26.48,7.58-1.59.46-3.18.96-4.72,1.42-.03.47-.05.73-.07.98-.59,8.44-7.91,13.75-16.11,11.67-1.76-.44-3.5-.94-5.25-1.41-7.25-1.94-14.49-3.89-21.74-5.82-1.38-.37-2.58-1.08-2.48-2.55.06-.93.76-2.06,1.52-2.62.57-.42,1.75-.25,2.58-.03,9.07,2.37,18.12,4.85,27.2,7.19,3.89,1,7.55-1.27,8.54-5.06.97-3.68-1.1-7.37-4.82-8.56-.98-.32-2-.53-2.99-.82-8.83-2.55-17.98-4.04-25.94-9.27-4.52-2.97-9.95-3.2-14.97-1.06-8.25,3.52-16.34,7.44-24.7,11.29Zm11.08,41.14c-.29-.84-.44-1.33-.64-1.8-6.05-14.56-12.11-29.11-18.18-43.66-.84-2.02-1.58-2.31-3.62-1.48-3.17,1.29-6.33,2.61-9.49,3.94-2.28.96-2.55,1.6-1.61,3.86,2,4.83,4.02,9.66,6.03,14.49,4.02,9.66,8.05,19.32,12.06,28.99.62,1.5,1.46,2.49,3.23,1.76,3.53-1.44,7.07-2.86,10.55-4.41.7-.31,1.17-1.17,1.67-1.7Z"/>
  <path class="cls-1" d="m163.23,15.16c-2.51-.05-3.84-2.04-2.86-3.88,1.82-3.42,3.8-6.77,5.83-10.07.77-1.24,2.1-1.54,3.42-.81,1.38.76,1.93,2.08,1.18,3.47-1.84,3.42-3.79,6.78-5.83,10.08-.41.67-1.39.98-1.75,1.22Z"/>
  <path class="cls-1" d="m184.38,43.1c-1.68,0-3.37.03-5.05,0-1.92-.04-3.15-1.09-3.18-2.67-.03-1.59,1.2-2.74,3.08-2.76,3.5-.04,7-.04,10.5,0,1.88.02,3.11,1.17,3.07,2.76-.03,1.59-1.25,2.64-3.17,2.67-1.75.03-3.5,0-5.25,0Z"/>
  <path class="cls-1" d="m176.69,25.95c-.76-.68-1.95-1.25-2.16-2.07-.23-.91.09-2.56.76-3.01,3.16-2.09,6.49-3.94,9.83-5.75,1.21-.66,2.42-.19,3.22.96.8,1.16.82,2.6-.29,3.31-3.41,2.18-6.97,4.12-10.49,6.14-.15.09-.38.06-.57.08-.1.11-.2.22-.31.34Z"/>
  <g>
    <path class="cls-1" d="m90.96,50.58c3.19.3,6.4,1.33,8.99,3.83,1.53,1.49,1.67,3.26.46,4.44-1.2,1.16-2.61.93-4.24-.5-1.92-1.69-4.14-2.62-6.77-2.1-2.73.54-4.67,2.69-4.55,5.01.11,2.33,2.22,4.39,4.9,4.75,1.15.16,2.33.18,3.47.38,4.86.87,8.61,4.8,9.01,9.39.39,4.5-2.39,8.72-7.05,10.48-1.13.43-1.6.9-1.54,2.18.08,1.91-1.08,3.14-2.66,3.17-1.56.03-2.69-1.16-2.73-3.1-.02-1.1-.35-1.59-1.44-2.11-1.78-.84-3.41-2.05-4.96-3.29-1.29-1.03-1.38-2.46-.36-3.8.92-1.21,2.67-1.34,3.97-.2,1.7,1.5,3.44,2.69,5.87,2.49,2.95-.24,5.36-2.29,5.47-4.81.11-2.42-1.82-4.52-4.73-5.05-1.2-.22-2.46-.17-3.66-.41-5.53-1.1-9.47-5.96-8.99-11,.52-5.47,5.5-9.79,11.56-9.76Z"/>
    <rect class="cls-1" x="87.29" y="46.32" width="5.69" height="8.48" rx="2.84" ry="2.84"/>
  </g>
</svg>