<svg width="48" height="48" viewBox="0 0 48 48" fill="none" xmlns="http://www.w3.org/2000/svg">
<path d="M44.4584 5.44104C44.2484 5.23123 43.9615 5.11732 43.6643 5.12773L38.7234 5.29432C38.1317 5.31429 37.6682 5.81014 37.6882 6.4017C37.7082 6.99345 38.2024 7.45732 38.7956 7.43689L39.797 7.40314L39.9789 7.58501L38.2106 8.99614L30.6785 15.0069L26.7807 12.1738L20.0867 7.30826C19.5529 6.92042 18.8361 6.89801 18.2793 7.25164L2.35103 17.3687C1.60141 17.8448 1.37969 18.8384 1.85585 19.588C2.16222 20.0704 2.68263 20.3341 3.21466 20.3341C3.50941 20.3341 3.80791 20.2529 4.0751 20.0832L8.54669 17.243L19.0806 10.5525L22.8245 13.2737L29.7789 18.3284C30.3644 18.7536 31.1615 18.7357 31.7272 18.2845L42.2674 9.87326L42.4964 10.1023L42.4626 11.1037C42.4426 11.6955 42.9062 12.1913 43.4978 12.2111C43.5101 12.2116 43.5224 12.2118 43.5346 12.2118C44.1099 12.2118 44.5858 11.7553 44.6052 11.1759L44.7718 6.23501C44.7818 5.93839 44.6683 5.65095 44.4584 5.44104Z" fill="#00D4FF"/>
<path d="M44.8589 40.7291V20.4145C44.8589 19.1382 44.8205 18.0997 43.544 18.0997H40.1272C38.8509 18.0997 38.8124 19.1381 38.8124 20.4145V40.729H33.747V27.8147C33.747 26.5384 33.7085 25.4998 32.4321 25.4998H29.0153C27.739 25.4998 27.7005 26.5383 27.7005 27.8147V40.7292L11.5232 40.7291V34.1511C11.5232 32.8748 11.4847 31.8364 10.2083 31.8364H6.79217C5.51586 31.8364 5.47729 32.8748 5.47729 34.1511V40.7291H44.8589Z" fill="#D2E5F1"/>
<path d="M22.6351 40.7292V20.965C22.6351 19.6887 22.5966 18.6501 21.3202 18.6501H17.9033C16.627 18.6501 16.5886 19.6886 16.5886 20.965V40.7291L22.6351 40.7292Z" fill="#007BFF"/>
<path d="M46.9281 40.7292H45.8589L37.8124 40.7291H34.747L26.7005 40.7293H23.6351L15.5887 40.7292H12.5232H4.47731H1.07194C0.48 40.7292 0 41.2092 0 41.8011C0 42.393 0.48 42.873 1.07194 42.873H46.9281C47.52 42.873 48 42.393 48 41.8011C48 41.2092 47.5201 40.7292 46.9281 40.7292Z" fill="#D2E5F1"/>
</svg>
