<svg width="48" height="48" viewBox="0 0 48 48" fill="none" xmlns="http://www.w3.org/2000/svg">
<path d="M5.94873 28.6734V42.6974C5.94873 45.1568 7.94945 47.1575 10.4084 47.1575H37.5917C40.0507 47.1575 42.0514 45.1568 42.0514 42.6974V28.6734C42.0514 26.2141 40.0507 24.2134 37.5917 24.2134H10.4085C7.94945 24.2135 5.94873 26.2141 5.94873 28.6734ZM40.6041 28.6734V42.6974C40.6041 44.3586 39.2529 45.7102 37.5917 45.7102H10.4085C8.74736 45.7102 7.39614 44.3586 7.39614 42.6974V28.6734C7.39614 27.0123 8.74736 25.6607 10.4085 25.6607H37.5918C39.2529 25.6608 40.6041 27.0124 40.6041 28.6734Z" fill="#007BFF" stroke="#007BFF"/>
<path d="M19.9933 39.2452H28.007C29.9696 39.2452 31.5663 37.6483 31.5663 35.6855C31.5663 33.7226 29.9695 32.1258 28.007 32.1258H19.9933C18.0304 32.1258 16.4336 33.7226 16.4336 35.6855C16.4336 37.6483 18.0304 39.2452 19.9933 39.2452ZM19.9933 33.5731H28.007C29.1717 33.5731 30.119 34.5208 30.119 35.6855C30.119 36.8501 29.1717 37.7979 28.007 37.7979H19.9933C18.8286 37.7979 17.8809 36.8501 17.8809 35.6855C17.8809 34.5208 18.8286 33.5731 19.9933 33.5731Z" fill="#00D4FF" stroke="#00D4FF"/>
<path d="M34.3093 11.1517C34.3093 5.46722 29.6846 0.842529 23.9998 0.842529C18.3154 0.842529 13.6907 5.46722 13.6907 11.1517C13.6907 16.8365 18.3154 21.4612 23.9998 21.4612C29.6846 21.4612 34.3093 16.8365 34.3093 11.1517ZM15.138 11.1517C15.138 6.26512 19.1133 2.28984 23.9998 2.28984C28.8863 2.28984 32.862 6.26512 32.862 11.1517C32.862 16.0382 28.8864 20.0138 23.9998 20.0138C19.1132 20.0138 15.138 16.0382 15.138 11.1517Z" fill="#D2E5F1" stroke="#D2E5F1"/>
<path d="M28.5 10.9999C28.5 8.51822 26.4818 6.5 23.9999 6.5C21.5182 6.5 19.5 8.51823 19.5 10.9999C19.5 13.4818 21.5182 15.5 23.9999 15.5C26.4818 15.5 28.5 13.4818 28.5 10.9999ZM21.0616 10.9999C21.0616 9.3801 22.3801 8.06156 23.9999 8.06156C25.6198 8.06156 26.9384 9.38013 26.9384 10.9999C26.9384 12.6198 25.6198 13.9384 23.9999 13.9384C22.3801 13.9384 21.0616 12.6198 21.0616 10.9999Z" fill="#D2E5F1" stroke="#D2E5F1"/>
</svg>
