<svg width="48" height="48" viewBox="0 0 48 48" fill="none" xmlns="http://www.w3.org/2000/svg">
<path d="M22.3493 21.9528C27.4965 21.9528 31.684 17.7753 31.684 12.6415C31.684 7.49639 27.4965 3.31036 22.3493 3.31036C17.2014 3.31036 13.0139 7.49639 13.0139 12.6415C13.0139 17.776 17.2014 21.9528 22.3493 21.9528ZM22.3493 6.16206C25.9246 6.16206 28.8337 9.06908 28.8337 12.6422C28.8337 16.204 25.9246 19.1018 22.3493 19.1018C18.7733 19.1018 15.8642 16.204 15.8642 12.6422C15.8642 9.06837 18.7733 6.16206 22.3493 6.16206Z" fill="#D2E5F1"/>
<path d="M41.0563 12.8947V7.99152H38.2053V12.8947H33.283V15.7464H38.2053V20.6695H41.0563V15.7464H45.9787V12.8947H41.0563Z" fill="#00D4FF"/>
<path d="M22.3494 24.3994C11.1405 24.3994 2.02148 33.5021 2.02148 44.6904H4.87247C4.87247 35.0741 12.7132 27.2511 22.3501 27.2511C31.9983 27.2511 39.8468 35.0741 39.8468 44.6904H42.6978C42.6964 33.5021 33.5689 24.3994 22.3494 24.3994Z" fill="#007BFF"/>
</svg>
