<?xml version="1.0" encoding="UTF-8"?>
<svg id="Layer_1" data-name="Layer 1" xmlns="http://www.w3.org/2000/svg" viewBox="0 0 177.72 172.61">
  <defs>
    <style>
      .cls-1 {
        fill: #fff;
      }

      .cls-1, .cls-2, .cls-3 {
        stroke-width: 0px;
      }

      .cls-2 {
        fill: aqua;
      }

      .cls-3 {
        fill: #0070ff;
      }
    </style>
  </defs>
  <path class="cls-3" d="m177.68,172.61h-100.29v-7.12h92.73c1.06-21.25-8.29-42.79-28.78-54.21-4.47,4.24-9.48,7.84-15.34,9.99-17.86,6.57-34.11,3.69-48.6-8.68-1.29-1.1-2.15-1.38-3.49-.31-1.56,1.25-3.28,2.31-4.87,3.53-1.53,1.18-2.98,2.45-4.48,3.7-1.68-1.62-3.37-3.23-5.18-4.98,5.31-5.19,11.28-9.07,17.73-12.56,1,1.05,1.95,2.06,2.9,3.04,15.8,16.29,40.72,16.47,56.76.4q3.5-3.5,7.78-.95c21.87,13,32.3,32.57,33.11,57.66.11,3.44.02,6.89.02,10.46Z"/>
  <path class="cls-3" d="m108.53,22.61c23.59-.09,42.84,19.13,42.88,42.8.04,23.67-19.04,42.84-42.74,42.96-23.5.12-42.91-19.23-42.95-42.81-.05-23.56,19.19-42.87,42.81-42.96Zm35.57,42.96c.04-19.6-15.76-35.54-35.36-35.66-19.46-.12-35.6,15.89-35.69,35.39-.09,19.62,15.97,35.79,35.54,35.78,19.56,0,35.47-15.91,35.52-35.51Z"/>
  <path class="cls-2" d="m33.63,97.39c9.67,9.25,19.16,18.31,28.6,27.43.42.41.64,1.39.48,1.97-1.5,5.24-1.53,5.23-7.05,5.23h-7.02c.59,14.38,5.95,25.85,17.97,34.01-.79,1.89-1.48,3.75-2.36,5.52-.22.44-1.08.94-1.52.85-18.72-4.05-33.74-12.98-41.26-31.64-.89-2.21-1.6-4.51-2.11-6.84-.34-1.55-1.04-1.98-2.52-1.93-2.78.09-5.56-.04-8.34.05-1.41.04-2.19-.32-2.75-1.76-1.79-4.62-1.86-4.58,1.74-8.01,8.1-7.73,16.19-15.46,24.29-23.19.55-.53,1.12-1.03,1.84-1.7Zm-17.53,26.8l.2.53c2.28,0,4.55.08,6.82-.03,1.55-.08,2.07.44,2.28,2.02,2.01,14.93,9.36,26.19,22.94,33.12.49.25,1.04.4,2.06.79-7.74-11.05-9.53-23.05-9.23-35.92h10.44c-6.35-6.07-12.16-11.63-18.03-17.24-5.96,5.7-11.72,11.21-17.48,16.72Z"/>
  <path class="cls-1" d="m87.48,19.47c-2.15,1.05-4.14,2.03-6.29,3.08-4-7.36-9.85-12.33-17.91-14.37-5.85-1.48-11.65-1.03-17.23,1.32-11.03,4.65-18.01,16.61-16.47,28.16.96,7.19,4.13,13.21,9.72,17.86,5.57,4.64,12.1,6.61,19.51,6.32.15,2.44.3,4.71.44,6.96-11.61,1.82-30.57-5.54-35.95-25.3C18.45,25.74,28.54,7.23,46.3,1.64c18.64-5.87,35.53,4.87,41.19,17.82Z"/>
  <path class="cls-1" d="m6.89,108.58c-2.39-.37-4.64-.71-6.89-1.06,1.45-16.56,12.2-35.6,30.68-44.23,8.29,9.9,18.8,14,31.96,11.37.6,2.24,1.18,4.43,1.87,7.01-13.46,2.92-25.11-.1-35.33-9.26-13.13,8.5-19.78,20.97-22.29,36.17Z"/>
</svg>