<?xml version="1.0" encoding="UTF-8"?>
<svg id="Layer_1" data-name="Layer 1" xmlns="http://www.w3.org/2000/svg" viewBox="0 0 172.49 172.61">
  <defs>
    <style>
      .cls-1 {
        fill: #fff;
      }

      .cls-1, .cls-2, .cls-3 {
        stroke-width: 0px;
      }

      .cls-2 {
        fill: aqua;
      }

      .cls-3 {
        fill: #0070ff;
      }
    </style>
  </defs>
  <path class="cls-3" d="m0,83.28c1.12-2.06,2.1-4.2,3.37-6.15,4.9-7.53,9.92-14.97,14.82-22.5,2.69-4.14,6.33-6.52,11.31-6.88,7.73-.56,15.45-1.24,23.17-1.77,1.28-.09,2-.68,2.76-1.56,9.71-11.35,20.71-21.21,33.68-28.71,13.59-7.86,28.33-12.3,43.83-14.37,9.1-1.22,18.22-1.73,27.39-1.01,6.31.5,11.59,5.63,11.92,11.95,2.03,38.98-9.34,72.84-38.43,99.85-1.48,1.38-2.85,2.93-4.52,4.03-2.24,1.49-2.74,3.49-2.89,5.96-.45,7.23-1.06,14.45-1.65,21.66-.35,4.24-2.34,7.6-5.85,9.95-8.68,5.8-17.39,11.55-26.13,17.27-1.05.69-2.31,1.08-3.47,1.6h-3.37c-.14-.09-.26-.22-.41-.27-4.11-1.15-6.44-3.85-7.07-8.06-.65-4.27-1.32-8.53-1.99-12.8-.41-2.63-.85-5.25-1.28-7.9-.58.05-.92.05-1.24.1-4.62.72-8.55-.69-11.81-3.93-9.79-9.74-19.54-19.52-29.3-29.28-2.39-2.39-3.79-5.28-4.07-8.64-.12-1.43-.02-2.88-.02-4.42-.13-.04-.38-.16-.65-.2-5.32-.83-10.65-1.56-15.95-2.5-2.67-.48-5.4-1.04-7.88-2.09C1.83,91.58.84,89.07,0,86.65,0,85.53,0,84.41,0,83.28ZM149.89,10.26c0-.08,0-.15,0-.23-3.64.26-7.29.43-10.91.78-13.91,1.34-27.37,4.56-39.8,11.03-22.77,11.85-39.56,29.73-51.55,52.28-.53,1-.17,1.48.48,2.12,16.09,16.07,32.18,32.15,48.23,48.25.82.82,1.38.91,2.42.38,12.01-6.15,22.55-14.26,31.98-23.85,12.66-12.87,22.02-27.69,26.92-45.2,3.79-13.52,5.3-27.29,4.7-41.3-.13-3.16-1.08-4.12-4.2-4.24-2.75-.11-5.5-.02-8.25-.02ZM42.8,85.67s-.15.12-.19.27c-1.25,4.77-2.57,9.52-3.64,14.33-.2.89.38,2.29,1.07,2.98,9.71,9.83,19.49,19.6,29.3,29.32.65.64,1.87,1.27,2.66,1.11,5.08-1.04,10.12-2.31,15.28-3.53-15.05-15.06-29.77-29.77-44.48-44.49Zm45.49,76.03c.3-.09.42-.1.51-.16,8.11-5.35,16.23-10.67,24.28-16.1.77-.52,1.37-1.65,1.57-2.6.36-1.69.37-3.45.51-5.19.28-3.62.54-7.24.81-10.86-.26,0-.4-.04-.48,0-.67.41-1.33.83-2,1.25-7.9,5.01-16.23,9.1-25.12,12.06-3.2,1.06-3.24,1.07-2.75,4.35.85,5.71,1.76,11.42,2.67,17.25ZM10.73,84.29c6.74,1.04,13.23,2.03,19.71,3.07,1.19.19,1.28-.59,1.5-1.32,3.04-9.88,7.55-19.07,13.14-27.74.31-.48.59-.97,1.02-1.7-5.67.45-10.99.79-16.29,1.36-1,.11-2.15.96-2.8,1.81-1.58,2.04-2.9,4.27-4.33,6.42-3.93,5.94-7.85,11.89-11.96,18.1Z"/>
  <path class="cls-2" d="m0,166.2c1.08-1.33,2.05-2.76,3.25-3.97,9.77-9.83,19.56-19.63,29.41-29.38.94-.93,2.29-1.69,3.57-1.97,2.02-.44,3.76.49,4.84,2.29,1.12,1.85,1.03,3.74-.18,5.54-.34.51-.79.95-1.22,1.38-10.03,10.04-20.06,20.08-30.12,30.09-.93.92-2.09,1.62-3.14,2.41h-2.7C2.04,171.81.79,170.58,0,168.9,0,168,0,167.1,0,166.2Z"/>
  <path class="cls-2" d="m0,136.54c.93-1.37,1.68-2.91,2.81-4.08,4.89-5.03,9.9-9.95,14.85-14.93,1.45-1.46,3.1-2.24,5.15-1.75,3.74.9,5.27,5.45,2.58,8.25-5.53,5.74-11.18,11.37-16.92,16.91-2.59,2.5-6.68,1.37-8.05-1.97-.15-.36-.29-.72-.43-1.08,0-.45,0-.9,0-1.35Z"/>
  <path class="cls-2" d="m34.72,172.61c-.3-.13-.61-.26-.92-.38-3.54-1.34-4.67-5.53-2.04-8.23,5.49-5.63,11.07-11.17,16.67-16.69,1.99-1.95,5.08-1.86,7.01.01,1.99,1.93,2.12,5.04.08,7.11-5.47,5.57-11,11.08-16.57,16.55-.76.75-1.91,1.09-2.89,1.62h-1.35Z"/>
  <path class="cls-1" d="m92.97,54.31c.03-13.96,11.38-25.26,25.32-25.22,13.93.05,25.28,11.46,25.23,25.36-.06,13.96-11.38,25.19-25.37,25.17-14-.03-25.2-11.29-25.17-25.31Zm10.12.01c-.02,8.39,6.63,15.12,14.99,15.18,8.43.06,15.28-6.67,15.33-15.07.04-8.34-6.86-15.25-15.21-15.23-8.33.02-15.08,6.77-15.1,15.11Z"/>
</svg>