<?xml version="1.0" encoding="UTF-8"?>
<svg id="Layer_1" data-name="Layer 1" xmlns="http://www.w3.org/2000/svg" viewBox="0 0 175.82 175.84">
  <defs>
    <style>
      .cls-1 {
        fill: #fff;
      }

      .cls-1, .cls-2, .cls-3 {
        stroke-width: 0px;
      }

      .cls-2 {
        fill: aqua;
      }

      .cls-3 {
        fill: #0070ff;
      }
    </style>
  </defs>
  <path class="cls-3" d="m48.51,155.99c.9,1.74,1.79,3.4,2.61,5.09,1.46,3.02.6,6.06-2.33,7.66-4.05,2.21-8.15,4.33-12.28,6.39-3.18,1.58-6.12.47-7.89-2.89-5.16-9.84-10.28-19.7-15.42-29.55-4.01-7.7-8.03-15.4-12.03-23.1-2.19-4.22-1.36-6.95,2.81-9.15,3.6-1.9,7.2-3.79,10.82-5.65,3.54-1.81,6.53-.84,8.4,2.67.8,1.5,1.57,3,2.43,4.65.55-.24,1.04-.42,1.5-.65,7.65-3.98,15.31-7.93,22.93-11.96,2.83-1.49,5.77-2.05,8.95-1.9,11.6.56,23.2,1.38,34.8,1.43,8.76.04,17.62,6.82,16.52,18.38.67-.33,1.25-.6,1.81-.89,13.35-6.96,26.69-13.94,40.06-20.87,9.47-4.91,20.17-.54,23,9.33,2.06,7.17-1.19,14.67-8.08,18.3-12.57,6.61-25.19,13.15-37.79,19.71-9.53,4.97-19.17,9.73-28.54,14.98-5.96,3.34-11.95,3.88-18.44,2.39-8.93-2.04-17.93-3.81-26.87-5.82-2.57-.58-4.79-.27-6.97,1.46Zm-2.15-4.1c5.68-2.4,6.09-2.49,10.56-1.54,8.61,1.83,17.23,3.59,25.79,5.6,5.81,1.37,11.06.9,16.47-2.07,12.76-7.02,25.78-13.56,38.7-20.29,9.1-4.74,18.21-9.46,27.28-14.25,4.61-2.43,7-7.26,6.13-11.97-1.47-7.87-9.56-11.72-16.85-7.94-15.25,7.9-30.47,15.86-45.69,23.83-.72.38-1.37.98-1.92,1.6-2.53,2.9-5.59,4.96-9.43,5.39-2.63.29-5.33.15-7.99.06-6.56-.23-13.12-.54-19.67-.81-1.88-.08-2.94-.92-2.88-2.3.06-1.39,1.11-2.11,3.06-2.07,1.28.03,2.55.11,3.82.16,6.8.3,13.6.68,20.4.87,6.61.19,11.81-4.78,11.92-11.17.11-6.18-4.81-11.16-11.29-11.44-11.96-.52-23.92-1.02-35.88-1.58-2.5-.12-4.79.34-7.01,1.51-7.51,3.97-15.07,7.86-22.6,11.79-.51.27-1,.59-1.53.91,6.24,11.96,12.41,23.8,18.62,35.71Zm-28.16-43.75c-.61.22-.9.3-1.17.43-3.88,2.01-7.75,4.03-11.63,6.03-1.24.64-1.11,1.51-.55,2.58,9.21,17.64,18.41,35.28,27.58,52.93.69,1.33,1.47,1.52,2.77.82,3.47-1.87,6.99-3.65,10.48-5.48,2.06-1.08,2.12-1.3,1.06-3.34-4.51-8.66-9.02-17.32-13.53-25.99-4.57-8.77-9.13-17.54-13.72-26.3-.33-.64-.88-1.16-1.29-1.7Z"/>
  <path class="cls-2" d="m102.49,86.57c-7.96,0-15.93.01-23.89,0-6.15-.01-9.75-3.61-9.77-9.72-.05-17.67,11.6-31.47,29.02-34.36,17.74-2.94,35.83,10.44,38.18,28.26.27,2.04.38,4.12.39,6.18.03,5.97-3.65,9.62-9.67,9.64-8.09.02-16.17,0-24.26,0Zm.15-4.38c8.08,0,16.17.02,24.25,0,3.42-.01,5.17-1.77,5.14-5.19-.02-1.88-.11-3.77-.36-5.63-2.1-15.57-17.86-27.14-33.35-24.53-15.03,2.53-25.17,14.58-25.13,29.84.01,3.9,1.62,5.51,5.56,5.52,7.96.01,15.93,0,23.89,0Z"/>
  <path class="cls-2" d="m102.54,0c9.71-.03,17.66,7.84,17.74,17.55.07,9.62-7.9,17.67-17.58,17.74-9.64.07-17.68-7.92-17.71-17.58C84.95,8.01,92.86.03,102.54,0Zm-13.18,17.67c.01,7.25,6,13.24,13.25,13.25,7.22.01,13.25-5.99,13.29-13.23.04-7.31-6.01-13.34-13.36-13.31-7.26.03-13.19,6.01-13.18,13.29Z"/>
  <path class="cls-1" d="m156.59,22.97c-.8.79-1.3,1.58-2.02,1.95-1.78.91-3.62,1.71-5.49,2.42-1.23.46-2.01,1.17-2.47,2.42-.67,1.82-1.39,3.64-2.34,5.32-.44.77-1.47,1.69-2.22,1.67-.75-.01-1.97-.97-2.16-1.72-1.39-5.36-4.72-8.57-10.03-10.02-.76-.21-1.71-1.42-1.71-2.17,0-.75,1.02-1.55,1.7-2.23.32-.32.86-.46,1.32-.58,4.28-1.1,6.97-3.72,8.12-8.04.37-1.38.76-3.17,2.73-3.2,2.1-.04,2.47,1.84,2.88,3.26,1.21,4.18,3.71,6.9,7.99,7.93.7.17,1.43.46,1.97.9.61.49,1.02,1.21,1.72,2.08Zm-14.52-6.36c-.84,3.35-2.89,5.32-6.23,6.3,3.56.63,5.23,2.98,6.3,6.12.74-3.44,2.95-5.24,6.18-6.3-3.58-.64-5.27-2.93-6.25-6.13Z"/>
  <path class="cls-1" d="m57,37.2c.9.89,1.71,1.38,2.07,2.1,1.2,2.37,1.73,5.34,3.49,7.11,1.71,1.72,4.67,2.17,6.98,3.37.68.35,1.48,1.37,1.43,2.02-.06.76-.83,1.74-1.56,2.14-1.86,1.01-3.91,1.67-5.79,2.65-.78.4-1.51,1.16-1.92,1.94-.95,1.83-1.59,3.82-2.56,5.63-.4.75-1.39,1.7-2.05,1.66-.8-.05-2.02-.92-2.23-1.67-1.49-5.33-4.7-8.76-10.13-10.17-.73-.19-1.59-1.42-1.64-2.21-.04-.68.88-1.86,1.59-2.06,5.44-1.48,8.82-4.81,10.22-10.29.19-.75,1.21-1.3,2.1-2.2Zm.01,20.79c.83-3.3,2.89-5.19,6.12-6.18-3.29-.94-5.28-2.91-6.11-6.25-.86,3.31-2.84,5.37-6.17,6.28,3.35.89,5.25,2.88,6.15,6.15Z"/>
</svg>