<?xml version="1.0" encoding="UTF-8"?>
<svg id="Layer_1" data-name="Layer 1" xmlns="http://www.w3.org/2000/svg" viewBox="0 0 161.78 192.54">
  <defs>
    <style>
      .cls-1 {
        fill: #fff;
      }

      .cls-1, .cls-2, .cls-3 {
        stroke-width: 0px;
      }

      .cls-2 {
        fill: aqua;
      }

      .cls-3 {
        fill: #0070ff;
      }
    </style>
  </defs>
  <path class="cls-3" d="m101.56,0c5.68,3.89,11.38,7.75,17.03,11.68,13.41,9.35,26.78,18.75,40.17,28.13,3.55,2.48,3.91,4.46,1.44,7.99-2.62,3.75-5.24,7.5-7.87,11.23-1.31,1.86-2.8,2.31-4.27,1.35-1.52-.99-1.66-2.66-.33-4.58,2.57-3.7,5.16-7.39,7.88-11.3-18.24-12.77-36.41-25.5-54.75-38.35-13.11,18.72-26.14,37.32-39.34,56.18.76.07,1.27.15,1.78.15,4.89.01,9.78-.04,14.66.03,1.3.02,1.94-.36,2.5-1.61,3.69-8.29,9.47-14.53,18.13-17.77,3.98-1.49,8.05-1.81,12.15-.46,6.98,2.3,11.2,9.09,10.92,17.49-.02.68,0,1.36,0,2.32.67,0,1.32,0,1.98,0,4.2,0,8.4-.05,12.6.01,8.13.12,14.09,6.09,14.16,14.21.06,6.83.04,13.66-.01,20.49-.01,1.31.34,1.89,1.65,2.4,5.73,2.21,9.02,6.47,9.37,12.63.25,4.37.24,8.78.02,13.15-.33,6.33-3.72,10.63-9.58,12.89-1.18.46-1.46.99-1.45,2.15.05,6.71.04,13.41.02,20.12-.02,8.81-5.93,14.69-14.77,14.72-6.52.02-13.03,0-19.55,0-.25,0-.5,0-.75,0-1.99-.07-3.27-1.22-3.22-2.9.05-1.61,1.28-2.72,3.19-2.73,5.01-.03,10.04-.21,15.04.03,12.58.6,15.01-2.53,14.47-14.57-.21-4.63-.03-9.27-.03-13.91v-2.03c-5.56,0-10.93.04-16.3-.02-2.56-.03-5.16,0-7.67-.39-9.46-1.49-16.79-10.56-16.51-20.19.29-10,7.77-18.75,17.4-19.57,6.79-.57,13.64-.28,20.47-.37.8-.01,1.6,0,2.62,0,0-1.67,0-3.15,0-4.64,0-5.45,0-10.9,0-16.36,0-6.13-3.29-9.46-9.37-9.46-40.11,0-80.22,0-120.32,0-6.11,0-9.41,3.31-9.41,9.4,0,27.64,0,55.27,0,82.91,0,5.85,3.34,9.15,9.24,9.16,6.52.01,13.04-.01,19.55.01,2.49,0,4.1,1.95,3.03,3.84-.48.85-1.82,1.69-2.78,1.71-7.2.13-14.42.2-21.62.01-7.12-.19-12.92-6.3-13.04-13.52-.09-5.51-.03-11.03-.03-16.54,0-22.56.03-45.12-.02-67.68-.01-5.52,2.05-9.8,6.65-12.91.55-.37.9-1.42.91-2.16.06-8.21.04-16.42.04-24.63,0-.5-.02-1,0-1.5.11-1.87,1.26-3.11,2.86-3.1,1.6.01,2.75,1.25,2.76,3.15.02,8.15.01,16.29.01,24.44,0,.49,0,.98,0,1.61h8.07V10.67h-8.07c0,2.09,0,4.19,0,6.3,0,2.44.02,4.89-.01,7.33-.03,1.95-1.06,3.13-2.71,3.17-1.72.04-2.89-1.16-2.91-3.19-.04-4.89-.05-9.78,0-14.66.04-3.06,1.85-4.7,5.1-4.7,10.78-.01,21.56,0,32.34,0,11.09,0,22.18,0,33.28,0,4.1,0,5.58,1.46,5.58,5.51,0,3.13,0,6.26,0,9.88.62-.78,1-1.21,1.33-1.67,3.6-5.13,7.14-10.29,10.81-15.37C96.93,2.02,98.21,1.07,99.3,0c.75,0,1.5,0,2.26,0Zm-60.87,62.49c4.11,0,8.05-.06,11.99.03,1.34.03,2.15-.4,2.91-1.5,6.31-9.11,12.54-18.29,19.12-27.21,2.62-3.56,4.03-7.08,3.63-11.53-.34-3.83-.07-7.72-.07-11.63h-37.58v51.83Zm94.85,71.01c3.76,0,7.52.02,11.27,0,5.1-.04,8.84-3.55,9.01-8.63.14-4,.14-8.02,0-12.02-.17-4.83-3.66-8.43-8.52-8.54-7.76-.16-15.54-.24-23.29.03-8.16.28-14.33,7.03-14.08,14.88.25,8.07,6.68,14.24,14.91,14.29,3.57.02,7.14,0,10.71,0ZM34.88,10.66h-7.67v51.66h7.67V10.66Zm50.88,51.69h30.06c0-1.94.2-3.77-.04-5.54-.83-6.33-5.85-10.09-12.11-9.15-6.2.94-10.73,4.55-14.44,9.33-1.24,1.6-2.21,3.39-3.48,5.36Z"/>
  <path class="cls-2" d="m109.27,158.38c.08,18.66-15.15,34.05-33.8,34.16-18.88.11-34.3-15.14-34.37-33.98-.07-18.74,15.23-34.09,34.01-34.13,18.84-.03,34.08,15.11,34.16,33.95Zm-5.64.12c.05-15.6-12.63-28.37-28.26-28.43-15.74-.06-28.54,12.58-28.63,28.27-.09,15.63,12.73,28.54,28.37,28.56,15.71.03,28.46-12.68,28.51-28.4Z"/>
  <path class="cls-1" d="m146.89,50.29c-.33.78-.49,1.39-.83,1.89-1.26,1.86-2.53,3.72-3.87,5.52-1.12,1.5-2.8,1.78-4.09.81-1.26-.95-1.46-2.46-.52-4,.2-.32.4-.64.64-.92,1.41-1.62,2.26-3.18.91-5.43-.6-.99-.43-2.56-.29-3.84.11-1.04-.15-1.61-.99-2.13-1.01-.62-1.99-1.3-2.92-2.04-1.26-1-1.53-2.61-.72-3.83.88-1.33,2.46-1.7,3.94-.74,2.09,1.36,4.14,2.8,6.14,4.3,1.41,1.05,1.65,2.44.7,3.96-1.02,1.62-.82,3.01.59,4.34.59.56.9,1.4,1.33,2.1Z"/>
  <path class="cls-1" d="m92.12,25.33c.45-.99.66-1.65,1.03-2.2,1.18-1.77,2.42-3.5,3.63-5.24,1.06-1.52,2.44-1.87,4.08-1.02,1.72.89,3.06.54,4.28-.96,1.21-1.49,2.48-1.63,4.12-.54,1.93,1.28,3.83,2.6,5.7,3.97,1.53,1.12,1.87,2.74.95,4.07-.92,1.33-2.56,1.55-4.16.56-.21-.13-.42-.27-.61-.43-1.82-1.55-3.6-2.72-6.05-.98-.71.51-1.98.55-2.91.38-1.67-.31-2.54.41-3.28,1.73-.46.81-.93,1.78-1.67,2.22-.87.52-2.15.94-3.03.67-.85-.27-1.41-1.46-2.08-2.23Z"/>
  <path class="cls-1" d="m125.84,129.35c-5.18,0-9.36-3.14-10.63-7.56-1.26-4.42.51-9.14,4.37-11.65,3.9-2.54,9.05-2.17,12.55.88,1.59,1.39,1.92,3.13.84,4.43-1.12,1.34-2.67,1.32-4.46-.07-2.3-1.78-4.93-1.68-6.75.27-1.71,1.84-1.73,4.61-.04,6.48,1.78,1.97,4.37,2.11,6.75.36,1.81-1.33,3.37-1.28,4.43.14,1.05,1.41.69,2.98-1.04,4.38-1.92,1.55-4.12,2.31-6.03,2.36Z"/>
  <path class="cls-2" d="m78.68,172.09c-.35,4.02-.98,5.1-2.92,5.13-1.89.03-2.46-.89-3.05-5.15-1.24,0-2.53.03-3.82,0-2.04-.06-3.3-1.16-3.3-2.82,0-1.66,1.25-2.76,3.31-2.8,2.69-.05,5.38,0,8.07-.03,2.08-.03,3.2-1,3.16-2.63-.04-1.57-1.13-2.45-3.11-2.48-1.31-.02-2.63,0-3.94,0-4.48-.06-8.03-3.13-8.41-7.25-.42-4.57,2.25-8.1,6.85-9.07.42-.09.84-.18,1.24-.26.53-4.08,1.09-5.03,2.94-5.04,1.88-.01,2.55,1.1,3.04,5.16,1.01,0,2.06-.05,3.1.01,1.87.12,3.01,1.32,2.92,2.98-.08,1.6-1.18,2.6-3.04,2.63-2.75.04-5.51-.01-8.26.02-2.1.02-3.2.96-3.18,2.62.02,1.66,1.11,2.53,3.23,2.55,1.25.02,2.5,0,3.76,0,4.45.06,7.89,2.91,8.45,6.99.59,4.33-1.96,7.99-6.44,9.22-.17.05-.34.12-.6.21Z"/>
</svg>