<svg width="84" height="84" viewBox="0 0 84 84" fill="none" xmlns="http://www.w3.org/2000/svg">
<path d="M32 11H81V16H32V11Z" fill="#D2E5F1"/>
<path d="M32 39H81V44H32V39Z" fill="#D2E5F1"/>
<path d="M23 14C23 18.9706 18.9706 23 14 23C9.02944 23 5 18.9706 5 14C5 9.02944 9.02944 5 14 5C18.9706 5 23 9.02944 23 14ZM7.588 14C7.588 17.5412 10.4588 20.412 14 20.412C17.5412 20.412 20.412 17.5412 20.412 14C20.412 10.4588 17.5412 7.588 14 7.588C10.4588 7.588 7.588 10.4588 7.588 14Z" fill="#007BFF"/>
<path d="M23 42C23 46.9706 18.9706 51 14 51C9.02944 51 5 46.9706 5 42C5 37.0294 9.02944 33 14 33C18.9706 33 23 37.0294 23 42ZM7.588 42C7.588 45.5412 10.4588 48.412 14 48.412C17.5412 48.412 20.412 45.5412 20.412 42C20.412 38.4588 17.5412 35.588 14 35.588C10.4588 35.588 7.588 38.4588 7.588 42Z" fill="#00D4FF"/>
<path d="M32 67H81V72H32V67Z" fill="#D2E5F1"/>
<path d="M23 70C23 74.9706 18.9706 79 14 79C9.02944 79 5 74.9706 5 70C5 65.0294 9.02944 61 14 61C18.9706 61 23 65.0294 23 70ZM7.588 70C7.588 73.5412 10.4588 76.412 14 76.412C17.5412 76.412 20.412 73.5412 20.412 70C20.412 66.4588 17.5412 63.588 14 63.588C10.4588 63.588 7.588 66.4588 7.588 70Z" fill="#00FFFF"/>
</svg>
