<svg width="84" height="84" viewBox="0 0 84 84" fill="none" xmlns="http://www.w3.org/2000/svg">
<path d="M23.875 40.1875V61.9375C23.875 62.9343 23.0594 63.7499 22.0625 63.7499H14.8125C13.8156 63.7499 13 62.9343 13 61.9375V40.1875C13 39.1906 13.8156 38.375 14.8125 38.375H22.0625C23.0594 38.375 23.875 39.1906 23.875 40.1875Z" fill="#00D4FF"/>
<path d="M47.4372 22.0623V43.8122C47.4372 44.8091 46.6216 45.6247 45.6247 45.6247H38.3748C37.3779 45.6247 36.5623 44.8091 36.5623 43.8122V22.0623C36.5623 21.0654 37.3779 20.2498 38.3748 20.2498H45.6247C46.6216 20.2498 47.4372 21.0654 47.4372 22.0623Z" fill="#00FFFF"/>
<path d="M70.9995 32.9373V54.6872C70.9995 55.6841 70.1839 56.4997 69.187 56.4997H61.937C60.9401 56.4997 60.1245 55.6841 60.1245 54.6872V32.9373C60.1245 31.9404 60.9401 31.1248 61.937 31.1248H69.187C70.1839 31.1248 70.9995 31.9404 70.9995 32.9373Z" fill="#007BFF"/>
<path d="M43.8127 9.375V16.625H40.1877V9.375C40.1877 8.37812 41.0034 7.5625 42.0002 7.5625C42.9971 7.5625 43.8127 8.37812 43.8127 9.375Z" fill="#D2E5F1"/>
<path d="M20.2505 9.375V34.7499H16.6255V9.375C16.6255 8.37812 17.4411 7.5625 18.438 7.5625C19.4349 7.5625 20.2505 8.37812 20.2505 9.375Z" fill="#D2E5F1"/>
<path d="M67.375 9.375V27.5H63.75V9.375C63.75 8.37812 64.5656 7.5625 65.5625 7.5625C66.5594 7.5625 67.375 8.37812 67.375 9.375Z" fill="#D2E5F1"/>
<path d="M16.6255 67.3748H20.2505V74.6247C20.2505 75.6216 19.4349 76.4372 18.438 76.4372C17.4411 76.4372 16.6255 75.6216 16.6255 74.6247V67.3748Z" fill="#D2E5F1"/>
<path d="M40.1877 49.25H43.8127V74.6249C43.8127 75.6218 42.9971 76.4374 42.0002 76.4374C41.0034 76.4374 40.1877 75.6218 40.1877 74.6249V49.25Z" fill="#D2E5F1"/>
<path d="M67.375 60.125V74.625C67.375 75.6218 66.5594 76.4375 65.5625 76.4375C64.5656 76.4375 63.75 75.6218 63.75 74.625V60.125H67.375Z" fill="#D2E5F1"/>
</svg>
