<?xml version="1.0" encoding="UTF-8"?>
<svg id="Layer_1" data-name="Layer 1" xmlns="http://www.w3.org/2000/svg" viewBox="0 0 95.14 95.78">
  <defs>
    <style>
      .cls-1 {
        fill: #03ffff;
      }

      .cls-1, .cls-2, .cls-3 {
        stroke-width: 0px;
      }

      .cls-2 {
        fill: #057bff;
      }

      .cls-3 {
        fill: #fff;
      }
    </style>
  </defs>
  <g id="_253BIO.tif" data-name="253BIO.tif">
    <g>
      <path class="cls-2" d="m58.73,0c1.56.42,3.17.7,4.66,1.28,6.65,2.6,11.01,8.92,11.05,16.07.06,8.35.02,16.7.01,25.04,0,2.29-1.35,3.69-3.5,3.71-2.21.02-3.58-1.39-3.58-3.74-.01-8.2.02-16.4-.01-24.6-.02-5.09-3.15-9.15-7.92-10.32-.96-.23-1.97-.34-2.96-.34-12.82-.02-25.63-.02-38.45-.01-6.48,0-10.94,4.46-10.94,10.94-.01,16.36-.01,32.73,0,49.09,0,6.4,4.48,10.87,10.88,10.89,6.94.02,13.89,0,20.83,0,2.27,0,3.66,1.27,3.74,3.35.08,2.19-1.28,3.72-3.47,3.72-7.42.02-14.85.13-22.27-.04-8.38-.18-15.38-6.62-16.6-14.95-.04-.25-.14-.49-.21-.73,0-17.88,0-35.76,0-53.63.07-.24.16-.48.21-.73C1.34,8.46,4.93,3.83,11.08,1.29,12.56.69,14.18.42,15.74,0c14.33,0,28.66,0,43,0Z"/>
      <path class="cls-1" d="m85.32,46.73c3.54.17,7.04,1.66,8.75,5.57,1.82,4.15,1.39,8.28-1.81,11.75-2.48,2.68-5.13,5.2-7.72,7.79-4.85,4.86-9.76,9.66-14.54,14.59-2.38,2.45-5.09,4.14-8.35,5.15-3.94,1.22-7.8,2.68-11.68,4.07-1.96.7-4.17-1.24-4-3.58.04-.54.19-1.09.37-1.61,1.53-4.54,3-9.1,4.65-13.59.45-1.24,1.27-2.45,2.21-3.38,7.97-7.95,16-15.84,24.02-23.74,2.08-2.05,4.62-2.97,8.1-3Zm-29.99,39.44c2.32-.73,4.39-1.36,6.45-2.05.64-.21,1.35-.48,1.81-.93,7.8-7.75,15.57-15.53,23.34-23.31,1.46-1.46,1.41-4.15-.05-5.61-1.5-1.51-3.53-1.43-5.18.22-7.73,7.72-15.45,15.44-23.17,23.17-.36.36-.75.77-.9,1.23-.78,2.33-1.49,4.69-2.3,7.28Z"/>
      <path class="cls-3" d="m37.12,28.37c-5.24,0-10.49.01-15.73,0-2.31,0-3.71-1.43-3.66-3.65.04-1.97,1.35-3.34,3.33-3.42,1.18-.05,2.36-.01,3.54-.01,9.45,0,18.9,0,28.36,0,2.83,0,4.45,2.23,3.56,4.85-.49,1.44-1.68,2.23-3.45,2.24-5.32.01-10.63,0-15.95,0Z"/>
      <path class="cls-3" d="m37.12,46.1c-5.24,0-10.49.01-15.73,0-2.31,0-3.71-1.43-3.66-3.65.04-1.97,1.35-3.34,3.33-3.42,1.18-.05,2.36-.01,3.54-.01,9.45,0,18.9,0,28.36,0,2.83,0,4.45,2.23,3.56,4.85-.49,1.44-1.68,2.23-3.45,2.24-5.32.01-10.63,0-15.95,0Z"/>
      <path class="cls-3" d="m32.01,56.74c3.43,0,6.87,0,10.3,0,2.37,0,3.78,1.33,3.79,3.53,0,2.2-1.4,3.55-3.76,3.56-6.94.01-13.88,0-20.82,0-2.37,0-3.78-1.33-3.78-3.53,0-2.2,1.4-3.55,3.76-3.56,3.51-.01,7.01,0,10.52,0Z"/>
    </g>
  </g>
</svg>