<svg width="18" height="18" viewBox="0 0 18 18" fill="none" xmlns="http://www.w3.org/2000/svg">
<path fill-rule="evenodd" clip-rule="evenodd" d="M4.87853 3.39019L2.5005 8.38525C2.49145 8.40383 2.48858 8.42481 2.49232 8.44514C2.49605 8.46546 2.50619 8.48406 2.52125 8.49821L8.94373 14.6525C8.96198 14.67 8.98628 14.6798 9.01155 14.6798C9.03683 14.6798 9.06113 14.67 9.07937 14.6525L15.5019 8.4986C15.5169 8.48445 15.5271 8.46585 15.5308 8.44552C15.5345 8.4252 15.5317 8.40421 15.5226 8.38563L13.1446 3.39058C13.1369 3.3738 13.1246 3.35959 13.109 3.34964C13.0935 3.3397 13.0754 3.33443 13.057 3.33448H4.9669C4.94837 3.33425 4.93016 3.33939 4.91448 3.34927C4.8988 3.35916 4.88631 3.37337 4.87853 3.39019Z" fill="#50AF95"/>
<path fill-rule="evenodd" clip-rule="evenodd" d="M9.83671 8.89807C9.79061 8.90153 9.55238 8.91575 9.02098 8.91575C8.59833 8.91575 8.29824 8.90307 8.19296 8.89807C6.55958 8.82622 5.3404 8.54188 5.3404 8.20145C5.3404 7.86102 6.55958 7.57707 8.19296 7.50407V8.61489C8.29977 8.62257 8.60563 8.64063 9.02828 8.64063C9.53547 8.64063 9.78945 8.6195 9.83518 8.61527V7.50483C11.4651 7.57746 12.6816 7.86179 12.6816 8.20145C12.6816 8.54112 11.4655 8.82545 9.83518 8.89769L9.83671 8.89807ZM9.83671 7.38995V6.39593H12.1114V4.88013H5.91829V6.39593H8.19257V7.38956C6.34402 7.47448 4.95386 7.84066 4.95386 8.27945C4.95386 8.71825 6.34402 9.08404 8.19257 9.16934V12.3546H9.83633V9.16819C11.6807 9.08327 13.0685 8.71748 13.0685 8.27907C13.0685 7.84066 11.6818 7.47486 9.83633 7.38956L9.83671 7.38995Z" fill="white"/>
</svg>
