<?xml version="1.0" encoding="UTF-8"?>
<svg id="Layer_1" data-name="Layer 1" xmlns="http://www.w3.org/2000/svg" viewBox="0 0 586.16 538.16">
  <defs>
    <style>
      .cls-1 {
        fill: #fff;
      }

      .cls-1, .cls-2, .cls-3, .cls-4 {
        stroke-width: 0px;
      }

      .cls-2 {
        fill: #00ceff;
      }

      .cls-3 {
        fill: aqua;
      }

      .cls-4 {
        fill: #0070ff;
      }
    </style>
  </defs>
  <path class="cls-1" d="m309.56,208.96c-43.11-59.1-27.19-134.5,20.71-174.38,47.77-39.76,116.07-39.79,164.18.03,47.35,39.19,64.2,114.67,21.1,173.85,7.77,4.49,15.88,8.56,23.32,13.62,12.54,8.52,18.77,20.06,18.65,35.97-.48,65.01-.33,130.03-.1,195.05.04,12.58-4.77,22.32-14.05,30.22-11.86,10.1-25.79,16.31-40.58,20.44-62.78,17.53-125.5,17.67-187.71-2.51-11.48-3.72-22.05-10.25-33.52-15.71-5.65,5.09-12.04,11.5-19.07,17.08-85.48,67.82-214.71,17.34-231.79-90.49-6.09-38.46,1.29-74.07,22.66-106.76,32.83-50.22,65.55-100.51,98.33-150.75,11.83-18.13,31.9-18.25,43.71-.19,22.64,34.61,45.2,69.28,67.79,103.92,1.04,1.59,2.14,3.15,3.99,5.11-3.79-32.46,19.2-43.58,42.37-54.51Zm-42.15,169.8c0-26.11.07-52.22-.1-78.32-.02-2.64-.84-5.66-2.27-7.86-27.81-42.88-55.75-85.68-83.69-128.47-5.04-7.72-10.42-7.73-15.46,0-32.98,50.53-65.92,101.08-98.89,151.61-18.16,27.82-25.2,58.44-19.81,90.99,8.57,51.84,38.21,87.67,88.32,103.44,49.96,15.73,94.12,2.88,131.2-34.16,3.22-3.22,4.4-6.03,2.3-10.61-1.48-3.22-1.52-7.27-1.54-10.95-.12-25.22-.06-50.44-.06-75.66Zm272.76,38.98c-13.01,9.11-26.36,14.8-40.44,18.73-49.96,13.98-100.47,15.07-151.29,5.65-21.19-3.93-41.73-9.95-60.11-21.81-1.09-.71-2.26-1.29-3.87-2.2,0,11.01.72,21.37-.19,31.57-1.04,11.63,4.41,18.91,13.38,24.61,3.43,2.18,7.01,4.19,10.69,5.91,22.32,10.41,46.1,14.97,70.4,17.35,38.85,3.81,77.28,1.73,115.01-8.87,13.02-3.66,25.61-8.47,36.55-16.72,4.75-3.59,9.49-7.75,9.72-14.01.48-13.05.14-26.13.14-40.21Zm-255.7-67.4c0,11.48.39,22.69-.13,33.84-.38,8.2,2.78,14.42,9.14,18.66,6.89,4.59,14.14,8.92,21.76,12.08,20.47,8.5,42.1,12.35,64.09,14.46,38.88,3.73,77.29,1.57,115-9.06,12.84-3.62,25.51-8.11,35.88-16.77,4.13-3.45,8.98-8.6,9.46-13.38,1.3-13.11.45-26.43.45-39.58-8.47,4.2-16.43,8.83-24.89,12.22-26.12,10.5-53.58,15-81.53,16.29-51.79,2.41-102.41-1.7-149.23-28.77Zm0-68.99c0,11.52.57,22.14-.16,32.68-.74,10.61,3.63,18.32,12.32,22.89,11.07,5.82,22.44,11.76,34.39,15.09,50.91,14.22,102.3,14.38,153.74,2.6,15.97-3.66,31.63-8.6,44.78-18.77,4.38-3.39,9.54-8.7,10.05-13.58,1.39-13.23.48-26.69.48-38.77-13.35,5.5-26.34,12.2-40.11,16.28-45.31,13.41-91.56,14.91-138.13,8.18-27-3.9-53.26-10.38-77.36-26.61Zm127.38-37.87c61.11.23,111.13-49.34,111.36-110.35.23-61.13-49.32-111.14-110.33-111.36-61.13-.22-111.14,49.34-111.35,110.34-.21,61.13,49.33,111.14,110.33,111.37Zm4.18,51.23c28.04-.75,53.37-3.49,78.06-10.74,13.15-3.86,25.97-8.59,36.9-17.18,12.22-9.61,12.52-19.96.05-29.13-7.05-5.18-15.42-8.57-23.13-12.88-3.45-1.93-5.79-1.2-8.76,1.53-23.65,21.79-51.65,33.43-83.81,34.12-34.78.75-64.93-11.18-90.61-34.63-1.29-1.18-4.04-2.37-5.24-1.78-9.01,4.45-18.46,8.45-26.51,14.31-11.63,8.46-11.53,18.8-.03,27.55,6.82,5.19,14.62,9.5,22.59,12.69,33.01,13.21,67.75,16.08,100.49,16.15Z"/>
  <path class="cls-4" d="m62.99,388.67h16.65c.76,25.54,9.52,47.81,27.63,65.93,18.12,18.13,40.31,27.09,66.08,27.78v16.11c-49.21,3.66-110.51-40.96-110.36-109.82Z"/>
  <path class="cls-4" d="m68.11,351.56c6.02,2.02,10.99,3.7,16.14,5.43-1.25,5.34-2.41,10.27-3.65,15.59-5.6-.86-10.94-1.68-16.82-2.58,1.46-6.2,2.82-11.97,4.34-18.43Z"/>
  <path class="cls-2" d="m318.58,132.18c.16-51.67,42.51-93.56,94.36-93.35,51.63.21,93.49,42.64,93.22,94.5-.27,51.4-42.53,93.21-94.09,93.1-51.67-.11-93.64-42.43-93.48-94.25Zm17.05.05c-.13,42.23,34.07,76.9,76.08,77.13,42.48.23,77.25-34.07,77.39-76.36.14-42.23-34.06-76.89-76.09-77.12-42.51-.23-77.25,34.04-77.38,76.35Z"/>
  <path class="cls-3" d="m403.84,73.06h17.05c0,4.72.14,9.43-.05,14.13-.12,2.94.64,4.62,3.55,6.14,8.51,4.44,12.83,11.84,13.58,21.84h-16.64c-.42-.99-.84-2.32-1.53-3.5-2.23-3.84-5.59-5.47-9.88-4.14-3.99,1.24-6.2,4.22-5.98,8.43.23,4.45,2.9,7.13,7.22,8.01,2.42.49,4.96.44,7.35,1.03,10.23,2.52,17.63,10.76,19.21,21.14,1.49,9.81-3.24,20.31-12.35,25.17-3.87,2.06-4.78,4.41-4.54,8.27.25,4.03.06,8.09.06,12.45h-17.05c0-4.53-.13-9.24.05-13.94.11-2.93-.61-4.65-3.53-6.16-8.52-4.43-12.85-11.82-13.6-21.82h16.64c.42.99.84,2.32,1.53,3.5,2.23,3.83,5.59,5.48,9.88,4.14,3.99-1.24,6.2-4.23,5.98-8.44-.23-4.44-2.9-7.14-7.23-8-2.42-.48-4.96-.44-7.35-1.03-10.2-2.51-17.66-10.81-19.21-21.15-1.48-9.86,3.24-20.31,12.37-25.15,3.88-2.06,4.76-4.43,4.52-8.28-.25-4.03-.06-8.09-.06-12.63Z"/>
</svg>