<?xml version="1.0" encoding="UTF-8"?>
<svg id="Layer_1" data-name="Layer 1" xmlns="http://www.w3.org/2000/svg" viewBox="0 0 78.44 90.36">
  <defs>
    <style>
      .cls-1 {
        fill: #03ffff;
      }

      .cls-1, .cls-2, .cls-3 {
        stroke-width: 0px;
      }

      .cls-2 {
        fill: #057bff;
      }

      .cls-3 {
        fill: #fff;
      }
    </style>
  </defs>
  <g id="hiLBIS.tif">
    <g>
      <path class="cls-2" d="m12.74,40.58c1.99,0,2.35.37,2.35,2.39,0,12.37,0,24.74,0,37.1,0,2.58-.17,2.75-2.77,2.75-1.07,0-2.15,0-3.28,0,0,2.11.02,4.05,0,5.99-.01.94-.62,1.54-1.46,1.56-.82.02-1.49-.59-1.53-1.5-.05-1.12-.02-2.24-.02-3.36,0-.87,0-1.74,0-2.69-1.33,0-2.53,0-3.74,0-1.89,0-2.29-.4-2.29-2.26,0-12.57,0-25.15,0-37.72,0-.18,0-.35,0-.53.04-1.11.58-1.68,1.7-1.71,1.03-.03,2.06,0,3.09,0,.4,0,.79,0,1.15,0,.05-.21.07-.27.07-.33,0-2.18,0-4.36.01-6.54,0-.32,0-.65.07-.96.16-.75.82-1.24,1.53-1.21.76.04,1.38.62,1.41,1.43.04,1.18.02,2.36.02,3.53,0,1.32,0,2.64,0,4.07,1.29,0,2.49,0,3.69,0Zm-.74,39.17c0-12.03,0-24.03,0-36.08-2.98,0-5.94,0-8.94,0,0,12.03,0,24,0,36.08,3.01,0,5.94,0,8.94,0Z"/>
      <path class="cls-2" d="m65.3,51.15c-1.47,0-1.96-.48-1.96-1.96,0-12.75,0-25.5,0-38.24,0-1.56.49-2.03,2.09-2.03,1.29,0,2.57,0,3.95,0,0-.42,0-.73,0-1.05,0-2.06-.03-4.12.02-6.18.01-.48.2-1.13.54-1.39.37-.28,1.05-.35,1.53-.24.71.17.93.83.94,1.53,0,2.12,0,4.24,0,6.36,0,.31,0,.62,0,.97,1.47,0,2.79,0,4.12,0,1.35,0,1.91.55,1.91,1.86,0,12.84,0,25.67,0,38.51,0,1.33-.54,1.86-1.88,1.87-1.35,0-2.69,0-4.14,0,0,.41,0,.72,0,1.04,0,1.65.02,3.3-.01,4.95-.02.95-.73,1.6-1.57,1.57-.82-.04-1.39-.66-1.44-1.59-.02-.35,0-.71,0-1.06,0-1.59,0-3.17,0-4.9-1.44,0-2.76,0-4.08,0Zm10.06-3.06c0-12.04,0-24.03,0-36.09-2.98,0-5.93,0-8.93,0,0,12.03,0,24.03,0,36.09,3.02,0,5.95,0,8.93,0Z"/>
      <path class="cls-3" d="m55.06,28.52c1.84,0,2.25.4,2.25,2.21,0,12.6,0,25.21,0,37.81,0,1.83-.39,2.22-2.23,2.22-1.25,0-2.5,0-3.81,0,0,2.05.01,3.96,0,5.87,0,.99-.6,1.64-1.45,1.67-.87.03-1.53-.65-1.56-1.67-.02-.71,0-1.41,0-2.12,0-1.23,0-2.45,0-3.76-1.42,0-2.74,0-4.06,0-1.45,0-1.96-.51-1.96-1.97,0-12.75,0-25.5,0-38.25,0-1.51.5-2.01,2.01-2.02,1.31,0,2.63,0,4.01,0,0-.64,0-1.16,0-1.69,0-1.91-.02-3.83.01-5.74.02-.97.67-1.61,1.53-1.6.84,0,1.44.61,1.48,1.54.03.68,0,1.35,0,2.03,0,1.79,0,3.58,0,5.46,1.33,0,2.56,0,3.78,0Zm-9.74,3.07c0,12.01,0,24,0,36.08,2.92,0,5.87,0,8.89,0,0-11.99,0-24.01,0-36.08-2.96,0-5.89,0-8.89,0Z"/>
      <path class="cls-1" d="m26.91,64.76c-1.18-.01-2.35-.02-3.53-.02-1.84,0-2.25-.4-2.25-2.21,0-12.6,0-25.21,0-37.81,0-1.83.4-2.22,2.23-2.22,1.25,0,2.5,0,3.77,0,.02-.32.03-.49.03-.66,0-2.24,0-4.48,0-6.71,0-1.02.57-1.63,1.45-1.65.91-.02,1.52.61,1.56,1.65.02.5,0,1,0,1.5,0,1.93,0,3.87,0,5.88,1.42,0,2.74,0,4.05,0,1.45,0,1.97.51,1.97,1.96,0,12.78,0,25.56,0,38.34,0,1.4-.53,1.93-1.92,1.93-1.34,0-2.69,0-4.1,0,0,.39,0,.68,0,.97,0,1.65.02,3.3-.01,4.95-.02.97-.67,1.62-1.52,1.61-.83,0-1.43-.63-1.48-1.54-.02-.29,0-.59,0-.88,0-1.67,0-3.34,0-4.97-.15-.07-.2-.11-.25-.11Zm-2.7-3.09c2.98,0,5.91,0,8.91,0,0-12.01,0-24,0-36.08-2.92,0-5.87,0-8.91,0v36.08Z"/>
    </g>
  </g>
</svg>