<?xml version="1.0" encoding="UTF-8"?>
<svg id="Layer_1" data-name="Layer 1" xmlns="http://www.w3.org/2000/svg" viewBox="0 0 80.05 72.24">
  <defs>
    <style>
      .cls-1 {
        fill: #fff;
      }

      .cls-1, .cls-2, .cls-3 {
        stroke-width: 0px;
      }

      .cls-2 {
        fill: aqua;
      }

      .cls-3 {
        fill: #0070ff;
      }
    </style>
  </defs>
  <path class="cls-2" d="m64.04,9.48c2.76-.83,4.93-.12,6.12,1.93,1.19,2.05.7,4.34-1.38,6.26.6,1.04,1.2,2.11,1.82,3.17.68,1.19,1.38,2.37,2.05,3.56,1.16,2.07.63,4.46-1.23,5.71-1.87,1.26-4.25.82-5.76-1.01-.2-.24-.61-.44-.93-.44-3.72-.05-7.32.64-10.87,1.71-.22.06-.43.36-.51.6-.57,1.64-1.12,3.29-1.63,4.95-.07.24.02.62.18.83,1.11,1.55,2.27,3.07,3.4,4.61,1.15,1.56,1.03,2.7-.43,4.01-.38.34-.75.7-1.14,1.03-1.2,1.03-2.71.89-3.68-.37-1.11-1.45-2.19-2.92-3.33-4.45-4.4,2.82-9.11,3.58-14.09,1.94-3.41-1.13-6.11-3.24-8.1-6.22-4-5.98-3.42-13.86,1.36-19.28,4.57-5.18,13.03-7.4,20.53-2.72,2.4-2.39,4.56-4.99,6.2-7.98.1-.19.09-.52,0-.73-.89-2.33-.08-4.62,2.01-5.61,2.06-.98,4.34-.19,5.58,1.93,1.27,2.18,2.53,4.37,3.81,6.59Zm-12.78,19.02c-.03-7.53-6.12-13.55-13.66-13.52-7.44.03-13.44,6.11-13.43,13.57.02,7.49,6.09,13.55,13.56,13.53,7.46-.01,13.56-6.14,13.52-13.59Zm-2.9-11.68c1.51,1.4,2.77,3.08,3.69,5.03.92,1.96,1.35,4.04,1.48,6,3.52-.58,6.94-1.14,10.39-1.71-3.21-5.56-6.46-11.18-9.65-16.71-1.98,2.48-3.92,4.91-5.92,7.4Zm8.06-14.09c-.42.2-.91.33-1.26.61-.8.65-.83,1.63-.17,2.77,4.05,7.03,8.11,14.05,12.17,21.08.13.23.27.47.44.67.55.62,1.24.84,2.04.6.8-.25,1.31-.83,1.33-1.64.02-.5-.18-1.06-.43-1.51-1.58-2.81-3.21-5.59-4.82-8.38-2.47-4.28-4.95-8.56-7.41-12.84-.42-.72-.94-1.24-1.88-1.36Zm-4.4,42.12c.48-.42.88-.81,1.32-1.15.42-.33.48-.59.12-1.04-.9-1.14-1.74-2.32-2.6-3.48-.21-.29-.43-.57-.67-.88-.61.67-1.13,1.24-1.69,1.86,1.17,1.56,2.32,3.1,3.51,4.7Zm13.2-33.33c.81,1.41,1.59,2.75,2.38,4.12.97-1,1.15-2.13.58-3.1-.58-.99-1.6-1.36-2.97-1.02Z"/>
  <path class="cls-3" d="m11.01,48.19c2.31-1.11,4.53-2.25,6.81-3.25,1.69-.75,3.41-1.47,5.19-1.94,2.13-.57,4.33-.25,6.16.91,3.3,2.1,7.04,2.81,10.7,3.8,1.64.44,3.09,1.06,4.05,2.54.1.15.57.18.82.11,3.82-1.09,7.63-2.23,11.44-3.32,1.98-.57,3.99-.9,6.04-.44,2.95.67,4.47,3.09,3.73,6-.57,2.23-1.9,3.9-4.1,4.75-6.74,2.6-13.47,5.21-20.22,7.76-1.3.49-2.67.8-4.03,1.09-1.52.33-3.04.2-4.54-.25-2.93-.87-5.88-1.69-8.81-2.57-1.31-.4-2.53-.28-3.74.35-.81.42-1.63.8-2.52,1.23.16.41.3.77.43,1.14.59,1.63-.05,3.26-1.64,3.96-1.54.69-3.11,1.33-4.69,1.94-1.65.64-3.33-.03-4.01-1.67-2.63-6.26-5.24-12.53-7.83-18.81-.66-1.6.04-3.25,1.63-3.96,1.45-.64,2.92-1.23,4.38-1.84,1.99-.82,3.58-.16,4.45,1.84.07.17.16.34.29.62Zm.82,2.06c1.79,4.28,3.51,8.41,5.25,12.6.86-.41,1.64-.76,2.39-1.16,1.76-.92,3.56-1.07,5.46-.5,2.75.83,5.54,1.55,8.27,2.43,1.87.6,3.74.69,5.54.02,7.57-2.82,15.12-5.7,22.66-8.61,1.31-.51,2.03-1.66,2.34-3,.42-1.82-.46-3.15-2.32-3.28-1.24-.09-2.55-.04-3.74.27-3.69.97-7.33,2.09-10.99,3.15-.66.19-1.32.4-1.96.59-.01.2-.02.3-.03.41-.24,3.5-3.29,5.71-6.69,4.85-.73-.18-1.45-.39-2.18-.58-3.01-.81-6.02-1.62-9.03-2.41-.57-.15-1.07-.45-1.03-1.06.03-.39.31-.85.63-1.09.24-.17.73-.1,1.07-.01,3.77.98,7.52,2.01,11.29,2.98,1.61.42,3.13-.53,3.55-2.1.4-1.53-.46-3.06-2-3.55-.41-.13-.83-.22-1.24-.34-3.67-1.06-7.46-1.68-10.77-3.85-1.88-1.23-4.13-1.33-6.22-.44-3.43,1.46-6.78,3.09-10.26,4.69Zm4.6,17.08c-.12-.35-.18-.55-.26-.75-2.51-6.04-5.03-12.09-7.55-18.13-.35-.84-.66-.96-1.51-.61-1.32.54-2.63,1.08-3.94,1.64-.95.4-1.06.67-.67,1.6.83,2.01,1.67,4.01,2.51,6.02,1.67,4.01,3.34,8.02,5.01,12.04.26.62.6,1.03,1.34.73,1.47-.6,2.94-1.19,4.38-1.83.29-.13.48-.48.69-.7Z"/>
  <path class="cls-1" d="m67.78,6.29c-1.04-.02-1.59-.85-1.19-1.61.76-1.42,1.58-2.81,2.42-4.18.32-.52.87-.64,1.42-.34.57.32.8.86.49,1.44-.76,1.42-1.57,2.81-2.42,4.18-.17.28-.58.41-.73.51Z"/>
  <path class="cls-1" d="m76.56,17.9c-.7,0-1.4.01-2.1,0-.8-.02-1.31-.45-1.32-1.11-.01-.66.5-1.14,1.28-1.15,1.45-.01,2.91-.01,4.36,0,.78,0,1.29.49,1.28,1.15-.01.66-.52,1.09-1.32,1.11-.73.01-1.45,0-2.18,0Z"/>
  <path class="cls-1" d="m73.36,10.77c-.31-.28-.81-.52-.9-.86-.1-.38.04-1.06.32-1.25,1.31-.87,2.69-1.64,4.08-2.39.5-.27,1.01-.08,1.34.4.33.48.34,1.08-.12,1.38-1.42.91-2.9,1.71-4.35,2.55-.06.04-.16.02-.24.03-.04.05-.08.09-.13.14Z"/>
  <g>
    <path class="cls-1" d="m37.77,21c1.32.12,2.66.55,3.73,1.59.64.62.69,1.35.19,1.84-.5.48-1.08.39-1.76-.21-.8-.7-1.72-1.09-2.81-.87-1.13.22-1.94,1.12-1.89,2.08.05.97.92,1.82,2.03,1.97.48.06.97.07,1.44.16,2.02.36,3.57,1.99,3.74,3.9.16,1.87-.99,3.62-2.93,4.35-.47.18-.66.37-.64.9.03.8-.45,1.3-1.11,1.32-.65.01-1.12-.48-1.13-1.29,0-.46-.15-.66-.6-.87-.74-.35-1.42-.85-2.06-1.37-.54-.43-.57-1.02-.15-1.58.38-.5,1.11-.56,1.65-.08.71.62,1.43,1.12,2.44,1.03,1.23-.1,2.22-.95,2.27-2,.05-1-.75-1.88-1.96-2.1-.5-.09-1.02-.07-1.52-.17-2.3-.46-3.93-2.48-3.73-4.57.22-2.27,2.28-4.06,4.8-4.05Z"/>
    <rect class="cls-1" x="36.24" y="19.23" width="2.36" height="3.52" rx="1.18" ry="1.18"/>
  </g>
</svg>