<?xml version="1.0" encoding="UTF-8"?>
<svg id="Layer_1" data-name="Layer 1" xmlns="http://www.w3.org/2000/svg" viewBox="0 0 76.93 88.59">
  <defs>
    <style>
      .cls-1 {
        fill: #fff;
      }

      .cls-1, .cls-2, .cls-3 {
        stroke-width: 0px;
      }

      .cls-2 {
        fill: aqua;
      }

      .cls-3 {
        fill: #0070ff;
      }
    </style>
  </defs>
  <path class="cls-3" d="m6.92,88.59c-.8-.49-1.06-1.2-1.02-2.12.05-1.27.01-2.54.01-3.81,0-.48,0-.95,0-1.48-1.39,0-2.63,0-3.87,0-1.6,0-2.04-.45-2.04-2.07,0-12.42,0-24.84,0-37.25,0-1.6.47-2.07,2.06-2.07,1.26,0,2.52,0,3.85,0,0-.44,0-.75,0-1.06,0-2.02-.01-4.04,0-6.06,0-1.07.63-1.76,1.52-1.74.86.02,1.42.67,1.43,1.72.01,2.05,0,4.1,0,6.15,0,.31,0,.61,0,.99,1.28,0,2.43,0,3.58,0,1.99,0,2.34.34,2.34,2.3,0,12.27,0,24.55,0,36.82,0,.35,0,.7-.04,1.04-.11.71-.55,1.13-1.27,1.21-.4.04-.81.02-1.21.03-1.11,0-2.23,0-3.4,0,0,1.88-.04,3.61.02,5.33.03.88-.21,1.57-.93,2.07h-1.04Zm-3.92-10.44h8.77c0-11.76,0-23.53,0-35.35H3c0,11.79,0,23.53,0,35.35Z"/>
  <path class="cls-1" d="m43.44,69.37c-1.55,0-2.02-.47-2.02-2.01,0-12.47,0-24.94,0-37.41,0-1.49.49-1.98,1.97-1.98,1.29,0,2.58,0,3.94,0,0-1.31,0-2.52,0-3.72,0-1.18-.02-2.37,0-3.55.02-.96.65-1.58,1.49-1.58.86,0,1.42.61,1.45,1.59.02.52,0,1.04,0,1.56,0,1.87,0,3.74,0,5.7,1.35,0,2.62,0,3.88,0,1.6,0,2.04.45,2.04,2.07,0,12.44,0,24.88,0,37.33,0,1.57-.44,2.01-2,2.01-1.29,0-2.57,0-3.92,0,0,2,0,3.88,0,5.75,0,.7-.25,1.24-.91,1.52-1.05.44-2.02-.3-2.04-1.59-.02-1.85,0-3.69,0-5.68-1.36,0-2.63,0-3.89,0Zm1-38.4c0,11.78,0,23.54,0,35.38h8.73c0-11.76,0-23.55,0-35.38h-8.73Z"/>
  <path class="cls-3" d="m64.05,50.14c-1.44,0-1.92-.47-1.92-1.92,0-12.5,0-24.99,0-37.49,0-1.54.47-1.99,2.04-1.99,1.26,0,2.52,0,3.88,0,0-.41,0-.72,0-1.03,0-2.02-.03-4.04.02-6.06.01-.47.19-1.11.52-1.36.36-.28,1.03-.34,1.5-.23.69.17.91.82.91,1.51,0,2.08,0,4.16,0,6.23,0,.3,0,.6,0,.95,1.44,0,2.74,0,4.04,0,1.32,0,1.87.53,1.87,1.82,0,12.58,0,25.17,0,37.75,0,1.31-.53,1.82-1.85,1.83-1.32,0-2.64,0-4.06,0,0,.4,0,.7,0,1.01,0,1.62.02,3.23-.01,4.85-.01.82-.45,1.38-1.28,1.51-.71.12-1.25-.22-1.53-.87-.13-.3-.13-.68-.13-1.02-.01-1.79,0-3.57,0-5.49-1.42,0-2.71,0-4,0Zm1.11-38.4v35.38h8.74c0-11.75,0-23.52,0-35.38h-8.74Z"/>
  <path class="cls-2" d="m33.57,22.06c1.43,0,1.94.5,1.94,1.91,0,12.53,0,25.06,0,37.59,0,1.4-.52,1.9-1.96,1.91-1.29,0-2.58,0-3.95,0,0,.4,0,.71,0,1.03,0,1.59.02,3.18,0,4.76-.02.96-.64,1.59-1.48,1.59-.84,0-1.43-.63-1.46-1.59-.01-.35,0-.69,0-1.04,0-1.55,0-3.1,0-4.75-1.38,0-2.67,0-3.96,0-1.48,0-1.96-.48-1.96-1.98,0-12.47,0-24.94,0-37.41,0-1.56.45-2.01,2-2.01,1.29,0,2.57,0,3.91,0,0-.44,0-.76,0-1.07,0-2.08-.01-4.16,0-6.24,0-.94.57-1.52,1.4-1.54.86-.03,1.5.57,1.54,1.52.04.89.01,1.79.01,2.68,0,1.52,0,3.04,0,4.65,1.38,0,2.67,0,3.97,0Zm-9.83,3c0,11.81,0,23.58,0,35.4h8.77c0-11.8,0-23.57,0-35.4h-8.77Z"/>
</svg>