<?xml version="1.0" encoding="UTF-8"?>
<svg id="Layer_1" data-name="Layer 1" xmlns="http://www.w3.org/2000/svg" viewBox="0 0 84.52 68.65">
  <defs>
    <style>
      .cls-1 {
        fill: #fff;
      }

      .cls-1, .cls-2, .cls-3 {
        stroke-width: 0px;
      }

      .cls-2 {
        fill: aqua;
      }

      .cls-3 {
        fill: #0070ff;
      }
    </style>
  </defs>
  <path class="cls-3" d="m57.86,9.44c1.82-1.82,3.62-3.59,5.39-5.4.46-.47.94-.66,1.6-.66,2.53.03,5.06.01,7.57.01,1.39-2.81,3.09-3.82,5.37-3.23,1.91.49,3.2,2.3,3.11,4.34-.08,1.89-1.58,3.59-3.44,3.91-2.22.38-4-.77-4.97-3.29-2.5,0-5.03-.02-7.56.02-.28,0-.6.29-.83.52-5.93,5.91-11.86,11.84-17.78,17.76-1,1-1.11.99-2.18.06-4.42-3.83-9.47-4.94-14.95-2.95-5.46,1.98-8.65,6.05-9.56,11.78-.94,5.94,2.12,11.92,7.44,14.89,5.3,2.95,11.97,2.34,16.55-1.58,1.77-1.51,1.58-1.51,3.26.18,5.72,5.72,11.44,11.44,17.15,17.17.42.42.83.6,1.43.6,2.33-.03,4.66-.01,7.04-.01.41-1.33,1.11-2.49,2.45-2.93.86-.29,1.88-.42,2.76-.25,2.01.38,3.29,2.25,3.19,4.33-.09,1.97-1.6,3.59-3.63,3.9-2.12.33-3.86-.86-4.78-3.33-2.35,0-4.74-.05-7.12.02-1.03.03-1.78-.27-2.49-1.02-1.61-1.72-3.32-3.35-5.01-5.05-.67.57-1.28,1.13-1.92,1.65-1.86,1.52-4.06,1.53-5.92.02-1.16-.94-2.31-1.91-3.45-2.87-.79-.66-1.64-.94-2.64-.54-1.03.42-1.45,1.25-1.54,2.3-.12,1.49-.25,2.98-.37,4.47-.18,2.19-1.65,3.94-3.84,4.1-2.51.19-5.06.23-7.58.06-2.33-.16-3.75-1.8-3.99-4.15-.16-1.55-.31-3.09-.46-4.64-.09-.98-.57-1.68-1.48-2.05-.9-.37-1.75-.21-2.5.42-1.19,1-2.37,2.01-3.57,3-1.94,1.59-4.17,1.62-6.04-.05-1.69-1.52-3.31-3.12-4.83-4.8-1.68-1.85-1.63-4.12-.06-6.04.93-1.14,1.87-2.27,2.81-3.39.66-.78.96-1.65.55-2.63-.4-.97-1.16-1.44-2.21-1.53-1.58-.12-3.15-.26-4.73-.43-2.25-.24-3.92-1.86-4.02-4.13-.11-2.38-.11-4.77-.01-7.15.09-2.23,1.89-3.9,4.16-4.11,1.63-.15,3.27-.26,4.89-.49,1.38-.2,2.23-1.42,1.95-2.76-.1-.48-.4-.95-.71-1.35-.91-1.15-1.89-2.25-2.83-3.38-1.56-1.88-1.63-4.17-.02-5.97,1.55-1.73,3.2-3.39,4.92-4.95,1.78-1.62,4.03-1.58,5.9-.07,1.19.96,2.36,1.94,3.53,2.92.8.67,1.67.91,2.64.48.96-.42,1.4-1.21,1.47-2.25.09-1.44.22-2.87.36-4.3.23-2.54,1.68-4.17,4.19-4.36,2.37-.17,4.78-.18,7.15-.03,2.41.16,3.89,1.83,4.14,4.32.15,1.43.27,2.86.38,4.3.08,1.03.5,1.83,1.49,2.24.98.41,1.85.18,2.64-.49,1.14-.97,2.28-1.94,3.43-2.9,1.88-1.57,4.08-1.59,5.99-.05.69.56,1.36,1.16,2.12,1.81Zm-1.29,1.19c-.64-.55-1.23-1.09-1.85-1.6-1.33-1.08-2.59-1.07-3.9.02-1.13.94-2.25,1.89-3.37,2.84-1.32,1.12-2.82,1.44-4.42.78-1.65-.68-2.42-2.03-2.56-3.78-.11-1.41-.23-2.81-.38-4.21-.17-1.65-1.08-2.69-2.67-2.75-2.21-.09-4.43-.09-6.64.03-1.68.09-2.56,1.11-2.72,2.8-.13,1.43-.26,2.87-.36,4.3-.12,1.7-.9,2.97-2.45,3.67-1.6.72-3.09.42-4.43-.68-1.16-.95-2.3-1.92-3.46-2.86-1.34-1.08-2.63-1.12-3.89.05-1.56,1.44-3.06,2.96-4.5,4.52-1.22,1.33-1.16,2.63,0,4.03.96,1.15,1.95,2.27,2.89,3.44,2.11,2.64.73,6.26-2.6,6.76-1.59.24-3.2.33-4.81.49-1.59.15-2.63,1.14-2.67,2.74-.06,2.18-.05,4.37.02,6.55.05,1.52,1.02,2.49,2.54,2.67,1.54.18,3.09.3,4.64.43,1.74.14,3,.98,3.66,2.59.66,1.62.27,3.1-.84,4.41-.93,1.1-1.85,2.21-2.76,3.32-1.06,1.3-1.11,2.66.04,3.89,1.47,1.58,3,3.1,4.59,4.55,1.25,1.15,2.56,1.09,3.89,0,1.22-1,2.41-2.05,3.65-3.04,1.25-1,2.68-1.19,4.14-.58,1.5.62,2.35,1.8,2.52,3.43.17,1.6.3,3.21.48,4.81.16,1.39.97,2.4,2.35,2.46,2.43.11,4.88.09,7.32-.05,1.32-.07,2.14-1.12,2.27-2.44.14-1.43.26-2.87.36-4.3.12-1.8.83-3.23,2.55-3.98,1.73-.74,3.25-.29,4.63.9,1.07.92,2.16,1.81,3.25,2.71.95.78,2.04,1.05,3.12.41.87-.52,1.61-1.25,2.3-1.8-3.87-3.87-7.65-7.65-11.43-11.43-6.99,6.06-16.97,5.03-22.73-.99-5.75-6.01-6.17-15.3-.91-21.75,2.57-3.16,5.88-5.15,9.9-5.83,5.21-.88,9.85.48,13.82,3.89,3.81-3.81,7.58-7.57,11.42-11.41Zm20.09,51.31c-1.36,0-2.47,1.1-2.49,2.45-.02,1.36,1.16,2.55,2.52,2.54,1.37,0,2.5-1.18,2.48-2.57-.03-1.36-1.14-2.43-2.51-2.42Zm2.51-57.67c.01-1.39-1.14-2.54-2.51-2.53-1.33.01-2.47,1.15-2.49,2.48-.02,1.38,1.13,2.52,2.52,2.51,1.36,0,2.46-1.11,2.47-2.46Z"/>
  <path class="cls-2" d="m76.1,18.44c.9-2.52,2.69-3.68,4.96-3.29,1.94.33,3.42,2.07,3.45,4.07.03,2.03-1.43,3.86-3.38,4.23-2.25.42-4.05-.72-5.05-3.27-1.37,0-2.78,0-4.19,0-1.99,0-3.97-.03-5.96.03-.45.01-1,.24-1.33.56-2.8,2.74-5.56,5.51-8.31,8.29-.46.47-.94.65-1.6.65-8.29-.02-16.58-.01-24.87-.01-.23,0-.53.08-.68-.04-.29-.22-.65-.54-.68-.84-.02-.25.34-.61.62-.79.21-.13.56-.06.85-.06,8.06,0,16.12,0,24.18,0,.56,0,.96-.16,1.36-.56,2.75-2.78,5.54-5.54,8.29-8.32.46-.46.93-.67,1.59-.67,3.25.03,6.5.01,9.76.01h.98Zm4.19-1.64c-1.34,0-2.47,1.11-2.5,2.45-.03,1.38,1.11,2.53,2.5,2.53,1.35,0,2.48-1.1,2.5-2.44.03-1.37-1.12-2.54-2.5-2.54Z"/>
  <path class="cls-2" d="m76.08,48.47c.98-2.34,2.33-3.35,4.34-3.3,2.1.06,3.84,1.66,4.07,3.75.23,2.03-1.11,3.99-3.08,4.54-2.02.56-4.22-.43-4.98-2.39-.28-.71-.62-.85-1.3-.85-3.25.03-6.5,0-9.76.03-.66,0-1.13-.18-1.6-.65-2.71-2.74-5.46-5.45-8.16-8.2-.48-.49-.95-.7-1.65-.7-8,.03-16,.02-24,.02-.26,0-.59.09-.76-.04-.31-.22-.69-.56-.73-.89-.02-.24.43-.57.73-.77.16-.11.45-.03.68-.03,8.26,0,16.52,0,24.78-.01.69,0,1.18.21,1.66.7,2.75,2.78,5.52,5.55,8.31,8.3.26.26.67.51,1.01.51,3.37.04,6.73.02,10.1.02.11,0,.22-.03.32-.04Zm6.71.9c0-1.35-1.11-2.45-2.47-2.46-1.4-.01-2.54,1.11-2.53,2.5.01,1.34,1.14,2.47,2.47,2.49,1.36.02,2.54-1.16,2.53-2.52Z"/>
  <path class="cls-1" d="m51.94,33.47c4.81,0,9.61,0,14.42.01.53,0,.78-.12.99-.67.74-1.98,2.71-3.01,4.79-2.62,1.9.36,3.38,2.18,3.37,4.15,0,1.94-1.45,3.73-3.32,4.11-2.06.43-4.09-.6-4.82-2.57-.24-.65-.58-.71-1.14-.71-9.38.01-18.77,0-28.15,0-.23,0-.46,0-.69,0-.59.01-1.06-.18-1.07-.84-.01-.72.48-.89,1.11-.89,3.83,0,7.66,0,11.48,0,1.01,0,2.01,0,3.02,0Zm19.31-1.62c-1.37.01-2.45,1.1-2.46,2.47,0,1.4,1.12,2.52,2.52,2.5,1.35-.02,2.47-1.14,2.48-2.47.01-1.37-1.15-2.51-2.54-2.5Z"/>
</svg>