<?xml version="1.0" encoding="UTF-8"?>
<svg id="Layer_1" data-name="Layer 1" xmlns="http://www.w3.org/2000/svg" viewBox="0 0 99.22 99.23">
  <defs>
    <style>
      .cls-1 {
        fill: #fff;
      }

      .cls-1, .cls-2, .cls-3 {
        stroke-width: 0px;
      }

      .cls-2 {
        fill: aqua;
      }

      .cls-3 {
        fill: #0070ff;
      }
    </style>
  </defs>
  <path class="cls-3" d="m55.71,43.99c2.76,1.19,4.99,2.88,6.75,5.18,2.25,2.92,3.33,6.25,3.37,9.92.03,2.35.01,4.7,0,7.05,0,1.46-.55,2-2.03,2-9.47,0-18.94,0-28.41,0-1.47,0-2.02-.55-2.01-2.02.02-2.91-.13-5.83.16-8.71.62-6.15,3.92-10.51,9.47-13.17.12-.06.23-.12.46-.25-3.24-2.71-4.74-6.11-4-10.3.44-2.54,1.76-4.62,3.79-6.21,4.18-3.27,10.16-2.84,13.79,1,2.13,2.26,3.09,4.96,2.83,8.05-.26,3.06-1.74,5.48-4.17,7.45Zm-19.21,20.95h26.2c0-2.11.05-4.16,0-6.21-.19-6.45-5.08-11.94-11.23-12.66-6.77-.79-12.75,3.14-14.48,9.57-.82,3.04-.34,6.15-.48,9.3Zm13.08-22.16c3.99.01,7.25-3.23,7.23-7.19-.02-3.93-3.24-7.15-7.17-7.16-3.99,0-7.25,3.23-7.23,7.2.01,3.94,3.22,7.14,7.17,7.15Z"/>
  <path class="cls-2" d="m92.88,47.99c-.42-.36-.74-.59-1-.87-.6-.63-.68-1.34-.15-2.04.53-.7,1.31-.88,2-.39,1.7,1.21,3.36,2.48,4.97,3.81.78.65.67,1.7-.18,2.38-1.5,1.2-3.03,2.37-4.58,3.52-.75.56-1.67.42-2.19-.24-.55-.69-.46-1.53.25-2.18.24-.22.5-.42.97-.81-1.34,0-2.46,0-3.57,0-2.32-.01-4.44-.66-6.32-2.02-2.22-1.6-3.54-3.77-4.22-6.4-2.86-10.97-9.69-18.24-20.41-21.87-1.19-.4-1.66-1.12-1.38-2.09.27-.92,1.15-1.3,2.33-.9,11.6,3.91,19.11,11.74,22.36,23.56,1.07,3.88,3.15,6.1,6.63,6.5,1.42.16,2.87.03,4.49.03Z"/>
  <path class="cls-1" d="m51.18,92.94c.41-.47.63-.78.9-1.04.62-.6,1.33-.69,2.03-.17.7.52.89,1.31.41,1.99-1.21,1.7-2.48,3.36-3.8,4.98-.62.76-1.67.7-2.31-.09-1.25-1.55-2.46-3.13-3.64-4.73-.52-.7-.35-1.61.27-2.11.69-.55,1.53-.47,2.19.23.22.24.42.5.82.99,0-.69-.04-1.14,0-1.59.18-1.84.1-3.77.63-5.5,1.12-3.62,3.7-5.97,7.39-6.88,6.2-1.53,11.51-4.5,15.81-9.24,2.9-3.19,4.98-6.84,6.32-10.93.09-.28.15-.57.27-.84.36-.84,1.19-1.21,2.01-.91.75.27,1.25,1.09.91,1.9-1.08,2.61-1.99,5.35-3.44,7.75-4.69,7.8-11.55,12.81-20.38,15.07-4.39,1.12-6.4,3.7-6.41,8.22,0,.88,0,1.76,0,2.91Z"/>
  <path class="cls-2" d="m6.28,51.18c.52.44.84.67,1.1.96.58.64.63,1.37.08,2.04-.52.64-1.28.83-1.93.37-1.73-1.23-3.41-2.52-5.04-3.88-.72-.6-.64-1.62.11-2.24,1.55-1.25,3.13-2.46,4.73-3.65.7-.52,1.61-.38,2.12.24.56.67.49,1.54-.19,2.19-.25.24-.53.45-.97.84,1.21,0,2.21,0,3.2,0,5.53.01,9.51,3.21,10.92,8.56,2.85,10.84,9.63,18.05,20.22,21.69.54.19,1.18.57,1.41,1.04.2.41.07,1.26-.25,1.58-.35.36-1.14.58-1.63.44-3.4-.91-6.53-2.44-9.41-4.46-6.81-4.79-11.28-11.21-13.34-19.29-1.13-4.44-3.7-6.43-8.3-6.43-.87,0-1.74,0-2.85,0Z"/>
  <path class="cls-1" d="m48.05,6.3c-.43.49-.67.83-.98,1.1-.65.57-1.38.6-2.04.04-.63-.53-.79-1.28-.33-1.94,1.21-1.7,2.48-3.36,3.81-4.97.65-.79,1.7-.68,2.38.16,1.18,1.48,2.33,2.99,3.46,4.5.61.81.51,1.72-.16,2.27-.73.59-1.59.45-2.31-.38-.17-.2-.33-.4-.69-.84,0,.6.02.96,0,1.31-.13,1.75,0,3.57-.45,5.24-1.04,3.89-3.66,6.45-7.58,7.42-6.29,1.57-11.67,4.61-16,9.46-2.8,3.14-4.82,6.72-6.12,10.71-.09.28-.15.57-.27.84-.36.84-1.2,1.2-2.02.91-.75-.27-1.16-1.06-.92-1.91.8-2.84,1.99-5.52,3.56-8.02,4.8-7.6,11.55-12.56,20.27-14.8,4.38-1.12,6.4-3.71,6.41-8.22,0-.88,0-1.76,0-2.9Z"/>
</svg>